<svg width="250" height="250" viewBox="0 0 250 250" fill="none" xmlns="http://www.w3.org/2000/svg">
<path d="M17.67 211.95V224.5H20.565C20.4132 223.179 20.4132 221.846 20.565 220.525C20.84 219.05 23.985 215.24 23.89 211.97L17.67 211.95Z" fill="#EBEBEB"/>
<path d="M40.83 211.95V224.5H43.725C43.5732 223.179 43.5732 221.846 43.725 220.525C44 219.05 47.145 215.24 47.05 211.97L40.83 211.95Z" fill="#E0E0E0"/>
<path d="M63.5 211.95V224.5H60.6C60.7491 223.179 60.7491 221.846 60.6 220.525C60.32 219.05 57.18 215.24 57.27 211.97L63.5 211.95Z" fill="#EBEBEB"/>
<path d="M83.54 211.95V224.5H80.645C80.7941 223.179 80.7941 221.846 80.645 220.525C80.37 219.05 77.225 215.24 77.32 211.97L83.54 211.95Z" fill="#E0E0E0"/>
<path d="M85.06 150.065H15.7V212.35H85.06V150.065Z" fill="#F5F5F5"/>
<path d="M66.375 150.065L66.89 212.35H85.06V150.065H66.375Z" fill="#E0E0E0"/>
<path d="M63.35 154.65H18.82V170.5H63.35V154.65Z" fill="#EBEBEB"/>
<path d="M63.35 173.655H18.82V189.505H63.35V173.655Z" fill="#EBEBEB"/>
<path d="M63.35 192.665H18.82V208.515H63.35V192.665Z" fill="#EBEBEB"/>
<path d="M35.89 132.17L33.97 149.995H58.58L60.62 132.17H35.89Z" fill="#E0E0E0"/>
<path d="M36.905 133.45L35.035 149.045H57.245L59.04 133.45H36.905Z" fill="white"/>
<path d="M40.64 136.075L39.49 146.425H53.505L54.225 136.075H40.64Z" fill="#EBEBEB"/>
<path d="M59.74 139.845L64.825 150.065L58.58 149.995L59.74 139.845Z" fill="#EBEBEB"/>
<path d="M42.715 163.4C42.716 163.723 42.6212 164.038 42.4427 164.307C42.2642 164.576 42.01 164.785 41.7123 164.909C41.4145 165.034 41.0866 165.067 40.7701 165.004C40.4536 164.942 40.1627 164.787 39.9342 164.559C39.7057 164.332 39.55 164.041 39.4867 163.725C39.4234 163.409 39.4554 163.081 39.5786 162.782C39.7018 162.484 39.9108 162.229 40.1789 162.05C40.4471 161.871 40.7624 161.775 41.085 161.775C41.5164 161.775 41.9303 161.946 42.2358 162.251C42.5414 162.555 42.7137 162.969 42.715 163.4Z" fill="#E0E0E0"/>
<path d="M42.715 182.6C42.715 182.922 42.6194 183.238 42.4403 183.506C42.2612 183.774 42.0066 183.983 41.7088 184.106C41.4109 184.229 41.0832 184.262 40.767 184.199C40.4508 184.136 40.1604 183.981 39.9324 183.753C39.7045 183.525 39.5492 183.234 39.4863 182.918C39.4234 182.602 39.4557 182.274 39.5791 181.976C39.7025 181.678 39.9114 181.424 40.1794 181.245C40.4475 181.066 40.7626 180.97 41.085 180.97C41.2993 180.969 41.5115 181.011 41.7096 181.093C41.9076 181.174 42.0876 181.294 42.2391 181.446C42.3906 181.597 42.5106 181.777 42.5923 181.975C42.674 182.173 42.7157 182.386 42.715 182.6Z" fill="#E0E0E0"/>
<path d="M42.715 201.795C42.715 202.117 42.6194 202.433 42.4403 202.701C42.2612 202.969 42.0066 203.178 41.7088 203.301C41.4109 203.424 41.0832 203.457 40.767 203.394C40.4508 203.331 40.1604 203.176 39.9324 202.948C39.7045 202.72 39.5492 202.429 39.4863 202.113C39.4234 201.797 39.4557 201.469 39.5791 201.171C39.7025 200.873 39.9114 200.619 40.1794 200.44C40.4475 200.261 40.7626 200.165 41.085 200.165C41.5173 200.165 41.9319 200.337 42.2376 200.642C42.5433 200.948 42.715 201.363 42.715 201.795Z" fill="#E0E0E0"/>
<path d="M63.28 48.815L23.955 48.435L25.05 99.685L64.375 99.83L63.28 48.815Z" fill="#E0E0E0"/>
<path d="M60.745 51.1L26.32 50.21L27.315 96.69L61.73 97.115L60.745 51.1Z" fill="#FAFAFA"/>
<path d="M54.87 58.045L32.025 57.665L32.725 90.155L55.545 89.665L54.87 58.045Z" fill="#EBEBEB"/>
<path d="M32.725 90.155L55.19 72.975L32.025 57.665L32.725 90.155Z" fill="#F5F5F5"/>
<path d="M232.505 22.1L198 21.765L198.965 66.73L233.46 66.855L232.505 22.1Z" fill="#E0E0E0"/>
<path d="M230.275 24.11L200.075 23.325L200.95 64.1L231.14 64.47L230.275 24.11Z" fill="#FAFAFA"/>
<path d="M225.12 30.2L205.085 29.865L205.695 58.365L225.715 57.94L225.12 30.2Z" fill="#EBEBEB"/>
<path d="M205.695 58.365L225.405 43.295L205.085 29.865L205.695 58.365Z" fill="#F5F5F5"/>
<path d="M193.855 191.15C193.71 191.59 198.855 211.15 198.855 211.15L202.385 210.415L197.53 191.15H193.855Z" fill="#EBEBEB"/>
<path d="M221.21 188.355L214.15 211.15H218.27L225.035 189.975L221.21 188.355Z" fill="#F5F5F5"/>
<path d="M227.68 184.825L219.59 211.15H223.71L231.505 186.445L227.68 184.825Z" fill="#EBEBEB"/>
<path d="M196.355 209.535L200.475 223.8H221.21L225.035 209.535H196.355Z" fill="#E0E0E0"/>
<path d="M207.05 209.535C207.032 209.486 207.017 209.436 207.005 209.385L206.895 208.95C206.8 208.55 206.67 207.985 206.5 207.265L205.075 201.035L200.42 180.26L200.545 180.365H196.915L197.04 180.205C198.885 188.38 200.54 195.705 201.725 200.995C202.305 203.63 202.775 205.755 203.105 207.245C203.255 207.97 203.38 208.535 203.465 208.94C203.5 209.125 203.53 209.27 203.55 209.38C203.558 209.431 203.558 209.484 203.55 209.535C203.532 209.486 203.517 209.436 203.505 209.385C203.475 209.275 203.44 209.13 203.395 208.95C203.295 208.55 203.16 207.985 202.985 207.265C202.64 205.765 202.145 203.66 201.53 201.035C200.315 195.745 198.64 188.43 196.77 180.26L196.73 180.105H200.63L200.655 180.205C202.45 188.38 204.065 195.705 205.23 200.995C205.795 203.63 206.255 205.755 206.575 207.245C206.725 207.97 206.84 208.535 206.925 208.94L207.01 209.38C207.032 209.429 207.045 209.482 207.05 209.535Z" fill="#E0E0E0"/>
<path d="M227.315 224.395C227.315 224.465 179.845 224.525 121.315 224.525C62.785 224.525 15.315 224.465 15.315 224.395C15.315 224.325 62.775 224.265 121.34 224.265C179.905 224.265 227.315 224.325 227.315 224.395Z" fill="#263238"/>
<path d="M213.665 87.925C213.551 87.8767 213.432 87.8399 213.31 87.815C212.953 87.7346 212.582 87.7346 212.225 87.815C211.646 87.9639 211.108 88.2407 210.65 88.625C210.027 89.1641 209.488 89.7926 209.05 90.49C208.025 92.06 207.22 94.23 206.28 96.76C205.192 99.649 204.251 102.591 203.46 105.575C203.313 105.85 203.116 106.096 202.88 106.3C202.758 106.411 202.614 106.494 202.457 106.544C202.3 106.594 202.134 106.61 201.97 106.59C201.649 106.508 201.359 106.334 201.135 106.09C200.9 105.875 200.68 105.645 200.46 105.41C200.026 104.933 199.563 104.482 199.075 104.06C198.603 103.606 197.975 103.35 197.32 103.345C196.992 103.401 196.68 103.525 196.404 103.709C196.127 103.894 195.893 104.134 195.715 104.415C195.36 105.022 195.169 105.712 195.16 106.415C195.075 107.845 195.49 109.29 195.74 110.785C195.99 112.28 196.305 113.815 196.595 115.38C196.745 116.165 196.89 116.955 197.04 117.755L197.265 118.965C197.334 119.176 197.356 119.4 197.331 119.621C197.306 119.842 197.234 120.054 197.12 120.245C197.045 120.345 196.941 120.421 196.822 120.461C196.704 120.501 196.576 120.504 196.455 120.47C196.239 120.407 196.037 120.304 195.86 120.165L194.86 119.405C194.179 118.891 193.472 118.413 192.74 117.975C192.008 117.519 191.208 117.182 190.37 116.975C189.956 116.877 189.524 116.877 189.11 116.975C188.697 117.079 188.333 117.323 188.08 117.665C187.599 118.407 187.363 119.282 187.405 120.165C187.406 121.075 187.495 121.982 187.67 122.875C188.031 124.71 188.541 126.513 189.195 128.265C189.385 128.713 189.531 129.178 189.63 129.655C189.654 129.79 189.65 129.928 189.618 130.062C189.586 130.195 189.527 130.32 189.445 130.43C189.401 130.482 189.352 130.53 189.3 130.575C189.243 130.626 189.177 130.665 189.105 130.69C188.953 130.713 188.797 130.677 188.67 130.59C188.255 130.324 187.868 130.015 187.515 129.67L186.445 128.67C185.744 127.992 184.983 127.379 184.17 126.84C183.765 126.574 183.321 126.371 182.855 126.24C182.634 126.171 182.4 126.15 182.17 126.179C181.94 126.207 181.718 126.284 181.52 126.405C181.134 126.685 180.865 127.098 180.765 127.565C180.645 128.042 180.584 128.533 180.585 129.025C180.59 130.036 180.716 131.044 180.96 132.025C181.454 134.02 182.184 135.948 183.135 137.77C184.082 139.638 185.163 141.434 186.37 143.145C186.974 144.013 187.625 144.848 188.32 145.645C188.99 146.475 189.67 147.3 190.35 148.145V148.175L190.23 148.125L193.41 147.665C194.464 147.539 195.51 147.359 196.545 147.125C198.585 146.666 200.59 146.063 202.545 145.32C204.474 144.607 206.311 143.669 208.02 142.525C208.859 141.97 209.626 141.313 210.305 140.57C210.64 140.206 210.927 139.801 211.16 139.365C211.399 138.952 211.477 138.467 211.38 138C211.316 137.777 211.204 137.57 211.053 137.393C210.902 137.216 210.716 137.074 210.505 136.975C210.07 136.763 209.607 136.614 209.13 136.535C208.166 136.389 207.19 136.331 206.215 136.36H204.755C204.253 136.38 203.75 136.348 203.255 136.265C203.101 136.245 202.961 136.166 202.865 136.045C202.828 135.977 202.806 135.902 202.8 135.825C202.792 135.757 202.792 135.688 202.8 135.62C202.815 135.484 202.857 135.353 202.923 135.234C202.989 135.115 203.078 135.01 203.185 134.925C203.579 134.64 203.999 134.394 204.44 134.19C206.104 133.334 207.694 132.343 209.195 131.225C209.921 130.683 210.591 130.07 211.195 129.395C211.819 128.771 212.232 127.966 212.375 127.095C212.417 126.671 212.311 126.245 212.075 125.89C211.836 125.538 211.517 125.246 211.145 125.04C210.391 124.625 209.576 124.333 208.73 124.175C207.894 124.007 207.049 123.885 206.2 123.81L204.94 123.69C204.715 123.677 204.496 123.618 204.295 123.515C204.183 123.457 204.092 123.367 204.032 123.257C203.972 123.146 203.947 123.02 203.96 122.895C204.006 122.678 204.097 122.474 204.227 122.295C204.357 122.116 204.523 121.966 204.715 121.855L205.715 121.115L207.64 119.65L211.36 116.825C212.555 115.89 213.83 115.1 214.73 113.98C215.191 113.456 215.507 112.823 215.65 112.14C215.708 111.812 215.696 111.475 215.615 111.152C215.534 110.829 215.386 110.527 215.18 110.265C214.962 110.024 214.679 109.85 214.365 109.765C214.051 109.672 213.727 109.618 213.4 109.605C212.756 109.588 212.111 109.611 211.47 109.675C211.15 109.675 210.83 109.72 210.515 109.725C210.187 109.75 209.859 109.678 209.57 109.52C209.432 109.427 209.316 109.305 209.23 109.162C209.143 109.02 209.089 108.86 209.07 108.695C209.033 108.384 209.052 108.069 209.125 107.765C210.556 105.054 211.849 102.272 213 99.43C214 96.93 214.865 94.78 215.175 92.93C215.327 92.1225 215.36 91.2972 215.275 90.48C215.21 89.8859 215.01 89.3146 214.69 88.81C214.496 88.5012 214.233 88.2425 213.92 88.055C213.814 87.9899 213.701 87.9347 213.585 87.89C213.706 87.9226 213.822 87.9713 213.93 88.035C214.252 88.2189 214.526 88.4758 214.73 88.785C215.056 89.2937 215.263 89.8698 215.335 90.47C215.432 91.2942 215.407 92.1282 215.26 92.945C214.96 94.8 214.11 96.945 213.115 99.445C211.989 102.319 210.717 105.135 209.305 107.88C209.236 108.161 209.219 108.453 209.255 108.74C209.269 108.881 209.312 109.018 209.383 109.142C209.454 109.265 209.55 109.372 209.665 109.455C209.926 109.593 210.221 109.654 210.515 109.63C210.825 109.63 211.14 109.6 211.46 109.575C212.11 109.509 212.762 109.484 213.415 109.5C213.754 109.513 214.09 109.569 214.415 109.665C214.759 109.757 215.07 109.942 215.315 110.2C215.533 110.48 215.69 110.803 215.776 111.147C215.862 111.492 215.875 111.85 215.815 112.2C215.67 112.916 215.339 113.582 214.855 114.13C213.93 115.28 212.645 116.08 211.46 117.02L207.745 119.85L205.825 121.31L204.85 122.055C204.685 122.165 204.536 122.296 204.405 122.445C204.285 122.588 204.205 122.761 204.175 122.945C204.166 123.028 204.183 123.112 204.223 123.185C204.264 123.259 204.325 123.318 204.4 123.355C204.577 123.441 204.769 123.49 204.965 123.5L206.225 123.62C207.081 123.693 207.933 123.815 208.775 123.985C209.65 124.146 210.494 124.445 211.275 124.87C211.674 125.099 212.015 125.415 212.275 125.795C212.536 126.193 212.655 126.666 212.615 127.14C212.466 128.062 212.035 128.914 211.38 129.58C210.759 130.267 210.072 130.891 209.33 131.445C207.82 132.574 206.219 133.577 204.545 134.445C204.12 134.638 203.714 134.872 203.335 135.145C203.252 135.209 203.183 135.288 203.131 135.38C203.08 135.471 203.047 135.571 203.035 135.675C203.03 135.725 203.03 135.775 203.035 135.825C203.035 135.865 203.035 135.96 203.07 135.955C203.134 136.013 203.214 136.049 203.3 136.06C203.769 136.136 204.245 136.166 204.72 136.15H206.18C207.17 136.114 208.161 136.173 209.14 136.325C209.645 136.404 210.134 136.561 210.59 136.79C210.831 136.905 211.045 137.071 211.217 137.275C211.39 137.479 211.517 137.718 211.59 137.975C211.703 138.5 211.618 139.049 211.35 139.515C211.108 139.97 210.809 140.392 210.46 140.77C209.768 141.53 208.986 142.201 208.13 142.77C206.406 143.929 204.55 144.878 202.6 145.595C200.63 146.347 198.608 146.955 196.55 147.415C195.512 147.65 194.462 147.831 193.405 147.955L190.22 148.42H190.145L190.1 148.36H190.075L188.045 145.86C187.351 145.061 186.698 144.227 186.09 143.36C184.873 141.637 183.784 139.827 182.83 137.945C181.875 136.103 181.141 134.155 180.645 132.14C180.392 131.145 180.263 130.122 180.26 129.095C180.261 128.579 180.324 128.065 180.45 127.565C180.568 127.041 180.874 126.579 181.31 126.265C181.538 126.124 181.793 126.034 182.058 125.999C182.324 125.965 182.594 125.987 182.85 126.065C183.339 126.204 183.805 126.416 184.23 126.695C185.056 127.242 185.83 127.864 186.54 128.555L187.61 129.555C187.95 129.885 188.322 130.182 188.72 130.44C188.791 130.491 188.877 130.519 188.965 130.52C188.965 130.52 189.04 130.475 189.075 130.45L189.185 130.34C189.246 130.256 189.288 130.16 189.311 130.058C189.333 129.957 189.335 129.852 189.315 129.75C189.22 129.292 189.079 128.845 188.895 128.415C188.238 126.65 187.726 124.834 187.365 122.985C187.187 122.077 187.099 121.155 187.1 120.23C187.06 119.295 187.316 118.372 187.83 117.59C188.115 117.21 188.521 116.939 188.98 116.82C189.429 116.715 189.896 116.715 190.345 116.82C191.204 117.023 192.026 117.361 192.78 117.82C193.521 118.26 194.235 118.742 194.92 119.265L195.92 120.025C196.069 120.146 196.238 120.239 196.42 120.3C196.501 120.324 196.587 120.322 196.666 120.295C196.746 120.268 196.815 120.218 196.865 120.15C196.964 120.001 197.021 119.828 197.03 119.65C197.035 119.451 197.013 119.253 196.965 119.06C196.89 118.655 196.82 118.255 196.745 117.855C196.595 117.055 196.45 116.26 196.305 115.48C196.02 113.91 195.735 112.38 195.46 110.885C195.185 109.39 194.8 107.94 194.885 106.465C194.9 105.734 195.103 105.019 195.475 104.39C195.668 104.086 195.923 103.825 196.224 103.627C196.525 103.429 196.864 103.297 197.22 103.24C197.574 103.211 197.929 103.282 198.245 103.445C198.552 103.594 198.839 103.78 199.1 104C199.595 104.427 200.062 104.885 200.5 105.37C200.713 105.603 200.933 105.828 201.16 106.045C201.363 106.261 201.623 106.415 201.91 106.49C202.051 106.506 202.195 106.491 202.33 106.447C202.465 106.403 202.59 106.331 202.695 106.235C202.914 106.046 203.097 105.819 203.235 105.565C204.036 102.576 204.991 99.6305 206.095 96.74C207.045 94.215 207.865 92.04 208.91 90.47C209.357 89.7687 209.906 89.1383 210.54 88.6C211.006 88.2135 211.556 87.9397 212.145 87.8C212.507 87.7147 212.883 87.7147 213.245 87.8C213.391 87.8175 213.533 87.8598 213.665 87.925Z" fill="#263238"/>
<path d="M211.04 94.725C211.031 94.7821 211.015 94.8377 210.99 94.89L210.82 95.36C210.655 95.785 210.425 96.39 210.135 97.155C209.525 98.73 208.66 100.985 207.59 103.76L199.285 125.58C196.055 134.08 193.095 141.815 190.905 147.375C189.815 150.155 188.905 152.4 188.285 153.95C187.975 154.71 187.73 155.305 187.555 155.725C187.47 155.92 187.41 156.07 187.36 156.19L187.285 156.34C187.294 156.285 187.311 156.231 187.335 156.18C187.375 156.06 187.435 155.905 187.505 155.71C187.67 155.28 187.9 154.68 188.19 153.91C188.8 152.335 189.665 150.085 190.735 147.31L199.04 125.5C202.27 116.975 205.225 109.27 207.42 103.71C208.51 100.93 209.42 98.68 210.04 97.135C210.35 96.375 210.595 95.775 210.77 95.355C210.855 95.165 210.915 95.01 210.965 94.895L211.04 94.725Z" fill="#263238"/>
<path d="M211.31 112C210.915 112.283 210.497 112.532 210.06 112.745L207 114.445C205.8 115.11 204.71 115.705 203.905 116.11C203.482 116.35 203.034 116.545 202.57 116.69C202.968 116.412 203.386 116.163 203.82 115.945L206.87 114.22C208.07 113.555 209.165 112.975 209.975 112.58C210.4 112.345 210.848 112.15 211.31 112Z" fill="#263238"/>
<path d="M202.165 116.37C202.1 116.4 200.91 114.13 199.51 111.3C198.11 108.47 197.01 106.15 197.085 106.115C197.16 106.08 198.34 108.355 199.745 111.185C201.15 114.015 202.23 116.335 202.165 116.37Z" fill="#263238"/>
<path d="M197.795 129.685C197.395 129.39 197.027 129.055 196.695 128.685C196.045 128.035 195.195 127.11 194.27 126.04C193.345 124.97 192.595 123.96 192.065 123.21C191.753 122.823 191.484 122.404 191.26 121.96C191.603 122.317 191.921 122.698 192.21 123.1C192.78 123.82 193.565 124.805 194.47 125.87C195.375 126.935 196.215 127.87 196.825 128.555C197.176 128.907 197.501 129.284 197.795 129.685Z" fill="#263238"/>
<path d="M206.94 127.535C206.513 127.706 206.071 127.836 205.62 127.925C204.8 128.13 203.66 128.395 202.4 128.675C201.14 128.955 199.99 129.175 199.16 129.355C198.714 129.467 198.259 129.536 197.8 129.56C198.227 129.391 198.669 129.262 199.12 129.175C199.94 128.97 201.08 128.675 202.345 128.42C203.61 128.165 204.75 127.92 205.58 127.745C206.026 127.633 206.481 127.563 206.94 127.535Z" fill="#263238"/>
<path d="M204.575 139.785C204.02 139.977 203.452 140.129 202.875 140.24C201.815 140.485 200.375 140.81 198.735 141.15C197.095 141.49 195.64 141.79 194.575 141.99C194.005 142.126 193.425 142.218 192.84 142.265C193.395 142.071 193.963 141.919 194.54 141.81C195.595 141.565 197.04 141.24 198.68 140.9C200.32 140.56 201.77 140.26 202.835 140.06C203.407 139.924 203.989 139.832 204.575 139.785Z" fill="#263238"/>
<path d="M193.1 142.125C192.961 142.028 192.835 141.914 192.725 141.785C192.495 141.555 192.175 141.215 191.78 140.785C190.995 139.925 189.94 138.71 188.83 137.325C187.72 135.94 186.765 134.64 186.1 133.685C185.765 133.21 185.505 132.82 185.33 132.545C185.226 132.409 185.142 132.26 185.08 132.1C185.205 132.214 185.316 132.344 185.41 132.485L186.25 133.58C186.95 134.505 187.925 135.78 189.035 137.16C190.145 138.54 191.17 139.775 191.92 140.66C192.345 141.122 192.739 141.611 193.1 142.125Z" fill="#263238"/>
<path d="M188.1 175.62C179.42 168.62 178.16 156.655 179.25 146.05C179.435 144.28 179.365 142.395 180.315 140.895C181.265 139.395 183.315 138.47 184.85 139.325C186.125 140.035 186.59 141.61 187.24 142.925C188.11 144.683 189.458 146.159 191.13 147.185C192.22 147.85 193.595 148.305 194.75 147.765C196.34 147.025 196.665 144.925 196.775 143.16L197.39 133.29C197.5 131.52 197.62 129.72 198.285 128.085C198.95 126.45 200.285 124.975 201.98 124.615C203.675 124.255 205.7 125.375 205.935 127.115C205.951 127.85 205.918 128.585 205.835 129.315C205.835 130.05 206.12 130.885 206.8 131.135C207.48 131.385 208.23 130.94 208.8 130.46C210.745 128.805 212.135 126.595 213.45 124.39C214.765 122.185 216.04 119.925 217.83 118.095C219.62 116.265 222.005 114.88 224.545 114.91C227.085 114.94 229.665 116.685 230.135 119.21C230.605 121.735 228.98 124.17 227.26 126.075C224.706 128.907 221.756 131.354 218.5 133.34C217.865 133.627 217.339 134.111 217 134.72C216.535 135.87 217.57 137.115 218.705 137.585C219.99 138.11 221.43 138.085 222.795 138.33C224.16 138.575 225.61 139.295 226.04 140.63C226.64 142.485 225 144.27 223.43 145.41C220.301 147.684 216.805 149.406 213.095 150.5C211.76 150.885 210.365 151.205 209.255 152.045C208.145 152.885 207.405 154.43 207.955 155.715C208.505 157 210.1 157.515 211.455 157.355C212.81 157.195 214.1 156.54 215.43 156.14C217.93 155.39 221.04 155.775 222.43 157.975C223.355 159.425 223.315 161.35 222.685 162.975C221.982 164.553 220.971 165.974 219.71 167.155C215.55 171.51 210.308 174.681 204.52 176.345C198.76 177.91 193.52 178.08 188.06 175.65" fill="#447CCF"/>
<g opacity="0.1">
<path d="M188.1 175.62C179.42 168.62 178.16 156.655 179.25 146.05C179.435 144.28 179.365 142.395 180.315 140.895C181.265 139.395 183.315 138.47 184.85 139.325C186.125 140.035 186.59 141.61 187.24 142.925C188.11 144.683 189.458 146.159 191.13 147.185C192.22 147.85 193.595 148.305 194.75 147.765C196.34 147.025 196.665 144.925 196.775 143.16L197.39 133.29C197.5 131.52 197.62 129.72 198.285 128.085C198.95 126.45 200.285 124.975 201.98 124.615C203.675 124.255 205.7 125.375 205.935 127.115C205.951 127.85 205.918 128.585 205.835 129.315C205.835 130.05 206.12 130.885 206.8 131.135C207.48 131.385 208.23 130.94 208.8 130.46C210.745 128.805 212.135 126.595 213.45 124.39C214.765 122.185 216.04 119.925 217.83 118.095C219.62 116.265 222.005 114.88 224.545 114.91C227.085 114.94 229.665 116.685 230.135 119.21C230.605 121.735 228.98 124.17 227.26 126.075C224.706 128.907 221.756 131.354 218.5 133.34C217.865 133.627 217.339 134.111 217 134.72C216.535 135.87 217.57 137.115 218.705 137.585C219.99 138.11 221.43 138.085 222.795 138.33C224.16 138.575 225.61 139.295 226.04 140.63C226.64 142.485 225 144.27 223.43 145.41C220.301 147.684 216.805 149.406 213.095 150.5C211.76 150.885 210.365 151.205 209.255 152.045C208.145 152.885 207.405 154.43 207.955 155.715C208.505 157 210.1 157.515 211.455 157.355C212.81 157.195 214.1 156.54 215.43 156.14C217.93 155.39 221.04 155.775 222.43 157.975C223.355 159.425 223.315 161.35 222.685 162.975C221.982 164.553 220.971 165.974 219.71 167.155C215.55 171.51 210.308 174.681 204.52 176.345C198.76 177.91 193.52 178.08 188.06 175.65" fill="black"/>
</g>
<path d="M187.42 183.5C188.253 178.606 189.552 173.802 191.3 169.155C193.463 163.486 195.949 157.945 198.745 152.56L200.92 148.31C201.64 146.915 202.35 145.535 203.13 144.225C204.631 141.717 206.269 139.294 208.035 136.965C209.71 134.73 211.375 132.67 212.95 130.755C214.525 128.84 216.035 127.09 217.475 125.55C219.737 123.109 222.188 120.85 224.805 118.795C225.73 118.07 226.465 117.53 226.97 117.17L227.545 116.765C227.608 116.717 227.675 116.673 227.745 116.635C227.692 116.695 227.632 116.747 227.565 116.79L227.01 117.225C226.51 117.6 225.795 118.155 224.885 118.9C222.304 120.985 219.884 123.262 217.645 125.71C216.22 127.255 214.725 129.015 213.145 130.93C211.565 132.845 209.92 134.93 208.26 137.15C206.503 139.471 204.878 141.888 203.39 144.39C202.615 145.695 201.89 147.065 201.195 148.46L199.02 152.71C196.231 158.085 193.742 163.61 191.565 169.26C189.812 173.887 188.494 178.668 187.63 183.54" fill="#263238"/>
<path d="M203.225 144.21C203.155 143.961 203.113 143.704 203.1 143.445C203.045 142.945 202.98 142.235 202.915 141.345C202.79 139.575 202.695 137.115 202.6 134.41C202.505 131.705 202.375 129.25 202.22 127.48C202.145 126.6 202.08 125.885 202.025 125.39C201.98 125.134 201.965 124.874 201.98 124.615C202.061 124.86 202.118 125.113 202.15 125.37C202.24 125.87 202.345 126.575 202.45 127.46C202.665 129.225 202.83 131.68 202.95 134.395C203.07 137.11 203.115 139.485 203.17 141.335C203.205 142.17 203.23 142.87 203.255 143.435C203.27 143.694 203.26 143.953 203.225 144.21Z" fill="#263238"/>
<path d="M226.205 141.525C225.902 141.572 225.596 141.589 225.29 141.575C224.705 141.575 223.86 141.575 222.79 141.645C220.7 141.73 217.79 141.94 214.635 142.32C211.48 142.7 208.6 143.165 206.54 143.565C205.51 143.755 204.68 143.935 204.105 144.065C203.81 144.143 203.509 144.195 203.205 144.22C203.486 144.101 203.777 144.008 204.075 143.94C204.64 143.78 205.465 143.57 206.495 143.345C208.545 142.89 211.41 142.385 214.595 142C217.313 141.668 220.047 141.476 222.785 141.425C223.835 141.425 224.685 141.425 225.285 141.455C225.593 141.451 225.901 141.474 226.205 141.525Z" fill="#263238"/>
<path d="M191.61 168.745C191.551 168.657 191.505 168.561 191.475 168.46L191.14 167.61C190.855 166.875 190.47 165.795 190.015 164.46C189.1 161.785 187.95 158.05 186.735 153.915C185.52 149.78 184.41 146.035 183.55 143.345C183.13 142.035 182.78 140.96 182.525 140.16L182.25 139.295C182.211 139.196 182.186 139.091 182.175 138.985C182.232 139.074 182.277 139.17 182.31 139.27C182.4 139.5 182.51 139.77 182.64 140.12C182.925 140.855 183.31 141.935 183.77 143.27C184.685 145.945 185.835 149.68 187.045 153.82C188.255 157.96 189.375 161.695 190.235 164.385C190.655 165.695 191 166.77 191.235 167.57L191.51 168.435C191.558 168.533 191.591 168.638 191.61 168.745Z" fill="#263238"/>
<path d="M222.43 161.095C222.333 161.147 222.228 161.182 222.12 161.2L221.225 161.435L217.925 162.26C215.135 162.955 211.3 163.96 207.06 165.08C202.82 166.2 198.97 167.17 196.165 167.81C194.765 168.13 193.63 168.38 192.84 168.535L191.93 168.71C191.825 168.736 191.718 168.748 191.61 168.745C191.707 168.699 191.809 168.665 191.915 168.645L192.815 168.41L196.115 167.585C198.9 166.89 202.74 165.88 206.98 164.76C211.22 163.64 215.07 162.67 217.87 162.03C219.27 161.71 220.41 161.465 221.195 161.31L222.105 161.135C222.211 161.109 222.32 161.096 222.43 161.095Z" fill="#263238"/>
<path d="M190.12 37.595H68.865V203.745H190.12V37.595Z" fill="#455A64"/>
<path d="M185.325 193.865H162.87H78.965V44.31H185.325V175.26V193.865Z" fill="#E0E0E0"/>
<path d="M183.645 191.09H161.39H78.24V42.335H183.645V172.585V191.09Z" fill="#EBEBEB"/>
<path d="M172.32 179.515L160.18 189.4H76.275V42.71H182.635V171.15L172.32 179.515Z" fill="#FAFAFA"/>
<path d="M172.32 179.5C172.32 179.5 172.535 179.315 172.97 178.96L174.915 177.37L182.61 171.105V171.135C182.61 150.035 182.57 103.135 182.535 42.695L182.65 42.815H77.215H76.29L76.42 42.685C76.42 97.835 76.42 148.71 76.39 189.375L76.29 189.27L160.195 189.33H160.165L169.285 181.935L171.57 180.09C172.07 179.68 172.335 179.48 172.335 179.48L171.585 180.105L169.3 182L160.21 189.43L76.275 189.5H76.17V189.395C76.17 148.73 76.17 97.855 76.145 42.705V42.575H77.2H182.635H182.755V42.69C182.72 103.15 182.69 150.03 182.68 171.13L174.955 177.365L173 179L172.32 179.5Z" fill="#263238"/>
<path d="M115.105 32.46H144.18C146.056 32.46 147.856 33.2054 149.183 34.5322C150.51 35.859 151.255 37.6586 151.255 39.535V47.38H107.725V39.835C107.726 37.8786 108.504 36.0027 109.888 34.6198C111.272 33.2369 113.149 32.46 115.105 32.46Z" fill="#447CCF"/>
<path d="M118.39 32.46L116.8 24.41H141.865L140.47 32.46H118.39Z" fill="#447CCF"/>
<path d="M105.315 84H87.4V66.08H105.315V84ZM87.9 83.5H104.815V66.58H87.9V83.5Z" fill="#447CCF"/>
<path d="M168.64 70.41C168.64 70.48 156.165 70.54 140.785 70.54C125.405 70.54 112.925 70.48 112.925 70.41C112.925 70.34 125.395 70.28 140.785 70.28C156.175 70.28 168.64 70.335 168.64 70.41Z" fill="#263238"/>
<path d="M168.64 74.13C168.64 74.205 156.165 74.26 140.785 74.26C125.405 74.26 112.925 74.205 112.925 74.13C112.925 74.055 125.395 74 140.785 74C156.175 74 168.64 74.06 168.64 74.13Z" fill="#263238"/>
<path d="M168.64 77.855C168.64 77.925 156.165 77.985 140.785 77.985C125.405 77.985 112.925 77.925 112.925 77.855C112.925 77.785 125.395 77.725 140.785 77.725C156.175 77.725 168.64 77.785 168.64 77.855Z" fill="#263238"/>
<path d="M168.64 81.58C168.64 81.65 156.165 81.71 140.785 81.71C125.405 81.71 112.925 81.65 112.925 81.58C112.925 81.51 125.395 81.45 140.785 81.45C156.175 81.45 168.64 81.5 168.64 81.58Z" fill="#263238"/>
<path d="M105.315 111.615H87.4V93.695H105.315V111.615ZM87.9 111.115H104.815V94.195H87.9V111.115Z" fill="#447CCF"/>
<path d="M90.96 103.025L93.34 100.47L97.305 103.64L106.38 94.83L108.555 97.395L97.13 108.665L90.96 103.025Z" fill="#447CCF"/>
<path d="M168.64 98.025C168.64 98.095 156.165 98.155 140.785 98.155C125.405 98.155 112.925 98.095 112.925 98.025C112.925 97.955 125.395 97.895 140.785 97.895C156.175 97.895 168.64 97.955 168.64 98.025Z" fill="#263238"/>
<path d="M168.64 101.75C168.64 101.82 156.165 101.88 140.785 101.88C125.405 101.88 112.925 101.82 112.925 101.75C112.925 101.68 125.395 101.62 140.785 101.62C156.175 101.62 168.64 101.675 168.64 101.75Z" fill="#263238"/>
<path d="M168.64 105.47C168.64 105.545 156.165 105.6 140.785 105.6C125.405 105.6 112.925 105.545 112.925 105.47C112.925 105.395 125.395 105.34 140.785 105.34C156.175 105.34 168.64 105.4 168.64 105.47Z" fill="#263238"/>
<path d="M168.64 109.195C168.64 109.265 156.165 109.325 140.785 109.325C125.405 109.325 112.925 109.265 112.925 109.195C112.925 109.125 125.395 109.065 140.785 109.065C156.175 109.065 168.64 109.125 168.64 109.195Z" fill="#263238"/>
<path d="M105.315 138.34H87.4V120.42H105.315V138.34ZM87.9 137.84H104.815V120.92H87.9V137.84Z" fill="#447CCF"/>
<path d="M90.96 129.75L93.34 127.195L97.305 130.365L106.38 121.555L108.555 124.12L97.13 135.39L90.96 129.75Z" fill="#447CCF"/>
<path d="M168.64 124.75C168.64 124.82 156.165 124.88 140.785 124.88C125.405 124.88 112.925 124.82 112.925 124.75C112.925 124.68 125.395 124.62 140.785 124.62C156.175 124.62 168.64 124.675 168.64 124.75Z" fill="#263238"/>
<path d="M168.64 128.47C168.64 128.545 156.165 128.6 140.785 128.6C125.405 128.6 112.925 128.545 112.925 128.47C112.925 128.395 125.395 128.34 140.785 128.34C156.175 128.34 168.64 128.4 168.64 128.47Z" fill="#263238"/>
<path d="M168.64 132.195C168.64 132.27 156.165 132.325 140.785 132.325C125.405 132.325 112.925 132.27 112.925 132.195C112.925 132.12 125.395 132.065 140.785 132.065C156.175 132.065 168.64 132.125 168.64 132.195Z" fill="#263238"/>
<path d="M168.64 135.92C168.64 135.99 156.165 136.05 140.785 136.05C125.405 136.05 112.925 135.99 112.925 135.92C112.925 135.85 125.395 135.79 140.785 135.79C156.175 135.79 168.64 135.85 168.64 135.92Z" fill="#263238"/>
<path d="M105.315 164.145H87.4V146.225H105.315V164.145ZM87.9 163.645H104.815V146.725H87.9V163.645Z" fill="#447CCF"/>
<path d="M90.96 155.555L93.34 153L97.305 156.17L106.38 147.36L108.555 149.92L97.13 161.19L90.96 155.555Z" fill="#447CCF"/>
<path d="M168.64 150.55C168.64 150.625 156.165 150.68 140.785 150.68C125.405 150.68 112.925 150.625 112.925 150.55C112.925 150.475 125.395 150.42 140.785 150.42C156.175 150.42 168.64 150.5 168.64 150.55Z" fill="#263238"/>
<path d="M168.64 154.275C168.64 154.345 156.165 154.405 140.785 154.405C125.405 154.405 112.925 154.345 112.925 154.275C112.925 154.205 125.395 154.145 140.785 154.145C156.175 154.145 168.64 154.205 168.64 154.275Z" fill="#263238"/>
<path d="M168.64 158C168.64 158.07 156.165 158.13 140.785 158.13C125.405 158.13 112.925 158.07 112.925 158C112.925 157.93 125.395 157.87 140.785 157.87C156.175 157.87 168.64 157.925 168.64 158Z" fill="#263238"/>
<path d="M168.64 161.72C168.64 161.795 156.165 161.85 140.785 161.85C125.405 161.85 112.925 161.795 112.925 161.72C112.925 161.645 125.395 161.59 140.785 161.59C156.175 161.59 168.64 161.65 168.64 161.72Z" fill="#263238"/>
<path d="M163.515 165.115L151.855 189.265H160.18L163.515 165.115Z" fill="#E0E0E0"/>
<path d="M160.18 189.4L163.515 165.25L182.635 171.15L160.18 189.4Z" fill="#FAFAFA"/>
<path d="M160.18 189.4L166.61 184.105L182.555 171.05L182.6 171.27L175.215 169L163.5 165.365L163.655 165.265C162.655 172.265 161.8 178.29 161.195 182.56C160.59 186.715 160.28 188.86 160.195 189.4C160.193 189.363 160.193 189.327 160.195 189.29L160.24 188.96C160.28 188.645 160.335 188.205 160.41 187.645C160.565 186.47 160.785 184.785 161.065 182.645C161.645 178.34 162.455 172.285 163.4 165.21V165.07L163.535 165.11L175.28 168.73L182.66 171.01L182.89 171.08L182.705 171.23C176.25 176.435 170.605 180.985 166.565 184.23L161.85 188.015L160.59 189.015L160.27 189.27L160.18 189.4Z" fill="#263238"/>
<g opacity="0.3">
<path d="M140.13 24.41L138.75 32.46H140.47L141.865 24.41H139.67" fill="black"/>
</g>
<path d="M66.715 109.31C67.3178 109.355 67.9236 109.279 68.4963 109.085C69.0689 108.891 69.5966 108.584 70.0479 108.182C70.4991 107.78 70.8647 107.291 71.1228 106.744C71.3809 106.197 71.5262 105.604 71.55 105C71.645 102.55 71.73 100.075 71.73 100.075C71.73 100.075 75.44 99.73 75.73 96.075C76.02 92.42 75.875 83.93 75.875 83.93C73.8413 82.9039 71.5703 82.4398 69.2971 82.5858C67.0238 82.7317 64.8309 83.4823 62.945 84.76L63.17 97.68V104.635C63.175 106.945 64.39 109.135 66.715 109.31Z" fill="#FFBE9D"/>
<path d="M72.05 91.575C71.779 91.1855 71.3711 90.9125 70.9077 90.8106C70.4443 90.7086 69.9594 90.7852 69.55 91.025C69.1344 91.3137 68.8349 91.7407 68.7049 92.2297C68.5749 92.7187 68.6227 93.238 68.84 93.695C69.0293 94.0341 69.2871 94.3302 69.597 94.5643C69.9068 94.7985 70.262 94.9656 70.64 95.055C70.9751 95.1279 71.2721 95.3204 71.4755 95.5965C71.6789 95.8726 71.7747 96.2134 71.745 96.555C71.5911 97.5201 71.1402 98.4132 70.455 99.11C69.3224 100.263 67.8149 100.972 66.205 101.11C64.64 101.295 62.85 100.97 61.94 99.685C61.275 98.75 61.23 97.525 61.205 96.38C61.1483 93.6733 61.0917 90.9667 61.035 88.26C60.9761 87.2844 61.0383 86.3053 61.22 85.345C61.4115 84.3764 61.9615 83.5157 62.76 82.935C63.655 82.345 64.785 82.295 65.8 81.97C67.075 81.555 68.155 80.715 69.345 80.105C70.535 79.495 71.99 79.13 73.185 79.73C74.045 80.16 74.62 81.015 75.45 81.49C76.64 82.165 78.255 81.99 78.83 83.76C79.0324 84.3652 79.0324 85.0198 78.83 85.625C78.025 88 75.085 88.96 72.965 87.935C72.925 88.335 73.32 89.23 72.895 90.5C72.76 90.91 72.715 91.525 72.08 91.54" fill="#263238"/>
<path d="M61.915 84C62.4977 82.8388 62.8959 81.5938 63.095 80.31C63.1893 79.667 63.1342 79.0109 62.9339 78.3926C62.7335 77.7744 62.3935 77.2106 61.94 76.745C61.2707 76.1638 60.4059 75.8583 59.52 75.89C58.6785 75.9379 57.8724 76.2447 57.2119 76.7682C56.5514 77.2918 56.0687 78.0067 55.83 78.815C55.6241 79.63 55.6559 80.487 55.9217 81.2844C56.1875 82.0819 56.6763 82.7866 57.33 83.315C57.9985 83.8284 58.7908 84.1562 59.6267 84.2651C60.4625 84.3739 61.3123 84.2601 62.09 83.935" fill="#263238"/>
<path d="M62.635 82.675C62.608 83.1239 62.4148 83.5466 62.0932 83.8609C61.7715 84.1752 61.3444 84.3584 60.895 84.375C60.895 84.3 61.435 84.155 61.895 83.675C62.355 83.195 62.565 82.655 62.635 82.675Z" fill="#447CCF"/>
<path d="M61.43 83.575C61.1434 83.8754 60.8046 84.121 60.43 84.3C60.0297 84.5282 59.5804 84.6568 59.12 84.675C58.8277 84.6908 58.5358 84.6364 58.2687 84.5164C58.0017 84.3963 57.7673 84.2141 57.585 83.985C57.4237 83.7438 57.3161 83.4708 57.2695 83.1844C57.2229 82.898 57.2384 82.6049 57.315 82.325C57.431 81.8808 57.6407 81.4665 57.93 81.11C58.1694 80.7721 58.4634 80.4764 58.8 80.235C58.5775 80.5806 58.3372 80.9144 58.08 81.235C57.829 81.5832 57.6489 81.9774 57.55 82.395C57.4876 82.6413 57.4772 82.8978 57.5194 83.1483C57.5615 83.3988 57.6554 83.6378 57.795 83.85C57.9548 84.0452 58.1575 84.2009 58.3873 84.3049C58.6172 84.409 58.8679 84.4586 59.12 84.45C59.5473 84.4432 59.9676 84.3406 60.35 84.15C61 83.815 61.405 83.535 61.43 83.575Z" fill="#263238"/>
<path d="M55.19 87.72C55.2654 87.847 55.3242 87.9831 55.365 88.125C55.4946 88.4997 55.6782 88.8534 55.91 89.175C56.0641 89.4076 56.2801 89.5926 56.5336 89.7092C56.7871 89.8258 57.0681 89.8694 57.345 89.835C57.6764 89.7414 57.9781 89.5638 58.2207 89.3194C58.4634 89.075 58.6388 88.7721 58.73 88.44C58.9096 87.7407 59.035 87.0286 59.105 86.31C59.1756 85.6938 59.4182 85.1099 59.805 84.625C60.082 84.3061 60.4594 84.0909 60.875 84.015C61.0253 83.9782 61.1835 83.9923 61.325 84.055C61.325 84.055 61.16 84.055 60.895 84.115C60.5195 84.2188 60.1868 84.4395 59.945 84.745C59.6043 85.2149 59.3954 85.7673 59.34 86.345C59.2823 87.081 59.1602 87.8104 58.975 88.525C58.8718 88.9001 58.6706 89.241 58.3921 89.5125C58.1135 89.784 57.7676 89.9765 57.39 90.07C57.0447 90.1252 56.691 90.058 56.39 89.88C56.1403 89.7285 55.9256 89.5257 55.76 89.285C55.5308 88.9411 55.3617 88.5607 55.26 88.16C55.2087 88.0192 55.1849 87.8698 55.19 87.72Z" fill="#263238"/>
<path d="M53.385 118.565C53.385 118.565 51.51 132.275 53.385 134.015C55.26 135.755 57.055 135.175 57.055 135.175L60.62 132.175L61.32 118.545L53.385 118.565Z" fill="#FFBE9D"/>
<path d="M92.11 80.08L94.49 77.525L98.455 80.695L107.53 71.885L109.705 74.45L98.28 85.72L92.11 80.08Z" fill="#447CCF"/>
<path d="M103.29 80.775L99.84 82.99C99.685 81.625 98.645 80.275 98.695 80.96C98.745 81.645 98.695 85.2 98.695 85.2L92.55 98.145C91.715 100.195 90.02 101.485 88.755 101.79L83 103.5L85.245 111.095L93.245 108.445C94.2661 108.107 95.1937 107.534 95.9535 106.772C96.7132 106.011 97.284 105.082 97.62 104.06L103.12 87.3C103.485 86.2204 103.779 85.1181 104 84C104.24 82.595 103.29 80.775 103.29 80.775Z" fill="#FFBE9D"/>
<path d="M75.025 222.36L74.935 218.525L67.745 218.64L67.81 224.255L68.26 224.28C70.26 224.355 78.365 224.535 79.685 224.115C81.155 223.64 75.025 222.36 75.025 222.36Z" fill="#447CCF"/>
<g opacity="0.5">
<path d="M70.42 224.16C70.2988 223.561 69.9627 223.028 69.475 222.66C68.9948 222.286 68.3912 222.108 67.785 222.16L67.815 224.16H70.42Z" fill="white"/>
</g>
<g opacity="0.4">
<path d="M78 223.095C78 223.095 80.15 223.675 79.89 224.035C79.63 224.395 71.42 224.535 67.79 224.255V224.095L77.37 224.03C77.37 224.03 77.605 223.12 78 223.095Z" fill="white"/>
</g>
<path d="M67.705 224.09H67.83H68.185L69.495 224.125C70.6 224.15 72.125 224.16 73.81 224.125C75.495 224.09 77.025 224.045 78.125 223.99L79.435 223.915L79.79 223.89H79.91H79.785H79.43L78.125 223.94C77.02 223.975 75.495 224.025 73.81 224.05C72.125 224.075 70.6 224.05 69.495 224.05H68.19H67.69L67.705 224.09Z" fill="#263238"/>
<path d="M77.4 224.14C77.452 223.923 77.531 223.713 77.635 223.515C77.7609 223.333 77.9068 223.165 78.07 223.015C77.8572 223.115 77.6795 223.277 77.56 223.479C77.4405 223.682 77.3847 223.915 77.4 224.15V224.14Z" fill="#263238"/>
<path d="M75.26 223.095C75.26 223.095 75.38 222.985 75.485 222.82C75.59 222.655 75.65 222.505 75.63 222.495C75.61 222.485 75.51 222.605 75.41 222.77C75.31 222.935 75.24 223.085 75.26 223.095Z" fill="#263238"/>
<path d="M74.675 222.8C74.675 222.8 74.8 222.74 74.925 222.625C75.05 222.51 75.13 222.405 75.115 222.39C75.1 222.375 74.985 222.45 74.865 222.56C74.745 222.67 74.655 222.78 74.675 222.8Z" fill="#263238"/>
<path d="M74.295 222.125C74.4149 222.169 74.5436 222.182 74.67 222.165C74.7968 222.18 74.9253 222.164 75.045 222.12C74.924 222.082 74.7964 222.068 74.67 222.08C74.5432 222.066 74.4149 222.081 74.295 222.125Z" fill="#263238"/>
<path d="M74.16 221.65C74.2862 221.727 74.4319 221.767 74.58 221.765C74.7282 221.786 74.8795 221.764 75.015 221.7C74.872 221.686 74.728 221.686 74.585 221.7C74.4452 221.67 74.3029 221.654 74.16 221.65Z" fill="#263238"/>
<path d="M75.5 222.465C75.6521 222.493 75.8079 222.493 75.96 222.465C76.1299 222.442 76.2973 222.404 76.46 222.35C76.5572 222.32 76.651 222.279 76.74 222.23C76.7682 222.215 76.7929 222.195 76.8127 222.17C76.8325 222.145 76.8469 222.116 76.855 222.085C76.8609 222.05 76.857 222.015 76.8438 221.982C76.8305 221.949 76.8084 221.921 76.78 221.9C76.6019 221.818 76.4008 221.799 76.2105 221.847C76.0202 221.895 75.8523 222.008 75.735 222.165C75.6677 222.258 75.6185 222.364 75.59 222.475C75.5812 222.516 75.5812 222.559 75.59 222.6C75.6378 222.459 75.7069 222.325 75.795 222.205C75.8981 222.082 76.0331 221.991 76.185 221.94C76.3668 221.877 76.5661 221.888 76.74 221.97C76.81 222.025 76.785 222.11 76.705 222.16C76.6222 222.207 76.5351 222.245 76.445 222.275C76.282 222.331 76.1148 222.375 75.945 222.405C75.67 222.45 75.5 222.45 75.5 222.465Z" fill="#263238"/>
<path d="M75.615 222.5C75.6713 222.403 75.6891 222.289 75.665 222.18C75.6461 222.06 75.6 221.945 75.53 221.845C75.4904 221.777 75.4344 221.721 75.3671 221.681C75.2998 221.64 75.2234 221.618 75.145 221.615C75.1216 221.62 75.0994 221.629 75.0796 221.643C75.0599 221.656 75.043 221.673 75.03 221.693C75.017 221.713 75.008 221.736 75.0038 221.759C74.9995 221.783 74.9999 221.807 75.005 221.83C75.0161 221.903 75.0435 221.973 75.085 222.035C75.1458 222.137 75.2216 222.23 75.31 222.31C75.3814 222.393 75.4725 222.457 75.575 222.495C75.575 222.495 75.485 222.415 75.355 222.27C75.2801 222.185 75.2132 222.093 75.155 221.995C75.09 221.9 75.045 221.725 75.155 221.7C75.265 221.675 75.39 221.8 75.46 221.89C75.527 221.979 75.5746 222.081 75.6 222.19C75.6138 222.293 75.6188 222.396 75.615 222.5Z" fill="#263238"/>
<path d="M67.825 222.12C67.825 222.12 68.03 222.12 68.355 222.12C68.7789 222.16 69.1828 222.32 69.52 222.58C69.8571 222.84 70.1137 223.19 70.26 223.59C70.375 223.895 70.39 224.09 70.405 224.09C70.4148 224.042 70.4148 223.993 70.405 223.945C70.3887 223.814 70.3602 223.685 70.32 223.56C70.1814 223.142 69.9203 222.776 69.5708 222.508C69.2213 222.241 68.7994 222.085 68.36 222.06C68.2288 222.045 68.0963 222.045 67.965 222.06C67.9148 222.07 67.8672 222.091 67.825 222.12Z" fill="#263238"/>
<path d="M68.525 219.12C68.4803 219.61 68.4669 220.103 68.485 220.595C68.469 221.095 68.4841 221.596 68.53 222.095C68.5755 221.596 68.5888 221.095 68.57 220.595C68.582 220.103 68.567 219.61 68.525 219.12Z" fill="#263238"/>
<path d="M71.31 223.445C71.6569 223.516 72.0112 223.545 72.365 223.53C72.7179 223.545 73.0712 223.511 73.415 223.43C73.415 223.405 72.915 223.43 72.365 223.43C71.815 223.43 71.315 223.42 71.31 223.445Z" fill="#263238"/>
<path d="M69.905 223.46C69.905 223.46 69.945 223.56 69.99 223.67C70.035 223.78 70.07 223.87 70.095 223.87C70.12 223.87 70.13 223.755 70.07 223.63C70.01 223.505 69.92 223.445 69.905 223.46Z" fill="#263238"/>
<path d="M69.36 222.81C69.36 222.81 69.39 222.9 69.47 222.975C69.55 223.05 69.62 223.095 69.635 223.08C69.65 223.065 69.605 222.985 69.53 222.915C69.455 222.845 69.38 222.79 69.36 222.81Z" fill="#263238"/>
<path d="M68.595 222.5C68.595 222.5 68.7 222.5 68.805 222.555C68.91 222.61 68.985 222.645 69.005 222.63C69.025 222.615 68.965 222.515 68.83 222.475C68.695 222.435 68.59 222.5 68.595 222.5Z" fill="#263238"/>
<path d="M68.055 222.385C68.055 222.385 68.085 222.445 68.145 222.465C68.205 222.485 68.26 222.49 68.27 222.465C68.28 222.44 68.235 222.405 68.175 222.385C68.115 222.365 68.06 222.36 68.055 222.385Z" fill="#263238"/>
<path d="M49.645 221.135L52.085 218.17L46.555 213.565L42.945 217.865L43.265 218.175C44.72 219.53 50.765 224.96 52.035 225.5C53.46 226.105 49.645 221.135 49.645 221.135Z" fill="#447CCF"/>
<g opacity="0.5">
<path d="M45 219.5C45.3059 218.966 45.4038 218.337 45.275 217.735C45.1524 217.14 44.8095 216.613 44.315 216.26L43 217.795L45 219.5Z" fill="white"/>
</g>
<g opacity="0.4">
<path d="M51.44 223.645C51.44 223.645 52.69 225.49 52.26 225.59C51.83 225.69 45.5 220.43 42.945 217.865L43.055 217.75L50.36 223.95C50.36 223.95 51.105 223.39 51.44 223.645Z" fill="white"/>
</g>
<path d="M42.97 217.675L43.055 217.765L43.315 218.01L44.285 218.89C45.105 219.625 46.255 220.63 47.55 221.71C48.845 222.79 50.05 223.745 50.91 224.425L51.95 225.22L52.235 225.43L52.34 225.5L52.245 225.415L51.97 225.19L50.97 224.375C50.105 223.685 48.92 222.725 47.625 221.645C46.33 220.565 45.175 219.57 44.345 218.845L43.345 217.985L43.075 217.75L42.97 217.675Z" fill="#263238"/>
<path d="M50.285 224.035C50.4672 223.902 50.6655 223.793 50.875 223.71C51.0912 223.655 51.3123 223.622 51.535 223.61C51.3123 223.528 51.0678 223.528 50.845 223.61C50.6131 223.679 50.4141 223.83 50.285 224.035Z" fill="#263238"/>
<path d="M49.345 221.845C49.345 221.87 49.51 221.845 49.695 221.78C49.88 221.715 50.03 221.655 50.02 221.63C50.01 221.605 49.855 221.63 49.67 221.695C49.5522 221.721 49.4413 221.772 49.345 221.845Z" fill="#263238"/>
<path d="M49.095 221.235C49.095 221.235 49.23 221.275 49.4 221.27C49.57 221.265 49.7 221.24 49.7 221.215C49.7 221.19 49.56 221.175 49.395 221.18C49.2921 221.175 49.1895 221.194 49.095 221.235Z" fill="#263238"/>
<path d="M49.245 220.5C49.245 220.5 49.345 220.64 49.505 220.775C49.5952 220.866 49.7022 220.939 49.82 220.99C49.82 220.99 49.72 220.845 49.56 220.71C49.4 220.575 49.265 220.46 49.245 220.5Z" fill="#263238"/>
<path d="M49.455 220.03C49.5095 220.167 49.5924 220.291 49.6985 220.394C49.8045 220.496 49.9312 220.575 50.07 220.625C49.9732 220.52 49.8696 220.422 49.76 220.33C49.595 220.17 49.5 220 49.455 220.03Z" fill="#263238"/>
<path d="M49.935 221.5C50.0342 221.619 50.1545 221.719 50.29 221.795C50.4319 221.887 50.5826 221.964 50.74 222.025C50.833 222.067 50.9302 222.099 51.03 222.12C51.0929 222.131 51.1575 222.116 51.21 222.08C51.2376 222.059 51.2584 222.03 51.2699 221.997C51.2815 221.964 51.2832 221.929 51.275 221.895C51.1979 221.712 51.0591 221.562 50.8829 221.471C50.7066 221.379 50.504 221.353 50.31 221.395C50.1959 221.417 50.0882 221.465 49.995 221.535C49.96 221.558 49.9295 221.586 49.905 221.62C50.0331 221.542 50.1734 221.486 50.32 221.455C50.4787 221.428 50.6419 221.447 50.79 221.51C50.9682 221.579 51.112 221.716 51.19 221.89C51.19 221.98 51.135 222.03 51.04 222.015C50.9478 221.994 50.8575 221.966 50.77 221.93C50.616 221.873 50.4671 221.803 50.325 221.72C50.08 221.625 49.945 221.5 49.935 221.5Z" fill="#263238"/>
<path d="M50 221.615C50 221.615 50.13 221.575 50.25 221.405C50.3144 221.302 50.3554 221.186 50.37 221.065C50.3814 220.987 50.3743 220.907 50.3491 220.833C50.3239 220.758 50.2814 220.69 50.225 220.635C50.1819 220.612 50.1314 220.607 50.0845 220.621C50.0377 220.635 49.9983 220.667 49.975 220.71C49.937 220.772 49.9131 220.842 49.905 220.915C49.8904 221.033 49.8904 221.152 49.905 221.27C49.905 221.38 49.9325 221.488 49.985 221.585C49.985 221.585 49.985 221.46 49.985 221.27C49.9836 221.156 49.9937 221.042 50.015 220.93C50.015 220.815 50.105 220.655 50.21 220.71C50.315 220.765 50.32 220.94 50.32 221.055C50.3111 221.166 50.2787 221.273 50.225 221.37C50.1593 221.46 50.0838 221.542 50 221.615Z" fill="#263238"/>
<path d="M44.345 216.26C44.345 216.26 44.515 216.375 44.74 216.61C45.0329 216.92 45.2352 217.303 45.325 217.72C45.4079 218.138 45.3732 218.571 45.225 218.97C45.11 219.28 44.985 219.445 45 219.47C45.0376 219.437 45.0697 219.398 45.095 219.355C45.1696 219.247 45.2316 219.132 45.28 219.01C45.4529 218.603 45.4982 218.153 45.41 217.72C45.3198 217.288 45.1021 216.892 44.785 216.585C44.6905 216.493 44.5866 216.411 44.475 216.34C44.4372 216.305 44.3931 216.278 44.345 216.26Z" fill="#263238"/>
<path d="M46.835 214.435C46.4799 214.779 46.1459 215.145 45.835 215.53C45.505 215.897 45.1946 216.281 44.905 216.68C45.2624 216.34 45.5965 215.975 45.905 215.59C46.2345 215.221 46.5449 214.836 46.835 214.435Z" fill="#263238"/>
<path d="M46.125 219.535C46.3387 219.816 46.5874 220.068 46.865 220.285C47.1246 220.526 47.4155 220.732 47.73 220.895C47.73 220.895 47.365 220.595 46.925 220.22C46.485 219.845 46.145 219.5 46.125 219.535Z" fill="#263238"/>
<path d="M45.045 218.63C45.045 218.63 45.01 218.73 44.98 218.845C44.95 218.96 44.905 219.045 44.925 219.06C44.945 219.075 45.025 219 45.065 218.865C45.105 218.73 45.07 218.625 45.045 218.63Z" fill="#263238"/>
<path d="M45.06 217.78C45.035 217.78 45.025 217.87 45.035 217.975C45.045 218.08 45.07 218.165 45.095 218.165C45.12 218.165 45.13 218.075 45.095 217.97C45.06 217.865 45.085 217.78 45.06 217.78Z" fill="#263238"/>
<path d="M44.67 217.06C44.67 217.085 44.735 217.145 44.79 217.24C44.845 217.335 44.87 217.43 44.895 217.43C44.92 217.43 44.935 217.315 44.865 217.195C44.795 217.075 44.68 217.04 44.67 217.06Z" fill="#263238"/>
<path d="M44.345 216.605C44.345 216.605 44.345 216.675 44.345 216.73C44.345 216.785 44.42 216.82 44.44 216.81C44.46 216.8 44.44 216.74 44.44 216.685C44.44 216.63 44.365 216.595 44.345 216.605Z" fill="#263238"/>
<path d="M64.61 140.795C64.61 140.795 62.215 150.925 62.895 152.93C63.575 154.935 67.96 156.09 67.96 156.09L67.81 183.835L43.55 213.835L52.5 221.155C52.5 221.155 78.77 191.11 81.085 185.655C83.4 180.2 79.585 140.33 79.585 140.33L64.61 140.795Z" fill="#263238"/>
<path d="M77 136.665L78.185 220.925L65.85 221L59.655 152.36C58.345 151.11 56.5 148.97 56.755 144.195L57.055 138.65L77 136.665Z" fill="#263238"/>
<path d="M64 188.525C64.018 188.481 64.0415 188.439 64.07 188.4C64.135 188.31 64.21 188.195 64.305 188.055L65.22 186.76L68.57 182.12V182.185C68.3 179.26 67.975 175.715 67.625 171.89C67.175 166.89 66.815 162.34 66.6 159.045C66.49 157.4 66.42 156.07 66.38 155.15C66.38 154.71 66.35 154.355 66.345 154.085C66.3297 153.962 66.3297 153.838 66.345 153.715C66.3692 153.837 66.3842 153.961 66.39 154.085C66.39 154.35 66.44 154.705 66.475 155.145C66.55 156.09 66.65 157.41 66.78 159.035C67.04 162.32 67.43 166.855 67.88 171.865C68.215 175.705 68.555 179.245 68.78 182.185V182.22V182.25L65.355 186.83L64.39 188.095L64.13 188.42C64.025 188.5 64 188.53 64 188.525Z" fill="#455A64"/>
<path d="M67.78 153.715C66.6762 153.656 65.5809 153.489 64.51 153.215C63.4206 153.031 62.3521 152.739 61.32 152.345C62.413 152.485 63.4966 152.69 64.565 152.96C65.6502 153.15 66.7236 153.402 67.78 153.715Z" fill="#455A64"/>
<path d="M76.23 182.5C75.1653 182.058 74.0447 181.766 72.9 181.63C71.7467 181.584 70.5925 181.696 69.47 181.965C69.7632 181.78 70.089 181.653 70.43 181.59C71.2452 181.377 72.0902 181.303 72.93 181.37C73.7645 181.437 74.5821 181.642 75.35 181.975C75.6724 182.096 75.9705 182.274 76.23 182.5Z" fill="#455A64"/>
<path d="M80.585 186.39C80.64 186.435 77.17 191.095 72.83 196.795C68.49 202.495 64.925 207.09 64.87 207.05C64.815 207.01 68.285 202.345 72.625 196.64C76.965 190.935 80.53 186.345 80.585 186.39Z" fill="#455A64"/>
<path d="M78.915 142.92C78.7728 143.285 78.5322 143.603 78.22 143.84C77.8627 144.153 77.4445 144.389 76.9918 144.532C76.5391 144.676 76.0615 144.724 75.5891 144.675C75.1168 144.625 74.6598 144.478 74.2469 144.243C73.8341 144.008 73.4742 143.691 73.19 143.31C72.9254 143.018 72.7516 142.655 72.69 142.265C72.8825 142.585 73.0928 142.894 73.32 143.19C73.8915 143.883 74.7121 144.323 75.6052 144.417C76.4983 144.51 77.3924 144.249 78.095 143.69C78.3816 143.448 78.6553 143.191 78.915 142.92Z" fill="#455A64"/>
<path d="M62.05 99.565C60.0174 97.6338 58.819 94.9855 58.7097 92.1839C58.6004 89.3823 59.589 86.6487 61.465 84.565" fill="#263238"/>
<path d="M55.115 107.425C55.115 107.425 52.435 110.455 51.88 122.04C51.88 122.04 59.515 123.49 59.655 123.075C59.795 122.66 55.115 107.425 55.115 107.425Z" fill="#447CCF"/>
<g opacity="0.3">
<path d="M55.115 107.425C55.115 107.425 52.435 110.455 51.88 122.04C51.88 122.04 59.515 123.49 59.655 123.075C59.795 122.66 55.115 107.425 55.115 107.425Z" fill="black"/>
</g>
<path d="M56.355 141.17H79.8L79.42 137.505C79.42 137.505 76.74 123.575 76.76 123.39L77.18 122.505C77.7278 121.356 78.0208 120.102 78.0389 118.829C78.057 117.556 77.7999 116.294 77.285 115.13L88.785 111.205L85.975 101.735C80.765 102.61 72.89 103.595 72.89 103.595L71.72 103.69C71.72 103.69 63.59 104.115 63.415 104.135C60.015 104.55 56.06 104.81 54.615 108.45C53.84 110.395 54.575 113.315 55.84 116.325L58.84 125.575C60.04 130.66 58.125 130.415 57.07 135.535C56.9 136.305 56.34 140.46 56.355 141.17Z" fill="#447CCF"/>
<g opacity="0.3">
<path d="M56.355 141.17H79.8L79.42 137.505C79.42 137.505 76.74 123.575 76.76 123.39L77.18 122.505C77.7278 121.356 78.0208 120.102 78.0389 118.829C78.057 117.556 77.7999 116.294 77.285 115.13L88.785 111.205L85.975 101.735C80.765 102.61 72.89 103.595 72.89 103.595L71.72 103.69C71.72 103.69 63.59 104.115 63.415 104.135C60.015 104.55 56.06 104.81 54.615 108.45C53.84 110.395 54.575 113.315 55.84 116.325L58.84 125.575C60.04 130.66 58.125 130.415 57.07 135.535C56.9 136.305 56.34 140.46 56.355 141.17Z" fill="black"/>
</g>
<path d="M88.655 111.36C88.4964 111.449 88.3288 111.521 88.155 111.575C87.825 111.695 87.34 111.86 86.74 112.075C85.54 112.48 83.87 113.015 82.03 113.605C80.19 114.195 78.53 114.78 77.38 115.26C76.79 115.5 76.325 115.71 76 115.85C75.8424 115.937 75.6744 116.005 75.5 116.05C75.6452 115.935 75.8029 115.836 75.97 115.755C76.285 115.59 76.74 115.35 77.32 115.09C78.8358 114.429 80.3864 113.852 81.965 113.36C83.81 112.77 85.465 112.26 86.7 111.9C87.305 111.72 87.8 111.58 88.14 111.485C88.3058 111.422 88.4788 111.38 88.655 111.36Z" fill="#263238"/>
<path d="M87.295 106.315C87.295 106.385 80.36 106.445 71.795 106.445C63.23 106.445 56.295 106.385 56.295 106.315C56.295 106.245 63.225 106.185 71.795 106.185C80.365 106.185 87.295 106.245 87.295 106.315Z" fill="#FAFAFA"/>
<path d="M88 110.92C88 110.99 80.285 111.05 70.77 111.05C61.255 111.05 53.545 110.99 53.545 110.92C53.545 110.85 61.255 110.79 70.77 110.79C80.285 110.79 88 110.85 88 110.92Z" fill="#FAFAFA"/>
<path d="M55.5 116.16C55.0313 116.287 54.5439 116.331 54.06 116.29C53.5777 116.331 53.092 116.287 52.625 116.16C53.092 116.033 53.5777 115.989 54.06 116.03C54.5439 115.989 55.0313 116.033 55.5 116.16Z" fill="#FAFAFA"/>
<path d="M78 116.32C78 116.39 72.955 116.45 66.735 116.45C60.515 116.45 55.47 116.39 55.47 116.32C55.47 116.25 60.51 116.19 66.735 116.19C72.96 116.19 78 116.245 78 116.32Z" fill="#FAFAFA"/>
<path d="M77.5 121.715C77.5 121.79 72.97 121.845 67.39 121.845C61.81 121.845 57.275 121.79 57.275 121.715C57.275 121.64 61.8 121.585 67.39 121.585C72.98 121.585 77.5 121.645 77.5 121.715Z" fill="#FAFAFA"/>
<path d="M77.36 126.72C77.36 126.79 73.26 126.85 68.2 126.85C63.14 126.85 59.03 126.79 59.03 126.72C59.03 126.65 63.135 126.59 68.2 126.59C73.265 126.59 77.36 126.645 77.36 126.72Z" fill="#FAFAFA"/>
<path d="M78.165 130.765C78.165 130.84 73.775 130.895 68.36 130.895C62.945 130.895 58.555 130.84 58.555 130.765C58.555 130.69 62.945 130.635 68.36 130.635C73.775 130.635 78.165 130.695 78.165 130.765Z" fill="#FAFAFA"/>
<path d="M79.435 135.925C79.435 136 74.435 136.055 68.28 136.055C62.125 136.055 57.125 136 57.125 135.925C57.125 135.85 62.125 135.795 68.28 135.795C74.435 135.795 79.435 135.855 79.435 135.925Z" fill="#FAFAFA"/>
<path d="M58.685 125.14C58.5906 124.999 58.5197 124.844 58.475 124.68L57.975 123.4C57.56 122.32 56.975 120.83 56.375 119.165C55.775 117.5 55.27 115.98 54.955 114.865C54.8 114.305 54.68 113.865 54.615 113.535C54.5669 113.372 54.5384 113.204 54.53 113.035C54.7614 113.616 54.9617 114.208 55.13 114.81C55.49 115.91 56.015 117.42 56.63 119.08C57.245 120.74 57.785 122.24 58.13 123.34C58.315 123.89 58.455 124.34 58.545 124.65C58.6124 124.807 58.6595 124.971 58.685 125.14Z" fill="#263238"/>
</svg>
