<svg width="250" height="250" viewBox="0 0 250 250" fill="none" xmlns="http://www.w3.org/2000/svg">
<path d="M54.675 184H77.82C78.6024 184 79.3527 183.689 79.906 183.136C80.4592 182.583 80.77 181.832 80.77 181.05V173.93C80.77 173.277 80.6414 172.631 80.3917 172.028C80.1419 171.425 79.7758 170.877 79.3143 170.416C78.8528 169.954 78.3049 169.588 77.7019 169.338C77.0989 169.089 76.4527 168.96 75.8 168.96H54.5L54.675 184Z" fill="#EBEBEB"/>
<path d="M77.435 188.5H31.935C31.6408 188.5 31.3496 188.442 31.0778 188.329C30.806 188.217 30.5591 188.052 30.3511 187.844C30.1431 187.636 29.9781 187.389 29.8655 187.117C29.7529 186.845 29.695 186.554 29.695 186.26C29.6924 185.966 29.7477 185.674 29.8578 185.401C29.968 185.128 30.1308 184.88 30.3369 184.67C30.5431 184.46 30.7885 184.293 31.0593 184.178C31.3301 184.063 31.6208 184.003 31.915 184H77.415C78.0095 184.001 78.5793 184.238 78.9992 184.659C79.4192 185.08 79.655 185.65 79.655 186.245C79.6577 186.838 79.4258 187.408 79.0098 187.83C78.5939 188.253 78.0278 188.493 77.435 188.5Z" fill="#EBEBEB"/>
<path d="M22.64 124.25L47.68 123.805L63.575 183.88L29.675 184.22L16.895 131.555C16.6838 130.685 16.6728 129.779 16.8629 128.905C17.053 128.03 17.4393 127.21 17.9925 126.507C18.5458 125.803 19.2515 125.234 20.0566 124.844C20.8617 124.453 21.745 124.25 22.64 124.25Z" fill="#E0E0E0"/>
<path d="M35.115 188.495L27.62 232.035H29.675L39.525 188.495H35.115Z" fill="#EBEBEB"/>
<path d="M52.775 188.495L44.815 232.035H46.865L57.19 188.495H52.775Z" fill="#E0E0E0"/>
<path d="M72.315 188.495L81.195 232.035H79.14L67.9 188.495H72.315Z" fill="#EBEBEB"/>
<path d="M44.815 123.805L57.205 183.945H66.705L56.775 130.805C56.4097 128.84 55.3685 127.064 53.8316 125.785C52.2947 124.507 50.3591 123.806 48.36 123.805H44.815Z" fill="#EBEBEB"/>
<path d="M83.255 145.675H117.53V144.01H83.255V145.675Z" fill="#EBEBEB"/>
<path d="M122.845 145.675L129.275 121.585H102.51L96.69 145.675H122.845Z" fill="#EBEBEB"/>
<path d="M98.295 143.85H122.2L127.765 122.7H103.735L98.295 143.85Z" fill="#E0E0E0"/>
<path d="M78.2 150.61H76.47V233.25H78.2V150.61Z" fill="#F5F5F5"/>
<path d="M79.93 150.85H78.2V233.25H79.93V150.85Z" fill="#EBEBEB"/>
<path d="M184.835 150.61H183.105V233.25H184.835V150.61Z" fill="#EBEBEB"/>
<path d="M186.565 150.85H184.835V233.25H186.565V150.85Z" fill="#E0E0E0"/>
<path d="M200.47 145.81H68.995V152.59H200.47V145.81Z" fill="#E0E0E0"/>
<path d="M183.97 152.59H126.09V163.81H183.97V152.59Z" fill="#EBEBEB"/>
<path d="M157.61 157.425C157.61 157.68 157.534 157.93 157.393 158.142C157.251 158.354 157.049 158.519 156.814 158.617C156.578 158.714 156.319 158.74 156.068 158.69C155.818 158.64 155.588 158.518 155.408 158.337C155.227 158.157 155.105 157.927 155.055 157.677C155.005 157.426 155.031 157.167 155.128 156.931C155.226 156.696 155.391 156.494 155.603 156.352C155.815 156.211 156.065 156.135 156.32 156.135C156.662 156.135 156.99 156.271 157.232 156.513C157.474 156.755 157.61 157.083 157.61 157.425Z" fill="#E0E0E0"/>
<path d="M90.7 68.355H18.65V71.565H90.7V68.355Z" fill="#E0E0E0"/>
<path d="M33.37 69.9H30.445V80.855H33.37V69.9Z" fill="#E0E0E0"/>
<path d="M77.035 69.9H74.11V80.855H77.035V69.9Z" fill="#E0E0E0"/>
<path d="M63.39 40.685C63.51 40.57 64.31 41.155 65.365 42.355C65.9757 43.0615 66.5339 43.8119 67.035 44.6C68.2696 46.5474 69.1814 48.6816 69.735 50.92C69.9695 51.8315 70.1366 52.759 70.235 53.695C70.38 55.295 70.235 56.285 70.085 56.29C69.71 56.32 69.365 52.45 67.5 48.16C65.635 43.87 63.115 40.945 63.39 40.685Z" fill="#EBEBEB"/>
<path d="M71.32 59.5C71.155 59.5 70.7 57.405 70.28 53.935C69.86 50.465 69.5 45.655 69.365 40.335C69.23 35.015 69.28 30.195 69.365 26.71C69.45 23.225 69.63 21.075 69.805 21.075C69.98 21.075 70.135 23.23 70.255 26.71C70.375 30.19 70.465 34.995 70.605 40.3C70.745 45.605 70.955 50.39 71.15 53.86C71.345 57.33 71.5 59.5 71.32 59.5Z" fill="#EBEBEB"/>
<path d="M79 29.255C79.16 29.345 78.5 30.825 77.635 33.295C76.77 35.765 75.635 39.215 74.59 43.07C73.545 46.925 72.715 50.46 72.22 53.035C71.725 55.61 71.52 57.215 71.335 57.21C71.15 57.205 71.04 55.545 71.335 52.895C71.7515 49.4582 72.4302 46.0583 73.365 42.725C74.2601 39.3858 75.4085 36.1197 76.8 32.955C77.89 30.53 78.845 29.17 79 29.255Z" fill="#EBEBEB"/>
<path d="M61.45 55.08V59.315C61.4393 61.6959 62.3726 63.9841 64.0453 65.6784C65.7181 67.3728 67.9941 68.3352 70.375 68.355C72.7567 68.3365 75.034 67.3747 76.7079 65.6802C78.3817 63.9857 79.3157 61.6968 79.305 59.315V55.08H61.45Z" fill="#E0E0E0"/>
<path d="M79.465 58.66C79.465 58.735 75.43 58.79 70.465 58.79C65.5 58.79 61.465 58.735 61.465 58.66C61.465 58.585 65.5 58.535 70.465 58.535C75.43 58.535 79.465 58.59 79.465 58.66Z" fill="#FAFAFA"/>
<path d="M79.465 59.84C79.465 59.91 75.43 59.965 70.465 59.965C65.5 59.965 61.465 59.91 61.465 59.84C61.465 59.77 65.5 59.71 70.465 59.71C75.43 59.71 79.465 59.765 79.465 59.84Z" fill="#FAFAFA"/>
<path d="M47.4179 57.9512L47.3969 53.9463L27.7272 54.0493L27.7481 58.0542L47.4179 57.9512Z" fill="#E0E0E0"/>
<path d="M49.7852 68.3439L49.7527 62.124L27.833 62.2388L27.8655 68.4587L49.7852 68.3439Z" fill="#F5F5F5"/>
<path d="M45.565 68.3C45.4556 67.2672 45.4188 66.228 45.455 65.19C45.4188 64.1521 45.4556 63.1128 45.565 62.08C45.6681 63.1133 45.7032 64.1522 45.67 65.19C45.7032 66.2279 45.6681 67.2668 45.565 68.3Z" fill="#E0E0E0"/>
<path d="M46.5 68.3C46.3906 67.2672 46.3538 66.228 46.39 65.19C46.3538 64.1521 46.3906 63.1128 46.5 62.08C46.6031 63.1133 46.6382 64.1522 46.605 65.19C46.6382 66.2279 46.6031 67.2668 46.5 68.3Z" fill="#E0E0E0"/>
<path d="M31.16 68.3C31.0569 67.2668 31.0218 66.2279 31.055 65.19C31.0218 64.1522 31.0569 63.1133 31.16 62.08C31.2694 63.1128 31.3062 64.1521 31.27 65.19C31.3062 66.228 31.2694 67.2672 31.16 68.3Z" fill="#E0E0E0"/>
<path d="M32.085 68.3C31.9756 67.2672 31.9388 66.228 31.975 65.19C31.9388 64.1521 31.9756 63.1128 32.085 62.08C32.1881 63.1133 32.2232 64.1522 32.19 65.19C32.2232 66.2279 32.1881 67.2668 32.085 68.3Z" fill="#E0E0E0"/>
<path d="M34.095 65.29C34.095 65.23 36.305 65.185 39.03 65.185C41.755 65.185 43.97 65.23 43.97 65.29C43.97 65.35 41.76 65.4 39.03 65.4C36.3 65.4 34.095 65.35 34.095 65.29Z" fill="#E0E0E0"/>
<path d="M58.014 61.8624L57.9931 57.8574L30.9434 57.9991L30.9644 62.004L58.014 61.8624Z" fill="#EBEBEB"/>
<path d="M54.145 61.365C54.8519 61.365 55.425 60.7852 55.425 60.07C55.425 59.3548 54.8519 58.775 54.145 58.775C53.4381 58.775 52.865 59.3548 52.865 60.07C52.865 60.7852 53.4381 61.365 54.145 61.365Z" fill="#E0E0E0"/>
<path d="M50.63 60.47V59.67H32.52V60.47H50.63Z" fill="#E0E0E0"/>
<path d="M232.955 29.56H197.125V81.495H232.955V29.56Z" fill="#E0E0E0"/>
<path d="M231.16 29.56H195.33V81.495H231.16V29.56Z" fill="#F5F5F5"/>
<path d="M226.71 35.185H199.78V75.87H226.71V35.185Z" fill="white"/>
<path d="M226.71 75.875C226.71 75.875 226.71 75.805 226.71 75.675C226.71 75.545 226.71 75.35 226.71 75.095C226.71 74.595 226.71 73.835 226.71 72.865C226.71 70.915 226.71 68.075 226.685 64.485C226.685 57.31 226.66 47.15 226.64 35.185L226.73 35.275H199.805L199.905 35.175C199.905 50.525 199.905 64.675 199.905 75.865L199.825 75.785L219.425 75.825H224.84H226.265C226.585 75.825 226.765 75.825 226.765 75.825H226.29H224.88H219.485L199.835 75.865H199.76V75.79C199.76 64.6 199.76 50.45 199.76 35.1V35.005H199.86H226.785H226.875V35.09C226.875 47.09 226.84 57.26 226.83 64.45C226.83 68.03 226.83 70.865 226.805 72.81C226.805 73.775 226.805 74.515 226.805 75.02C226.805 75.27 226.805 75.455 226.805 75.59C226.805 75.725 226.71 75.875 226.71 75.875Z" fill="#E0E0E0"/>
<path d="M231.26 29.56C231.079 29.8933 230.867 30.2081 230.625 30.5C230.205 31.055 229.625 31.815 228.94 32.63C228.255 33.445 227.635 34.175 227.17 34.69C226.933 34.9848 226.669 35.2561 226.38 35.5C226.585 35.1842 226.814 34.885 227.065 34.605L228.79 32.5L230.5 30.405C230.731 30.1043 230.985 29.8218 231.26 29.56Z" fill="#E0E0E0"/>
<path d="M226.845 75.74C228.183 77.8707 229.76 79.8418 231.545 81.615Z" fill="white"/>
<path d="M231.545 81.615C231.245 81.3978 230.97 81.1479 230.725 80.87C229.475 79.5998 228.359 78.2041 227.395 76.705C227.178 76.4035 226.994 76.08 226.845 75.74C227.086 76.0191 227.306 76.3148 227.505 76.625C227.9 77.18 228.455 77.94 229.105 78.75C229.755 79.56 230.37 80.25 230.825 80.775C231.085 81.0374 231.325 81.3181 231.545 81.615Z" fill="#E0E0E0"/>
<path d="M195.325 81.455L200 75.665Z" fill="white"/>
<path d="M200 75.665C199.294 76.691 198.535 77.679 197.725 78.625C196.967 79.6091 196.16 80.5537 195.305 81.455C195.265 81.425 196.305 80.1 197.575 78.5C198.331 77.5115 199.141 76.5651 200 75.665Z" fill="#E0E0E0"/>
<path d="M195.33 29.56C196.135 30.4293 196.896 31.3388 197.61 32.285C198.368 33.1948 199.078 34.1445 199.735 35.13C198.923 34.2663 198.162 33.3564 197.455 32.405C196.693 31.4978 195.984 30.5479 195.33 29.56Z" fill="#E0E0E0"/>
<path d="M218.32 43.45H209.305V69.05H218.32V43.45Z" fill="#E0E0E0"/>
<path d="M239.94 232.46C239.94 232.53 190.005 232.59 128.44 232.59C66.875 232.59 16.91 232.53 16.91 232.46C16.91 232.39 66.835 232.33 128.44 232.33C190.045 232.33 239.94 232.385 239.94 232.46Z" fill="#263238"/>
<path d="M203.315 189.17C208.125 190.85 214.395 189.35 218.51 186.345C222.625 183.34 225.585 179.035 228.21 174.67C229.325 172.805 230.42 170.865 230.775 168.72C231.13 166.575 230.605 164.16 228.945 162.76C226.36 160.585 222.4 161.69 219.445 163.36C214.862 166.03 210.996 169.774 208.183 174.271C205.369 178.767 203.692 183.881 203.295 189.17" fill="#447CCF"/>
<path d="M208.5 200.68C211.39 204.49 216.35 206.18 221.13 206.405C225.91 206.63 230.63 205.31 235.085 203.595C236.705 202.975 238.48 202.12 239.035 200.48C239.208 199.844 239.221 199.176 239.074 198.534C238.927 197.892 238.623 197.296 238.19 196.8C237.305 195.822 236.199 195.07 234.965 194.605C230.57 192.735 225.54 192.645 220.915 193.845C216.29 195.045 212.255 197.725 208.5 200.68Z" fill="#447CCF"/>
<path d="M203.245 168.565C207.245 168.645 210.245 165.16 212.04 161.61C214.542 156.645 215.373 151.005 214.41 145.53C214.045 143.495 213.275 141.3 211.455 140.32C209.635 139.34 207.2 139.985 205.65 141.4C204.1 142.815 203.25 144.835 202.65 146.84C200.51 153.755 200.97 161.705 203.265 168.565" fill="#447CCF"/>
<path d="M190.165 190.585C196.955 179.035 198.085 164.9 194.075 152.115C193.425 150.04 192.2 147.67 190.03 147.53C187.63 147.38 186.12 150.06 185.46 152.37C183.13 160.49 183.625 169.11 184.14 177.54C184.46 182.735 186.24 187.175 190.165 190.585Z" fill="#447CCF"/>
<path d="M183.11 195.335C181.845 191.378 179.709 187.754 176.859 184.732C174.009 181.709 170.517 179.364 166.64 177.87C164.835 177.195 162.545 176.805 161.2 178.185C159.855 179.565 160.29 181.8 161.135 183.49C162.5 186.215 164.72 188.41 166.93 190.49C168.93 192.405 171.03 194.325 173.57 195.44C176.11 196.555 180.785 196.83 183.11 195.315" fill="#447CCF"/>
<path d="M225.19 165.66C225.19 165.66 225.155 165.7 225.07 165.765L224.705 166.05L223.285 167.11L222.25 167.875C221.88 168.16 221.495 168.495 221.07 168.84C220.23 169.54 219.235 170.295 218.235 171.245L216.635 172.7C216.08 173.2 215.55 173.785 214.975 174.35C213.805 175.475 212.675 176.785 211.475 178.14C206.302 184.13 202.114 190.904 199.07 198.21C198.405 199.905 197.735 201.505 197.255 203.05C197.005 203.82 196.725 204.55 196.52 205.275L195.935 207.355C195.53 208.675 195.3 209.9 195.045 210.965C194.93 211.5 194.805 211.995 194.715 212.465C194.625 212.935 194.56 213.345 194.495 213.73C194.36 214.47 194.255 215.055 194.18 215.48C194.14 215.66 194.115 215.81 194.09 215.93C194.065 216.05 194.055 216.085 194.045 216.085C194.039 216.032 194.039 215.978 194.045 215.925C194.045 215.805 194.08 215.655 194.105 215.47C194.165 215.04 194.255 214.47 194.36 213.71C194.42 213.325 194.485 212.9 194.555 212.44C194.625 211.98 194.75 211.475 194.86 210.94C195.1 209.87 195.315 208.635 195.705 207.31C195.885 206.64 196.075 205.94 196.275 205.215C196.475 204.49 196.745 203.75 196.99 202.975C197.49 201.42 198.125 199.81 198.79 198.105C201.819 190.756 206.026 183.95 211.245 177.955C212.47 176.605 213.615 175.295 214.795 174.175C215.375 173.605 215.915 173.035 216.475 172.53L218.095 171.085C219.095 170.145 220.095 169.4 220.965 168.71C221.4 168.37 221.79 168.045 222.17 167.765L223.22 167.02L224.68 166.02L225.065 165.765C225.14 165.68 225.185 165.655 225.19 165.66Z" fill="#263238"/>
<path d="M234.18 197.68C234.021 197.669 233.864 197.644 233.71 197.605C233.41 197.55 232.97 197.43 232.39 197.335C226.207 196.105 219.81 196.519 213.838 198.537C207.866 200.556 202.529 204.107 198.36 208.835C197.263 210.07 196.249 211.376 195.325 212.745C194.985 213.245 194.76 213.615 194.585 213.87C194.506 214.007 194.414 214.136 194.31 214.255C194.37 214.108 194.443 213.968 194.53 213.835C194.685 213.57 194.895 213.165 195.22 212.675C196.109 211.269 197.101 209.932 198.19 208.675C201.786 204.498 206.31 201.221 211.399 199.107C216.489 196.993 222.003 196.1 227.5 196.5C229.157 196.609 230.804 196.845 232.425 197.205C233 197.32 233.425 197.455 233.74 197.53C233.89 197.57 234.037 197.62 234.18 197.68Z" fill="#263238"/>
<path d="M209.11 144.935C209.11 144.996 209.102 145.057 209.085 145.115C209.055 145.25 209.02 145.42 208.975 145.615C208.87 146.115 208.72 146.76 208.53 147.615C208.14 149.34 207.53 151.83 206.795 154.905C205.295 161.055 203.125 169.525 200.86 178.905C199.735 183.6 198.72 188.085 197.86 192.175C197 196.265 196.265 199.96 195.72 203.075C195.425 204.63 195.22 206.045 194.995 207.285C194.77 208.525 194.62 209.59 194.495 210.465C194.37 211.34 194.26 211.995 194.185 212.465C194.145 212.68 194.115 212.85 194.095 212.965C194.075 213.08 194.06 213.145 194.05 213.145C194.044 213.085 194.044 213.025 194.05 212.965C194.05 212.825 194.085 212.655 194.11 212.435C194.17 211.935 194.255 211.275 194.365 210.435C194.475 209.595 194.62 208.485 194.815 207.24C195.01 205.995 195.21 204.58 195.49 203.025C195.99 199.9 196.72 196.2 197.57 192.1C198.42 188 199.44 183.515 200.57 178.815C202.835 169.43 205.045 160.97 206.57 154.815L208.405 147.55C208.62 146.71 208.79 146.05 208.905 145.575C208.96 145.365 209.005 145.2 209.045 145.075C209.061 145.026 209.083 144.979 209.11 144.935Z" fill="#263238"/>
<path d="M193.525 212.255C193.504 212.211 193.489 212.164 193.48 212.115L193.39 211.7C193.305 211.305 193.195 210.765 193.055 210.09C192.765 208.695 192.385 206.665 191.95 204.15C191.08 199.125 190.045 192.15 189.415 184.385C189.105 180.5 188.915 176.795 188.86 173.42C188.805 170.045 188.835 167.005 188.94 164.455C188.97 163.18 189.055 162.03 189.11 161.015C189.165 160 189.23 159.135 189.3 158.425C189.37 157.715 189.41 157.19 189.45 156.79C189.45 156.62 189.485 156.48 189.495 156.365C189.505 156.25 189.495 156.22 189.525 156.22C189.531 156.27 189.531 156.32 189.525 156.37C189.525 156.485 189.525 156.625 189.525 156.795C189.525 157.195 189.47 157.745 189.43 158.435C189.39 159.125 189.33 160.015 189.295 161.025C189.26 162.035 189.19 163.19 189.175 164.465C189.1 167.01 189.09 170.045 189.175 173.415C189.26 176.785 189.445 180.48 189.75 184.355C190.385 192.105 191.38 199.08 192.195 204.115C192.6 206.615 192.945 208.665 193.195 210.065C193.31 210.75 193.405 211.29 193.47 211.685C193.495 211.855 193.515 211.995 193.535 212.11C193.537 212.159 193.534 212.207 193.525 212.255Z" fill="#263238"/>
<path d="M194.025 213.72C193.955 213.594 193.896 213.462 193.85 213.325L193.405 212.16C193.305 211.905 193.2 211.625 193.085 211.32L192.65 210.345C192.495 209.995 192.325 209.62 192.15 209.22C191.975 208.82 191.75 208.425 191.535 207.99C191.32 207.555 191.08 207.115 190.84 206.645L190 205.225C189.455 204.225 188.75 203.225 188.07 202.16C186.505 199.889 184.812 197.709 183 195.63C181.146 193.572 179.187 191.611 177.13 189.755C176.155 188.935 175.26 188.11 174.36 187.42L173.075 186.42L171.855 185.52C171.085 184.94 170.355 184.45 169.725 184.02C169.095 183.59 168.54 183.215 168.08 182.94L167 182.25C166.873 182.179 166.754 182.095 166.645 182C166.781 182.053 166.911 182.118 167.035 182.195L168.115 182.81C168.59 183.075 169.155 183.425 169.795 183.85C170.435 184.275 171.18 184.74 171.96 185.315L173.2 186.2L174.5 187.2C175.415 187.88 176.315 188.7 177.3 189.52C179.376 191.37 181.349 193.333 183.21 195.4C185.049 197.494 186.759 199.698 188.33 202C189.005 203.09 189.705 204.09 190.245 205.095C190.525 205.595 190.795 206.07 191.06 206.535L191.735 207.895C191.945 208.335 192.165 208.74 192.335 209.14L192.835 210.28L193.245 211.28C193.355 211.59 193.45 211.875 193.54 212.135C193.7 212.635 193.83 213.015 193.93 213.315C193.979 213.445 194.01 213.582 194.025 213.72Z" fill="#263238"/>
<path d="M222.675 179.06C222.675 179.11 221.85 179.11 220.53 179.18C218.81 179.279 217.099 179.486 215.405 179.8C213.712 180.126 212.042 180.562 210.405 181.105C209.15 181.52 208.405 181.82 208.365 181.775C208.517 181.659 208.686 181.567 208.865 181.5C209.2 181.335 209.695 181.125 210.32 180.89C213.579 179.674 217.022 179.019 220.5 178.955C221.165 178.955 221.705 178.955 222.075 178.985C222.278 178.977 222.48 179.002 222.675 179.06Z" fill="#263238"/>
<path d="M227.795 204.065C227.695 204.115 226.93 201.905 225 199.855C223.07 197.805 220.945 196.855 221 196.755C221.49 196.883 221.956 197.089 222.38 197.365C224.509 198.59 226.217 200.431 227.28 202.645C227.523 203.089 227.697 203.568 227.795 204.065Z" fill="#263238"/>
<path d="M210.33 154.31C210.395 154.38 209.145 155.62 207.785 157.31C206.425 159 205.45 160.455 205.37 160.405C205.29 160.355 206.15 158.8 207.535 157.105C208.33 156.046 209.271 155.105 210.33 154.31Z" fill="#263238"/>
<path d="M206.23 147.23C206.32 147.23 206.595 148.415 206.85 149.91C207.105 151.405 207.24 152.625 207.155 152.64C207.07 152.655 206.79 151.455 206.535 149.96C206.28 148.465 206.145 147.245 206.23 147.23Z" fill="#263238"/>
<path d="M193.535 169.455C193.61 169.495 192.725 171.365 191.535 173.635C190.345 175.905 189.345 177.71 189.265 177.67C189.185 177.63 190.075 175.755 191.265 173.485C192.455 171.215 193.455 169.415 193.535 169.455Z" fill="#263238"/>
<path d="M186 161.91C186.08 161.87 186.835 163.225 187.685 164.935C188.535 166.645 189.16 168.06 189.085 168.1C189.01 168.14 188.25 166.785 187.4 165.075C186.55 163.365 185.895 161.95 186 161.91Z" fill="#263238"/>
<path d="M174.87 187.71C174.87 187.805 173.5 187.54 171.82 187.425C170.14 187.31 168.77 187.375 168.76 187.28C168.75 187.185 170.13 186.98 171.845 187.105C173.56 187.23 174.89 187.63 174.87 187.71Z" fill="#263238"/>
<path d="M182.455 210.525L186.235 230.395C186.355 231.032 186.694 231.608 187.194 232.021C187.693 232.435 188.322 232.661 188.97 232.66H200.135C200.795 232.66 201.433 232.426 201.936 231.999C202.439 231.573 202.773 230.981 202.88 230.33L206.165 210.525H182.455Z" fill="#263238"/>
<path d="M183.685 216.985H205.03L206.165 210.525H182.455L183.685 216.985Z" fill="#455A64"/>
<path d="M183.685 216.985L184.13 219.34H204.705L205.03 216.985H183.685Z" fill="#FAFAFA"/>
<path d="M96.795 229.855L98.085 224.355L108.8 224.62L107.905 232.445L107.225 232.5C104.19 232.705 91.785 233.33 89.725 232.74C87.5 232.075 96.795 229.855 96.795 229.855Z" fill="#447CCF"/>
<g opacity="0.4">
<path d="M103.915 232.405C104.065 231.474 104.555 230.631 105.29 230.04C106.009 229.452 106.923 229.156 107.85 229.21L107.89 232.285L103.915 232.405Z" fill="black"/>
</g>
<g opacity="0.4">
<path d="M92.245 231.105C92.245 231.105 88.98 232.105 89.395 232.605C89.81 233.105 102.395 232.98 107.895 232.425V232.18L93.245 232.49C93.245 232.49 92.885 231.12 92.245 231.105Z" fill="black"/>
</g>
<path d="M108.055 232.185C107.993 232.201 107.929 232.209 107.865 232.21L107.325 232.25L105.325 232.36C103.64 232.445 101.325 232.525 98.725 232.56C96.125 232.595 93.81 232.56 92.12 232.56L90.12 232.5H89.575H89.39C89.4531 232.492 89.5169 232.492 89.58 232.5H90.12H92.12C93.805 232.5 96.12 232.5 98.72 232.5C101.32 232.5 103.63 232.395 105.315 232.335L107.315 232.27H107.86L108.055 232.185Z" fill="#263238"/>
<path d="M93.24 232.68C93.148 232.35 93.0189 232.031 92.855 231.73C92.6537 231.45 92.4205 231.195 92.16 230.97C92.5026 231.093 92.7887 231.337 92.965 231.655C93.1785 231.952 93.2763 232.316 93.24 232.68Z" fill="#263238"/>
<path d="M96.465 231C96.435 231 96.275 230.835 96.11 230.58C95.945 230.325 95.84 230.11 95.87 230.08C95.9 230.05 96.06 230.25 96.225 230.5C96.39 230.75 96.5 230.97 96.465 231Z" fill="#263238"/>
<path d="M97.35 230.5C97.35 230.525 97.15 230.41 96.96 230.245C96.77 230.08 96.63 229.915 96.655 229.89C96.68 229.865 96.855 229.975 97.045 230.145C97.235 230.315 97.375 230.5 97.35 230.5Z" fill="#263238"/>
<path d="M97.9 229.46C97.7176 229.533 97.5207 229.562 97.325 229.545C97.1316 229.568 96.9355 229.549 96.75 229.49C96.9331 229.42 97.1297 229.393 97.325 229.41C97.518 229.384 97.7144 229.401 97.9 229.46Z" fill="#263238"/>
<path d="M98.085 228.725C97.8874 228.834 97.6693 228.9 97.4446 228.92C97.2199 228.94 96.9936 228.912 96.78 228.84C96.9965 228.805 97.2156 228.788 97.435 228.79C97.6494 228.75 97.8669 228.728 98.085 228.725Z" fill="#263238"/>
<path d="M96.08 230.035C95.845 230.075 95.605 230.075 95.37 230.035C95.1142 230.006 94.8615 229.954 94.615 229.88C94.4661 229.836 94.322 229.778 94.185 229.705C94.1004 229.662 94.0346 229.589 94 229.5C93.9882 229.447 93.9919 229.393 94.0105 229.342C94.0291 229.291 94.0619 229.247 94.105 229.215C94.3736 229.079 94.6808 229.041 94.9744 229.107C95.268 229.173 95.5297 229.338 95.715 229.575C95.8261 229.713 95.9063 229.873 95.95 230.045C95.98 230.165 95.98 230.23 95.95 230.235C95.8762 230.017 95.7645 229.814 95.62 229.635C95.4589 229.45 95.2467 229.316 95.01 229.25C94.8723 229.206 94.7272 229.189 94.583 229.201C94.4388 229.213 94.2984 229.253 94.17 229.32C94.06 229.4 94.105 229.535 94.23 229.605C94.3565 229.675 94.4907 229.731 94.63 229.77C94.8683 229.849 95.1123 229.909 95.36 229.95C95.81 230 96.08 230 96.08 230.035Z" fill="#263238"/>
<path d="M95.895 230.075C95.8065 229.924 95.7763 229.746 95.81 229.575C95.8316 229.396 95.895 229.225 95.995 229.075C96.0528 228.969 96.137 228.879 96.2394 228.814C96.3418 228.749 96.459 228.712 96.58 228.705C96.652 228.72 96.7153 228.762 96.7565 228.823C96.7976 228.883 96.8133 228.958 96.8 229.03C96.7863 229.142 96.7469 229.25 96.685 229.345C96.594 229.503 96.4831 229.65 96.355 229.78C96.135 230 95.965 230.085 95.955 230.07C95.945 230.055 96.095 229.94 96.285 229.715C96.3971 229.583 96.4943 229.439 96.575 229.285C96.67 229.135 96.735 228.87 96.575 228.84C96.415 228.81 96.215 229 96.11 229.145C96.0122 229.282 95.9457 229.439 95.915 229.605C95.8953 229.761 95.8886 229.918 95.895 230.075Z" fill="#263238"/>
<path d="M107.795 229.18C107.795 229.205 107.48 229.155 106.98 229.22C106.332 229.297 105.72 229.557 105.215 229.97C104.71 230.382 104.334 230.931 104.13 231.55C103.965 232.025 103.955 232.345 103.93 232.34C103.915 232.267 103.915 232.193 103.93 232.12C103.948 231.918 103.987 231.719 104.045 231.525C104.234 230.876 104.615 230.3 105.138 229.871C105.661 229.443 106.301 229.183 106.975 229.125C107.176 229.104 107.379 229.104 107.58 229.125C107.655 229.128 107.728 229.147 107.795 229.18Z" fill="#263238"/>
<path d="M106.595 224.615C106.678 225.365 106.72 226.12 106.72 226.875C106.763 227.628 106.763 228.382 106.72 229.135C106.634 228.386 106.592 227.633 106.595 226.88C106.552 226.126 106.552 225.369 106.595 224.615Z" fill="#263238"/>
<path d="M102.5 231.35C101.441 231.566 100.352 231.59 99.285 231.42C99.285 231.38 100.01 231.42 100.895 231.42C101.78 231.42 102.5 231.31 102.5 231.35Z" fill="#263238"/>
<path d="M104.67 231.32C104.7 231.345 104.615 231.47 104.545 231.635C104.475 231.8 104.435 231.95 104.395 231.945C104.355 231.94 104.34 231.775 104.42 231.585C104.5 231.395 104.65 231.29 104.67 231.32Z" fill="#263238"/>
<path d="M105.47 230.295C105.5 230.32 105.43 230.435 105.315 230.555C105.2 230.675 105.09 230.745 105.065 230.72C105.04 230.695 105.11 230.58 105.22 230.46C105.33 230.34 105.445 230.27 105.47 230.295Z" fill="#263238"/>
<path d="M106.63 229.82C106.63 229.855 106.475 229.86 106.315 229.915C106.155 229.97 106.04 230.065 106.01 230.04C105.98 230.015 106.07 229.86 106.27 229.79C106.47 229.72 106.64 229.785 106.63 229.82Z" fill="#263238"/>
<path d="M107.455 229.59C107.455 229.625 107.405 229.685 107.315 229.72C107.225 229.755 107.14 229.755 107.125 229.72C107.11 229.685 107.175 229.625 107.265 229.59C107.355 229.555 107.44 229.555 107.455 229.59Z" fill="#263238"/>
<path d="M140.64 229.88L140.675 224.01L129.675 223.875L129.535 232.47L130.22 232.52C133.25 232.725 145.66 233.35 147.695 232.76C149.96 232.1 140.64 229.88 140.64 229.88Z" fill="#447CCF"/>
<g opacity="0.4">
<path d="M133.5 232.43C133.349 231.499 132.859 230.657 132.125 230.065C131.405 229.479 130.492 229.183 129.565 229.235L129.525 232.31L133.5 232.43Z" fill="black"/>
</g>
<g opacity="0.4">
<path d="M145.19 231.13C145.19 231.13 148.455 232.13 148.04 232.63C147.625 233.13 135.065 233.005 129.54 232.45V232.2L144.19 232.515C144.19 232.515 144.55 231.15 145.19 231.13Z" fill="black"/>
</g>
<path d="M129.38 232.215H129.57L130.11 232.255L132.11 232.37C133.795 232.45 136.11 232.53 138.71 232.57C141.31 232.61 143.625 232.57 145.315 232.545L147.315 232.49H147.86H148.05C147.987 232.483 147.923 232.483 147.86 232.49H147.315H145.315C143.625 232.49 141.29 232.49 138.71 232.49C136.13 232.49 133.8 232.385 132.115 232.33L130.115 232.26H129.57L129.38 232.215Z" fill="#263238"/>
<path d="M144.195 232.705C144.288 232.375 144.417 232.056 144.58 231.755C144.779 231.475 145.012 231.221 145.275 231C144.93 231.118 144.642 231.363 144.47 231.685C144.258 231.98 144.16 232.343 144.195 232.705Z" fill="#263238"/>
<path d="M140.97 231C141 231 141.16 230.835 141.325 230.585C141.49 230.335 141.595 230.115 141.565 230.085C141.535 230.055 141.375 230.25 141.21 230.5C141.045 230.75 140.94 231 140.97 231Z" fill="#263238"/>
<path d="M140.085 230.535C140.11 230.56 140.285 230.45 140.48 230.28C140.675 230.11 140.805 229.955 140.78 229.925C140.755 229.895 140.58 230.01 140.39 230.18C140.2 230.35 140.06 230.5 140.085 230.535Z" fill="#263238"/>
<path d="M139.535 229.5C139.719 229.567 139.915 229.594 140.11 229.58C140.303 229.606 140.5 229.587 140.685 229.525C140.503 229.458 140.309 229.431 140.115 229.445C139.92 229.419 139.722 229.438 139.535 229.5Z" fill="#263238"/>
<path d="M139.355 228.755C139.552 228.864 139.769 228.93 139.993 228.95C140.217 228.97 140.442 228.943 140.655 228.87C140.441 228.831 140.223 228.813 140.005 228.815C139.791 228.772 139.573 228.752 139.355 228.755Z" fill="#263238"/>
<path d="M141.355 230.06C141.59 230.103 141.83 230.103 142.065 230.06C142.321 230.033 142.574 229.981 142.82 229.905C142.968 229.861 143.112 229.804 143.25 229.735C143.334 229.685 143.397 229.607 143.43 229.515C143.442 229.462 143.438 229.408 143.419 229.357C143.401 229.306 143.368 229.262 143.325 229.23C143.057 229.096 142.751 229.058 142.458 229.124C142.166 229.189 141.905 229.354 141.72 229.59C141.606 229.727 141.524 229.887 141.48 230.06C141.466 230.123 141.466 230.187 141.48 230.25C141.554 230.032 141.665 229.829 141.81 229.65C141.972 229.466 142.184 229.332 142.42 229.265C142.558 229.221 142.703 229.204 142.847 229.216C142.991 229.228 143.132 229.268 143.26 229.335C143.37 229.42 143.325 229.55 143.2 229.625C143.073 229.693 142.939 229.746 142.8 229.785C142.562 229.867 142.318 229.928 142.07 229.97C141.625 230.04 141.355 230.04 141.355 230.06Z" fill="#263238"/>
<path d="M141.54 230.1C141.628 229.949 141.659 229.771 141.625 229.6C141.603 229.421 141.539 229.25 141.44 229.1C141.382 228.994 141.298 228.904 141.196 228.839C141.093 228.774 140.976 228.737 140.855 228.73C140.784 228.746 140.721 228.788 140.68 228.849C140.639 228.909 140.623 228.983 140.635 229.055C140.649 229.169 140.689 229.278 140.75 229.375C140.842 229.531 140.953 229.675 141.08 229.805C141.3 230.025 141.47 230.11 141.48 230.095C141.49 230.08 141.34 229.97 141.15 229.74C141.038 229.61 140.941 229.467 140.86 229.315C140.765 229.165 140.7 228.895 140.86 228.865C141.02 228.835 141.215 229.025 141.32 229.17C141.418 229.307 141.484 229.464 141.515 229.63C141.537 229.786 141.545 229.943 141.54 230.1Z" fill="#263238"/>
<path d="M129.64 229.205C129.64 229.205 129.96 229.18 130.455 229.245C131.103 229.324 131.714 229.585 132.219 229.999C132.724 230.412 133.1 230.961 133.305 231.58C133.47 232.05 133.48 232.37 133.505 232.365C133.52 232.292 133.52 232.218 133.505 232.145C133.489 231.943 133.451 231.743 133.39 231.55C133.199 230.903 132.819 230.327 132.3 229.895C131.773 229.472 131.133 229.213 130.46 229.15C130.259 229.129 130.056 229.129 129.855 229.15C129.781 229.159 129.709 229.178 129.64 229.205Z" fill="#263238"/>
<path d="M130.84 224.64C130.757 225.39 130.715 226.145 130.715 226.9C130.673 227.654 130.673 228.411 130.715 229.165C130.801 228.415 130.843 227.66 130.84 226.905C130.882 226.151 130.882 225.394 130.84 224.64Z" fill="#263238"/>
<path d="M134.92 231.375C135.979 231.591 137.068 231.615 138.135 231.445C138.135 231.41 137.41 231.445 136.525 231.42C135.64 231.395 134.925 231.335 134.92 231.375Z" fill="#263238"/>
<path d="M132.765 231.345C132.735 231.37 132.82 231.495 132.89 231.665C132.96 231.835 133 231.975 133.04 231.975C133.08 231.975 133.1 231.8 133.015 231.61C132.93 231.42 132.785 231.32 132.765 231.345Z" fill="#263238"/>
<path d="M131.965 230.325C131.935 230.35 132.005 230.465 132.12 230.58C132.235 230.695 132.345 230.77 132.37 230.745C132.395 230.72 132.325 230.605 132.215 230.49C132.105 230.375 132 230.295 131.965 230.325Z" fill="#263238"/>
<path d="M130.805 229.845C130.805 229.885 130.96 229.885 131.12 229.945C131.28 230.005 131.395 230.09 131.425 230.065C131.455 230.04 131.365 229.885 131.165 229.815C130.965 229.745 130.795 229.81 130.805 229.845Z" fill="#263238"/>
<path d="M130 229.615C130 229.65 130.05 229.71 130.14 229.745C130.23 229.78 130.315 229.785 130.33 229.745C130.345 229.705 130.28 229.655 130.19 229.615C130.1 229.575 130 229.585 130 229.615Z" fill="#263238"/>
<path d="M146.895 122.66L141.89 228.495L128.155 228.82L129.235 137.055L108.68 228.995L96.985 228.465L115.325 122.875L146.895 122.66Z" fill="#263238"/>
<path d="M132.605 124.09C132.607 124.672 132.565 125.254 132.48 125.83C132.365 126.9 132.19 128.375 131.98 130.005C131.906 130.779 131.779 131.548 131.6 132.305C131.441 132.942 131.092 133.516 130.6 133.95C130.269 134.241 129.867 134.439 129.435 134.525C129.279 134.563 129.116 134.563 128.96 134.525C129.543 134.425 130.083 134.152 130.51 133.742C130.937 133.332 131.232 132.804 131.355 132.225C131.514 131.476 131.631 130.718 131.705 129.955C131.92 128.33 132.125 126.855 132.29 125.795C132.346 125.219 132.451 124.648 132.605 124.09Z" fill="#455A64"/>
<path d="M129.22 124.72C129.26 124.745 129.13 124.92 129.22 125.195C129.241 125.268 129.277 125.337 129.326 125.395C129.375 125.454 129.436 125.501 129.505 125.535C129.59 125.567 129.683 125.573 129.772 125.553C129.861 125.532 129.942 125.486 130.005 125.42C130.077 125.361 130.128 125.281 130.153 125.192C130.178 125.103 130.175 125.008 130.145 124.92C130.114 124.85 130.069 124.787 130.014 124.734C129.958 124.682 129.892 124.641 129.82 124.615C129.55 124.51 129.37 124.615 129.345 124.59C129.32 124.565 129.49 124.345 129.875 124.415C129.983 124.44 130.084 124.489 130.17 124.559C130.257 124.628 130.327 124.715 130.375 124.815C130.424 124.952 130.433 125.101 130.398 125.242C130.364 125.384 130.289 125.512 130.183 125.612C130.077 125.711 129.943 125.778 129.8 125.802C129.656 125.827 129.508 125.808 129.375 125.75C129.275 125.696 129.189 125.619 129.125 125.525C129.06 125.431 129.019 125.323 129.005 125.21C128.97 124.85 129.21 124.685 129.22 124.72Z" fill="#455A64"/>
<path d="M120.5 126.545C120.287 126.078 120.194 125.566 120.23 125.054C120.266 124.542 120.429 124.048 120.705 123.615C120.785 123.645 120.57 124.275 120.52 125.07C120.47 125.865 120.585 126.5 120.5 126.545Z" fill="#455A64"/>
<path d="M122.46 126.345C122.252 125.86 122.153 125.336 122.17 124.809C122.187 124.282 122.32 123.765 122.56 123.295C122.556 123.797 122.523 124.297 122.46 124.795C122.491 125.311 122.491 125.829 122.46 126.345Z" fill="#455A64"/>
<path d="M139.365 126.15C139.334 125.623 139.346 125.095 139.4 124.57C139.358 124.042 139.358 123.512 139.4 122.985C139.789 124.007 139.773 125.139 139.355 126.15H139.365Z" fill="#455A64"/>
<path d="M141.5 125.955C141.42 125.925 141.65 125.23 141.675 124.345C141.7 123.46 141.525 122.75 141.605 122.725C141.905 123.21 142.031 123.784 141.96 124.35C141.991 124.921 141.829 125.487 141.5 125.955Z" fill="#455A64"/>
<path d="M138.355 56.3C138.915 55.635 139.355 54.45 139.01 53.65C139.68 53.305 139.74 52.71 139.74 51.96C139.702 51.2058 139.478 50.4726 139.09 49.825C138.563 48.7246 137.723 47.8044 136.675 47.18C136.147 46.8773 135.544 46.7307 134.936 46.7572C134.328 46.7838 133.74 46.9824 133.24 47.33C132.881 46.9034 132.44 46.5532 131.943 46.3003C131.445 46.0474 130.903 45.8969 130.346 45.8578C129.79 45.8186 129.232 45.8915 128.704 46.0723C128.176 46.253 127.69 46.5379 127.275 46.91C127.013 47.2257 126.708 47.5033 126.37 47.735C125.775 48.065 125.045 47.94 124.37 48.005C123.817 48.0527 123.283 48.2313 122.813 48.5259C122.343 48.8205 121.949 49.2228 121.665 49.6995C121.381 50.1762 121.214 50.7137 121.178 51.2675C121.142 51.8214 121.239 52.3758 121.46 52.885C120.988 53.2168 120.597 53.6516 120.317 54.1566C120.037 54.6616 119.876 55.2235 119.845 55.8C119.798 56.9517 119.929 58.1036 120.235 59.215C120.545 60.6 120.895 62.055 121.875 63.08C122.555 63.7841 123.469 64.2161 124.445 64.295C125.14 64.3413 125.835 64.2101 126.464 63.9135C127.094 63.617 127.638 63.1649 128.045 62.6" fill="#263238"/>
<path d="M123.72 79.895L134.83 79.395C134.895 78.215 134.29 70.895 134.29 70.895C134.29 70.895 138.49 70.245 138.545 66.045C138.6 61.845 137.865 52.205 137.865 52.205C135.478 51.1791 132.86 50.8088 130.282 51.1322C127.705 51.4557 125.26 52.4612 123.2 54.045L122.58 54.545L123.72 79.895Z" fill="#B78876"/>
<path d="M134.3 70.85C132.353 70.8912 130.437 70.3497 128.8 69.295C128.8 69.295 130.095 72.295 134.3 71.94V70.85Z" fill="#AA6550"/>
<path d="M123.095 58.89C123.025 58.86 120.21 58.035 120.305 60.89C120.4 63.745 123.26 63.08 123.26 62.995C123.26 62.91 123.095 58.89 123.095 58.89Z" fill="#B78876"/>
<path d="M122.35 61.95C122.35 61.95 122.3 61.99 122.215 62.03C122.096 62.0773 121.964 62.0773 121.845 62.03C121.655 61.9189 121.497 61.7587 121.39 61.566C121.283 61.3734 121.229 61.1554 121.235 60.935C121.219 60.689 121.26 60.4427 121.355 60.215C121.379 60.1253 121.425 60.0427 121.487 59.974C121.55 59.9053 121.628 59.8525 121.715 59.82C121.772 59.8031 121.834 59.8068 121.889 59.8306C121.943 59.8544 121.988 59.8966 122.015 59.95C122.055 60.03 122.04 60.085 122.055 60.09C122.07 60.095 122.115 60.04 122.09 59.92C122.07 59.8502 122.028 59.7888 121.97 59.745C121.93 59.716 121.885 59.6954 121.837 59.6842C121.788 59.673 121.739 59.6716 121.69 59.68C121.574 59.7092 121.468 59.7672 121.38 59.8485C121.293 59.9297 121.228 60.0317 121.19 60.145C121.074 60.3969 121.023 60.6734 121.04 60.95C121.035 61.2058 121.105 61.4576 121.242 61.6737C121.379 61.8898 121.576 62.0607 121.81 62.165C121.888 62.1848 121.969 62.1869 122.048 62.1713C122.126 62.1558 122.201 62.1229 122.265 62.075C122.345 62 122.36 61.955 122.35 61.95Z" fill="#AA6550"/>
<path d="M136.94 58.8C136.943 58.9561 136.884 59.1071 136.776 59.2202C136.669 59.3334 136.521 59.3998 136.365 59.405C136.289 59.4111 136.212 59.4019 136.139 59.378C136.066 59.354 135.999 59.3158 135.941 59.2654C135.884 59.2151 135.837 59.1538 135.803 59.085C135.769 59.0163 135.749 58.9415 135.745 58.865C135.744 58.7093 135.803 58.559 135.91 58.4461C136.017 58.3332 136.164 58.2665 136.32 58.26C136.396 58.2532 136.474 58.2619 136.547 58.2856C136.62 58.3093 136.687 58.3475 136.745 58.3979C136.803 58.4484 136.85 58.51 136.884 58.5791C136.917 58.6482 136.936 58.7233 136.94 58.8Z" fill="#263238"/>
<path d="M137.07 58.125C137 58.205 136.545 57.865 135.9 57.87C135.255 57.875 134.78 58.195 134.71 58.115C134.64 58.035 134.75 57.94 134.955 57.79C135.236 57.5962 135.569 57.4932 135.91 57.495C136.246 57.4935 136.573 57.5986 136.845 57.795C137.04 57.95 137.11 58.09 137.07 58.125Z" fill="#263238"/>
<path d="M130.62 58.95C130.623 59.1061 130.564 59.257 130.456 59.3702C130.349 59.4834 130.201 59.5498 130.045 59.555C129.969 59.5611 129.892 59.5519 129.819 59.5279C129.746 59.504 129.679 59.4657 129.621 59.4154C129.564 59.3651 129.517 59.3038 129.483 59.235C129.449 59.1662 129.429 59.0914 129.425 59.015C129.424 58.8584 129.483 58.7075 129.592 58.5944C129.7 58.4814 129.848 58.4152 130.005 58.41C130.081 58.4039 130.158 58.4131 130.23 58.4371C130.303 58.4611 130.369 58.4995 130.427 58.5498C130.484 58.6002 130.531 58.6616 130.564 58.7303C130.597 58.799 130.616 58.8737 130.62 58.95Z" fill="#263238"/>
<path d="M130.73 58.245C130.655 58.325 130.2 57.985 129.555 57.99C128.91 57.995 128.435 58.315 128.365 58.235C128.295 58.155 128.405 58.06 128.615 57.91C128.894 57.716 129.225 57.613 129.565 57.615C129.901 57.6135 130.228 57.7186 130.5 57.915C130.7 58.07 130.765 58.21 130.73 58.245Z" fill="#263238"/>
<path d="M133.07 63.03C133.411 62.9256 133.764 62.8619 134.12 62.84C134.285 62.84 134.44 62.79 134.47 62.68C134.481 62.5063 134.443 62.333 134.36 62.18L133.86 60.925C133.41 59.8619 133.044 58.7652 132.765 57.645C133.303 58.668 133.756 59.7333 134.12 60.83L134.59 62.095C134.693 62.2934 134.723 62.5217 134.675 62.74C134.651 62.7978 134.614 62.8494 134.567 62.8909C134.521 62.9325 134.465 62.963 134.405 62.98C134.314 63.0066 134.22 63.02 134.125 63.02C133.775 63.0699 133.421 63.0733 133.07 63.03Z" fill="#263238"/>
<path d="M131.17 63.5C131.275 63.5 131.28 64.195 131.88 64.695C132.48 65.195 133.225 65.115 133.23 65.195C133.235 65.275 133.06 65.335 132.73 65.34C132.321 65.3468 131.922 65.2086 131.605 64.95C131.3 64.6994 131.103 64.3415 131.055 63.95C131.045 63.645 131.125 63.5 131.17 63.5Z" fill="#263238"/>
<path d="M130.895 55.715C130.83 55.89 130.19 55.81 129.43 55.9C128.67 55.99 128.06 56.2 127.96 56.04C127.915 55.965 128.02 55.8 128.27 55.63C128.598 55.4181 128.972 55.2878 129.36 55.25C129.747 55.2015 130.14 55.2478 130.505 55.385C130.785 55.5 130.925 55.635 130.895 55.715Z" fill="#263238"/>
<path d="M136.835 56.255C136.72 56.405 136.275 56.255 135.74 56.255C135.205 56.255 134.74 56.355 134.65 56.2C134.605 56.125 134.675 55.98 134.875 55.84C135.141 55.6735 135.45 55.5898 135.763 55.5996C136.077 55.6094 136.38 55.7122 136.635 55.895C136.825 56.035 136.885 56.185 136.835 56.255Z" fill="#263238"/>
<path d="M122.355 54.35C122.41 55.57 122.14 56.935 122.355 58.135C122.39 58.32 122.855 58.805 122.905 58.985C123.15 60.045 123.59 60.485 124.225 59.405C124.468 58.7359 124.636 58.0415 124.725 57.335L125.49 53.455C126.476 53.9689 127.574 54.23 128.685 54.215C129.238 54.1993 129.779 54.0433 130.255 53.7617C130.732 53.4801 131.129 53.0821 131.41 52.605C131.673 53.041 132.031 53.4122 132.457 53.6909C132.883 53.9696 133.367 54.1488 133.871 54.2151C134.376 54.2814 134.89 54.2331 135.373 54.0738C135.857 53.9145 136.298 53.6483 136.665 53.295C136.871 53.5827 137.177 53.7828 137.523 53.856C137.869 53.9291 138.23 53.8699 138.535 53.69C138.83 53.4933 139.055 53.2084 139.178 52.8762C139.301 52.5439 139.315 52.1812 139.22 51.84C138.93 50.815 137.83 50.26 136.81 49.96C132.81 48.785 128.4 49.705 124.81 51.81C124.275 52.1008 123.786 52.4698 123.36 52.905C122.95 53.35 122.385 53.905 122.36 54.485" fill="#263238"/>
<path d="M131.865 61.25C131.865 61.25 132.015 61.07 132.215 60.715C132.493 60.2127 132.598 59.633 132.515 59.065C132.449 58.6056 132.256 58.1736 131.959 57.8175C131.661 57.4613 131.27 57.195 130.83 57.0484C130.39 56.9018 129.917 56.8807 129.466 56.9874C129.014 57.0941 128.601 57.3245 128.273 57.6526C127.944 57.9808 127.714 58.3939 127.607 58.8456C127.501 59.2973 127.522 59.7697 127.668 60.2101C127.815 60.6505 128.081 61.0413 128.437 61.3389C128.794 61.6365 129.226 61.829 129.685 61.895C130.252 61.9796 130.832 61.876 131.335 61.6C131.69 61.4 131.835 61.23 131.865 61.25C131.895 61.27 131.835 61.3 131.76 61.38C131.647 61.4957 131.521 61.598 131.385 61.685C130.874 62.0151 130.264 62.155 129.66 62.08C129.155 62.0171 128.677 61.8136 128.282 61.4926C127.886 61.1716 127.589 60.746 127.423 60.2643C127.258 59.7826 127.231 59.2641 127.346 58.7679C127.461 58.2717 127.712 57.8176 128.072 57.4575C128.433 57.0974 128.887 56.8456 129.383 56.7308C129.879 56.616 130.398 56.6429 130.879 56.8083C131.361 56.9737 131.787 57.2711 132.108 57.6665C132.429 58.062 132.632 58.5396 132.695 59.045C132.771 59.6464 132.633 60.2553 132.305 60.765C132.219 60.9036 132.117 61.0313 132 61.145C131.92 61.2184 131.875 61.2534 131.865 61.25Z" fill="#455A64"/>
<path d="M138.5 61.25C138.5 61.25 138.65 61.07 138.85 60.715C139.126 60.212 139.23 59.6324 139.145 59.065C139.079 58.6056 138.886 58.1736 138.589 57.8174C138.291 57.4613 137.9 57.195 137.46 57.0484C137.02 56.9018 136.547 56.8806 136.096 56.9873C135.644 57.0941 135.231 57.3244 134.903 57.6526C134.574 57.9808 134.344 58.3938 134.237 58.8455C134.131 59.2972 134.152 59.7697 134.298 60.2101C134.445 60.6504 134.711 61.0413 135.067 61.3389C135.424 61.6364 135.856 61.829 136.315 61.895C136.882 61.9796 137.462 61.876 137.965 61.6C138.32 61.4 138.465 61.23 138.5 61.25C138.535 61.27 138.47 61.3 138.395 61.38C138.281 61.4968 138.154 61.5992 138.015 61.685C137.506 62.0143 136.897 62.1542 136.295 62.08C135.789 62.018 135.311 61.8152 134.915 61.4947C134.519 61.1742 134.221 60.7488 134.054 60.2671C133.888 59.7854 133.861 59.2667 133.975 58.7701C134.089 58.2735 134.341 57.819 134.701 57.4584C135.061 57.0978 135.515 56.8456 136.011 56.7305C136.508 56.6154 137.026 56.642 137.508 56.8074C137.99 56.9727 138.416 57.2702 138.737 57.6658C139.059 58.0614 139.262 58.5393 139.325 59.045C139.401 59.6463 139.263 60.2553 138.935 60.765C138.849 60.9036 138.747 61.0312 138.63 61.145C138.56 61.22 138.5 61.255 138.5 61.25Z" fill="#455A64"/>
<path d="M134.105 59.2C134.105 59.275 133.775 59.33 133.365 59.33C132.955 59.33 132.62 59.275 132.62 59.2C132.62 59.125 132.955 59.07 133.365 59.07C133.775 59.07 134.105 59.13 134.105 59.2Z" fill="#455A64"/>
<path d="M122.9 59C123.651 58.8425 124.418 58.7721 125.185 58.79C125.95 58.7238 126.719 58.7423 127.48 58.845C126.729 59.002 125.962 59.0708 125.195 59.05C124.431 59.1192 123.661 59.1024 122.9 59Z" fill="#455A64"/>
<path d="M125.31 58.195L121.72 56.9L118.32 58.08L113.615 63L110.555 65.92L115.555 68.14L118.2 67.085L122.415 64.215L124.8 59.715C124.8 59.715 124.12 59.395 123.355 60.47L122.64 61.425L121.96 58.825V58.055L124.07 58.7C124.282 58.7689 124.51 58.7724 124.724 58.71C124.938 58.6476 125.128 58.5221 125.27 58.35L125.31 58.195Z" fill="#B78876"/>
<path d="M118.575 62C118.605 62 118.75 62.19 118.885 62.57C119.056 63.0685 119.127 63.596 119.093 64.122C119.06 64.648 118.923 65.1622 118.69 65.635C118.505 65.995 118.335 66.18 118.31 66.16C118.56 65.4982 118.728 64.8079 118.81 64.105C118.821 63.3962 118.742 62.689 118.575 62Z" fill="#AA6550"/>
<path d="M118.61 62.05C119.034 61.9041 119.471 61.8002 119.915 61.74H119.945C120.029 61.7902 120.095 61.8655 120.133 61.9553C120.172 62.045 120.181 62.1446 120.16 62.24C120.117 62.4194 120.041 62.5891 119.935 62.74C119.887 62.8042 119.854 62.8785 119.838 62.9572C119.823 63.036 119.825 63.1173 119.845 63.195C119.924 63.364 120.046 63.509 120.2 63.615H120.045C120.41 63.3927 120.721 63.0921 120.955 62.735C121.305 62.18 120.905 61.595 120.69 61.06C120.643 60.9396 120.584 60.8241 120.515 60.715C120.476 60.6839 120.431 60.6623 120.382 60.6519C120.333 60.6415 120.283 60.6426 120.235 60.655L119.525 60.765C119.057 60.8606 118.582 60.9141 118.105 60.925C118.557 60.7683 119.022 60.6545 119.495 60.585L120.205 60.445C120.287 60.424 120.373 60.423 120.456 60.4421C120.539 60.4613 120.615 60.5 120.68 60.555C120.774 60.6782 120.85 60.8147 120.905 60.96C121.025 61.23 121.17 61.49 121.28 61.81C121.34 61.9817 121.363 62.1642 121.346 62.3453C121.33 62.5264 121.275 62.7019 121.185 62.86C120.929 63.2522 120.587 63.5806 120.185 63.82L120.105 63.875L120.03 63.81C119.846 63.6721 119.703 63.4873 119.615 63.275C119.586 63.1658 119.582 63.0515 119.604 62.9406C119.625 62.8297 119.672 62.7252 119.74 62.635C119.838 62.5043 119.91 62.3569 119.955 62.2C119.973 62.1432 119.973 62.0825 119.956 62.0256C119.939 61.9686 119.906 61.9179 119.86 61.88H119.915C119.486 61.9771 119.049 62.034 118.61 62.05Z" fill="#AA6550"/>
<path d="M121.265 62.43C121.265 62.43 121.325 62.535 121.495 62.59C121.552 62.6082 121.612 62.6146 121.672 62.6087C121.732 62.6028 121.789 62.5848 121.842 62.5558C121.894 62.5268 121.94 62.4873 121.977 62.4399C122.014 62.3925 122.04 62.3381 122.055 62.28C122.132 61.8968 122.057 61.4985 121.845 61.17C121.665 60.75 121.48 60.25 121.265 59.795C121.05 59.34 120.495 59.415 120.045 59.465C119.595 59.515 119.175 59.57 118.83 59.625C118.46 59.711 118.084 59.7662 117.705 59.79C118.05 59.6227 118.417 59.5065 118.795 59.445C119.14 59.365 119.555 59.285 120.02 59.225C120.269 59.1829 120.523 59.1695 120.775 59.185C120.927 59.199 121.073 59.2525 121.199 59.3402C121.324 59.4278 121.425 59.5467 121.49 59.685C121.735 60.185 121.89 60.685 122.07 61.095C122.159 61.3035 122.229 61.5193 122.28 61.74C122.328 61.9473 122.309 62.1645 122.225 62.36C122.193 62.4454 122.144 62.5229 122.079 62.5868C122.014 62.6508 121.936 62.6997 121.85 62.73C121.786 62.7522 121.717 62.761 121.649 62.7558C121.581 62.7506 121.515 62.7317 121.455 62.7C121.255 62.58 121.255 62.425 121.265 62.43Z" fill="#AA6550"/>
<path d="M122.66 61.42C122.504 61.1163 122.388 60.7936 122.315 60.46C122.22 60.13 122.115 59.775 122.01 59.405C121.95 59.21 121.895 58.985 121.835 58.79C121.803 58.6966 121.751 58.6112 121.683 58.5396C121.614 58.468 121.532 58.4118 121.44 58.375C121.027 58.2904 120.599 58.3322 120.21 58.495L119.145 58.78C118.821 58.8862 118.485 58.9517 118.145 58.975C118.444 58.8099 118.764 58.6839 119.095 58.6L120.14 58.265C120.58 58.0686 121.072 58.0229 121.54 58.135C121.665 58.1861 121.777 58.2634 121.87 58.3617C121.962 58.4601 122.032 58.5772 122.075 58.705C122.145 58.94 122.185 59.14 122.24 59.345L122.495 60.415C122.594 60.7413 122.649 61.0792 122.66 61.42Z" fill="#AA6550"/>
<path d="M113.615 63C113.637 62.966 113.662 62.9341 113.69 62.905C113.76 62.835 113.835 62.745 113.93 62.64L114.865 61.64L118.275 58.035L121.675 56.84H121.7L125.295 58.13H125.345V58.365C125.198 58.5469 124.999 58.6795 124.775 58.745C124.543 58.7976 124.302 58.7976 124.07 58.745L122.595 58.295L121.965 58.1L122.065 58.03C122.065 58.285 122.065 58.53 122.065 58.8V58.775C122.295 59.665 122.525 60.535 122.745 61.375H122.61C122.92 60.965 123.205 60.565 123.52 60.175C123.666 59.9639 123.871 59.8008 124.109 59.7064C124.348 59.6121 124.609 59.5907 124.86 59.645H124.93L124.89 59.72L122.495 64.22L119.395 66.3L118.5 66.895C118.305 67.025 118.2 67.085 118.2 67.085C118.2 67.085 118.295 67.005 118.48 66.87L119.315 66.29L122.385 64.17L124.755 59.67L124.79 59.77C124.686 59.7381 124.577 59.7269 124.469 59.7372C124.361 59.7475 124.256 59.7791 124.16 59.83C123.954 59.9397 123.771 60.0873 123.62 60.265C123.325 60.635 123.03 61.055 122.725 61.46L122.63 61.585L122.59 61.435C122.365 60.59 122.14 59.725 121.905 58.835C121.905 58.58 121.905 58.335 121.905 58.065V57.96L122.005 57.99L122.635 58.185L124.11 58.635C124.319 58.6824 124.536 58.6824 124.745 58.635C124.941 58.5787 125.116 58.4635 125.245 58.305V58.355V58.205L125.295 58.275L121.705 56.975H121.755L118.35 58.15L114.9 61.715L113.945 62.715L113.69 62.97C113.666 62.9823 113.641 62.9924 113.615 63Z" fill="#AA6550"/>
<path d="M115.075 94.65L114.84 77.375L119.34 75.875C120.755 75.605 122.13 75.09 123.795 75.02C125.314 76.2213 127.188 76.8861 129.125 76.9105C131.061 76.9349 132.951 76.3177 134.5 75.155L134.65 75.04C135.08 75.09 135.65 75.145 136.365 75.23H136.505C138.284 75.4531 139.976 76.1278 141.42 77.19L163.78 90.54L176.91 80.54L183.56 85.755C183.56 85.755 166.36 102.955 164.69 103.365C163.535 103.65 152.06 97.365 145.105 93.505C145.39 97.67 146.945 120.82 146.87 124.005H114.92L114.895 109.405V105.43L115.075 94.65Z" fill="#447CCF"/>
<path d="M144.675 83.63C144.637 83.8849 144.629 84.1432 144.65 84.4C144.65 84.955 144.69 85.655 144.71 86.48C144.775 88.24 144.89 90.665 145.035 93.345C145.18 96.025 145.325 98.45 145.45 100.205C145.515 101.03 145.57 101.705 145.61 102.28C145.621 102.538 145.656 102.794 145.715 103.045C145.753 102.792 145.761 102.535 145.74 102.28C145.74 101.72 145.7 101.025 145.675 100.195C145.61 98.435 145.5 96.01 145.355 93.33C145.21 90.65 145.065 88.22 144.94 86.465C144.875 85.64 144.82 84.965 144.775 84.39C144.767 84.134 144.733 83.8794 144.675 83.63Z" fill="#263238"/>
<path d="M173.395 83.4C173.32 83.48 174.765 84.845 176.61 86.455C178.455 88.065 179.995 89.315 180.055 89.245C180.115 89.175 178.665 87.825 176.82 86.21C175.9 85.405 175.055 84.71 174.435 84.18C174.113 83.8881 173.765 83.627 173.395 83.4Z" fill="#263238"/>
<path d="M171.87 84.54C171.81 84.61 173.275 85.98 175.125 87.62C176.05 88.44 176.9 89.165 177.525 89.68C177.845 89.9839 178.201 90.2476 178.585 90.465C178.324 90.1107 178.02 89.79 177.68 89.51C177.09 88.95 176.265 88.195 175.335 87.375C174.405 86.555 173.56 85.83 172.93 85.32C172.611 85.0163 172.255 84.7543 171.87 84.54Z" fill="#263238"/>
<path d="M111.565 63.055C111.565 63.055 98.785 75 94.75 79.895C92.925 82.1 92.51 85.395 93.98 87.845C94.5541 88.809 95.3842 89.595 96.378 90.1158C97.3719 90.6366 98.4906 90.8717 99.61 90.795L115 89.765L116.165 76.96L106.86 79.865L117.7 68.53L111.565 63.055Z" fill="#447CCF"/>
<path d="M114.91 99.9C114.835 99.9 114.815 97.15 114.86 93.765C114.905 90.38 115 87.64 115.075 87.64C115.15 87.64 115.165 90.385 115.12 93.77C115.075 97.155 115 99.9 114.91 99.9Z" fill="#263238"/>
<path d="M111.075 75.46C110.964 75.6396 110.835 75.8072 110.69 75.96L109.56 77.225C108.595 78.29 107.23 79.77 105.67 81.445L105.7 81.39C105.55 81.93 105.365 82.485 105.155 83.04C104.728 84.2466 104.159 85.398 103.46 86.47C102.857 87.333 102.087 88.0659 101.195 88.625C100.598 89.0108 99.9329 89.2774 99.235 89.41C99.0472 89.4469 98.8564 89.467 98.665 89.47C98.535 89.47 98.465 89.47 98.465 89.47C98.465 89.47 98.74 89.43 99.215 89.315C99.8854 89.1455 100.521 88.8613 101.095 88.475C101.947 87.9083 102.681 87.1835 103.26 86.34C103.935 85.2763 104.49 84.141 104.915 82.955C105.12 82.405 105.3 81.855 105.455 81.325V81.295C107.02 79.625 108.41 78.17 109.41 77.135L110.59 75.925C110.737 75.7556 110.9 75.6 111.075 75.46Z" fill="#263238"/>
<path d="M104.925 83.355C105.153 84.1381 105.219 84.9593 105.12 85.7689C105.021 86.5785 104.759 87.3596 104.35 88.065C104.275 88.035 104.71 87.065 104.85 85.735C104.99 84.405 104.845 83.365 104.925 83.355Z" fill="#263238"/>
<path d="M119.545 123.685C119.518 123.654 119.495 123.621 119.475 123.585L119.28 123.275L118.56 122.075C118.17 121.444 117.815 120.794 117.495 120.125C117.042 119.228 116.885 118.212 117.045 117.22C117.25 116.12 117.905 115.08 118.385 113.915C118.636 113.317 118.777 112.678 118.8 112.03C118.811 111.339 118.739 110.649 118.585 109.975C118.295 108.58 117.75 107.145 117.61 105.56C117.501 103.932 117.646 102.298 118.04 100.715C118.405 99.09 118.855 97.53 119.175 96.005C119.33 95.258 119.446 94.5037 119.525 93.745C119.525 93.375 119.575 93.005 119.59 92.64C119.605 92.275 119.59 91.91 119.59 91.555C119.407 89.0213 118.987 86.5103 118.335 84.055C117.835 81.94 117.48 80.21 117.335 79C117.25 78.395 117.205 77.925 117.185 77.605C117.185 77.46 117.185 77.34 117.185 77.24C117.18 77.1985 117.18 77.1565 117.185 77.115C117.185 77.115 117.185 77.16 117.21 77.24C117.235 77.32 117.24 77.455 117.26 77.6C117.29 77.92 117.355 78.385 117.455 78.985C117.645 80.185 118.025 81.9 118.55 84.01C119.232 86.473 119.672 88.9966 119.865 91.545C119.865 91.905 119.865 92.275 119.865 92.645C119.865 93.015 119.83 93.39 119.81 93.77C119.735 94.525 119.615 95.27 119.46 96.06C119.14 97.6 118.69 99.155 118.33 100.77C117.943 102.327 117.798 103.934 117.9 105.535C118.03 107.08 118.565 108.505 118.855 109.925C119.012 110.619 119.08 111.329 119.06 112.04C119.034 112.713 118.885 113.376 118.62 113.995C118.12 115.185 117.465 116.2 117.265 117.255C117.098 118.21 117.238 119.194 117.665 120.065C117.965 120.735 118.298 121.389 118.665 122.025L119.34 123.25L119.51 123.57C119.535 123.645 119.55 123.685 119.545 123.685Z" fill="#FAFAFA"/>
<path d="M126.5 76.955C126.517 76.9934 126.528 77.0337 126.535 77.075L126.615 77.43C126.68 77.74 126.765 78.2 126.865 78.8C127.133 80.489 127.278 82.1951 127.3 83.905C127.336 86.4423 127.116 88.9767 126.645 91.47C126.145 94.285 125.315 97.33 125.045 100.605C124.775 103.88 125.275 107.01 125.665 109.835C126.078 112.336 126.33 114.861 126.42 117.395C126.464 119.108 126.262 120.819 125.82 122.475L125.71 122.89L125.585 123.245L125.375 123.8L125.245 124.135C125.215 124.21 125.195 124.25 125.195 124.25C125.189 124.209 125.189 124.166 125.195 124.125L125.305 123.78L125.485 123.22C125.52 123.11 125.56 122.995 125.6 122.865C125.64 122.735 125.66 122.595 125.695 122.45C126.092 120.796 126.26 119.095 126.195 117.395C126.076 114.881 125.803 112.376 125.38 109.895C124.98 107.07 124.495 103.93 124.74 100.61C124.985 97.29 125.85 94.255 126.365 91.455C126.846 88.9758 127.082 86.4554 127.07 83.93C127.061 82.2277 126.944 80.5276 126.72 78.84C126.64 78.24 126.57 77.775 126.515 77.465C126.515 77.32 126.475 77.2 126.465 77.105C126.463 77.0528 126.475 77.0011 126.5 76.955Z" fill="#FAFAFA"/>
<path d="M138.245 123.705L138.175 123.6L137.99 123.28C137.887 123.106 137.801 122.921 137.735 122.73C137.695 122.62 137.64 122.5 137.6 122.365C137.56 122.23 137.53 122.09 137.49 121.94C137.329 121.2 137.276 120.44 137.33 119.685C137.406 118.688 137.538 117.697 137.725 116.715C137.957 115.537 138.106 114.344 138.17 113.145C138.191 111.779 137.952 110.421 137.465 109.145C136.9 107.718 136.435 106.252 136.075 104.76C135.822 103.118 135.854 101.446 136.17 99.815C136.43 98.14 136.77 96.53 136.865 94.95C136.932 93.4312 136.813 91.9099 136.51 90.42C135.95 87.56 135.175 85.025 134.91 82.81C134.639 81.0718 134.693 79.2984 135.07 77.58C135.208 76.9498 135.43 76.341 135.73 75.77C135.723 75.8135 135.71 75.8556 135.69 75.895L135.56 76.24C135.4 76.6841 135.269 77.1384 135.17 77.6C134.832 79.3096 134.807 81.0664 135.095 82.785C135.375 84.975 136.17 87.495 136.745 90.375C137.06 91.8835 137.186 93.4254 137.12 94.965C137.03 96.57 136.685 98.195 136.425 99.855C136.116 101.456 136.082 103.098 136.325 104.71C136.679 106.191 137.135 107.647 137.69 109.065C137.926 109.744 138.114 110.439 138.25 111.145C138.371 111.814 138.416 112.495 138.385 113.175C138.307 114.386 138.14 115.589 137.885 116.775C137.688 117.747 137.545 118.728 137.455 119.715C137.391 120.46 137.429 121.211 137.57 121.945C137.723 122.557 137.949 123.148 138.245 123.705Z" fill="#FAFAFA"/>
<path d="M142.47 78.78C142.487 78.8171 142.5 78.8556 142.51 78.895L142.605 79.23C142.695 79.525 142.79 79.965 142.9 80.54C143.154 82.1704 143.219 83.8247 143.095 85.47C142.975 87.55 142.57 90.005 142.195 92.725C141.807 95.6772 141.621 98.6525 141.64 101.63C141.757 107.043 142.238 112.442 143.08 117.79C143.385 119.83 143.635 121.49 143.81 122.665C143.895 123.22 143.955 123.665 144.005 123.99C144.005 124.13 144.035 124.24 144.05 124.335C144.054 124.375 144.054 124.415 144.05 124.455C144.034 124.418 144.022 124.38 144.015 124.34C144.015 124.245 143.975 124.135 143.95 123.995C143.89 123.675 143.81 123.235 143.705 122.68C143.505 121.535 143.205 119.875 142.895 117.82C142.004 112.467 141.503 107.056 141.395 101.63C141.377 98.6401 141.57 95.6526 141.975 92.69C142.365 89.965 142.78 87.525 142.925 85.455C143.067 83.8226 143.03 82.1795 142.815 80.555C142.725 79.985 142.645 79.555 142.57 79.24L142.5 78.9C142.483 78.8621 142.473 78.8215 142.47 78.78Z" fill="#FAFAFA"/>
<path d="M150.17 96.655C150.123 96.4925 150.097 96.3243 150.095 96.155C150.065 95.825 150.03 95.345 150 94.75C149.935 93.565 149.88 91.925 149.875 90.11C149.87 88.295 149.905 86.655 149.96 85.47C149.99 84.875 150.015 84.395 150.045 84.065C150.048 83.8964 150.069 83.7287 150.11 83.565C150.144 83.7294 150.155 83.8975 150.145 84.065V85.47C150.145 86.72 150.145 88.33 150.145 90.105C150.145 91.88 150.18 93.49 150.195 94.74C150.195 95.285 150.195 95.74 150.195 96.145C150.206 96.3154 150.197 96.4865 150.17 96.655Z" fill="#FAFAFA"/>
<path d="M155 85.395C154.934 85.5519 154.857 85.7039 154.77 85.85C154.571 86.261 154.471 86.7133 154.48 87.17C154.48 87.745 154.6 88.445 154.68 89.215C154.76 89.985 154.945 90.825 155.06 91.715C155.171 92.5623 155.187 93.4191 155.11 94.27C155.057 94.9729 154.888 95.6622 154.61 96.31C154.419 96.7407 154.172 97.1442 153.875 97.51C153.665 97.77 153.53 97.895 153.515 97.885C153.868 97.3632 154.178 96.813 154.44 96.24C154.912 94.789 155.032 93.2465 154.79 91.74C154.68 90.855 154.515 90.01 154.43 89.24C154.343 88.5499 154.294 87.8555 154.285 87.16C154.293 86.6794 154.426 86.209 154.67 85.795C154.754 85.642 154.866 85.5062 155 85.395Z" fill="#FAFAFA"/>
<path d="M101.14 89.965C101.363 89.946 101.587 89.946 101.81 89.965C102.41 89.9843 103.009 89.9289 103.595 89.8C104.445 89.5516 105.199 89.0492 105.755 88.36C106.42 87.605 107.085 86.7 107.82 85.79C109.28 83.95 110.61 82.29 111.585 81.11L112.745 79.71C112.88 79.5287 113.032 79.3612 113.2 79.21C113.094 79.4055 112.968 79.5898 112.825 79.76L111.73 81.215C110.79 82.43 109.485 84.105 108.025 85.94C107.285 86.855 106.625 87.745 105.935 88.51C105.341 89.2246 104.539 89.7351 103.64 89.97C103.036 90.0895 102.417 90.1181 101.805 90.055C101.581 90.0506 101.357 90.0204 101.14 89.965Z" fill="#FAFAFA"/>
<path d="M113.84 66.045C113.808 66.1465 113.768 66.2452 113.72 66.34C113.598 66.6174 113.454 66.8848 113.29 67.14C112.696 68.092 111.945 68.9371 111.07 69.64C109.995 70.555 108.57 71.475 107.095 72.565C105.62 73.655 104.02 74.99 103.06 76.89C102.625 77.8432 102.134 78.7698 101.59 79.665C101.016 80.4696 100.297 81.1597 99.47 81.7C98.7 82.235 97.94 82.7 97.275 83.155C96.6473 83.5736 96.0818 84.0785 95.595 84.655C95.2376 85.0675 94.9703 85.55 94.8101 86.0718C94.65 86.5936 94.6005 87.143 94.665 87.685C94.7348 88.0818 94.8753 88.4629 95.08 88.81C95.08 88.81 95.08 88.81 95.025 88.75C94.9702 88.6912 94.9232 88.6257 94.885 88.555C94.7294 88.2926 94.6211 88.0049 94.565 87.705C94.48 87.1448 94.5149 86.573 94.6674 86.0274C94.82 85.4818 95.0868 84.9748 95.45 84.54C95.9385 83.9378 96.511 83.4091 97.15 82.97C97.82 82.47 98.58 82.025 99.33 81.495C100.131 80.9607 100.826 80.2825 101.38 79.495C101.917 78.6088 102.4 77.6904 102.825 76.745C103.825 74.79 105.455 73.42 106.955 72.345C108.455 71.27 109.875 70.345 110.955 69.475C111.826 68.7997 112.585 67.9915 113.205 67.08C113.378 66.8346 113.533 66.5773 113.67 66.31C113.716 66.2153 113.773 66.1264 113.84 66.045Z" fill="#FAFAFA"/>
<g opacity="0.3">
<path d="M98.725 89.38C99.7665 89.3959 100.801 89.2051 101.768 88.8187C102.735 88.4323 103.617 87.858 104.361 87.1289C105.104 86.3999 105.697 85.5305 106.102 84.5712C106.508 83.6119 106.72 82.5816 106.725 81.54C106.725 81.275 106.68 80.96 106.445 80.84C106.332 80.7997 106.208 80.7991 106.095 80.8382C105.981 80.8772 105.884 80.9537 105.82 81.055C105.697 81.2611 105.62 81.4914 105.595 81.73C105.253 83.4365 104.511 85.0374 103.429 86.4012C102.348 87.7649 100.958 88.8527 99.375 89.575" fill="black"/>
</g>
<g opacity="0.3">
<path d="M160.19 89C159.855 89.2675 159.588 89.61 159.41 90C158.325 91.71 156.18 92.4 154.745 93.825C153.65 94.92 152.775 96.215 152.77 97.765L155.115 98.83L161.215 89.33C161.16 88.895 160.555 88.76 160.19 89Z" fill="black"/>
</g>
<path d="M50.5 207.23C50.5 207.23 42.28 209 46.545 219C50.81 229 48.26 231.725 45.315 232.43L67.865 232.285L69.865 207.14L50.5 207.23Z" fill="#E0E0E0"/>
<path d="M66.9 232.42C65.3004 232.43 63.7534 231.849 62.555 230.79C60.7 229.16 58.41 226.11 57.955 220.82C57 209.625 50.5 207.235 50.5 207.235L69.855 207.15C69.855 207.15 76.14 207.15 76.65 217.085C77.185 227.5 91.625 233.48 100.54 232.315L66.9 232.42Z" fill="#F5F5F5"/>
<path d="M95.71 189.93C95.71 189.93 85.57 188.715 84.445 211.175C83.32 233.635 66.335 232.415 66.335 232.415H100.195C100.195 232.415 107.24 230.85 105.6 215C104.915 208.35 116.845 189.945 116.845 189.945L95.71 189.93Z" fill="#EBEBEB"/>
<path d="M90.06 192.47C88.98 193.765 89.42 195.84 90.365 197.24C91.31 198.64 92.785 199.585 94.285 200.365C95.785 201.145 97.355 201.805 98.7 202.83C100.78 204.42 102.165 206.78 103.005 209.26C103.768 211.766 104.28 214.342 104.535 216.95C104.535 216.95 103.425 198.315 100.15 193.145C96.875 187.975 92.13 190 90.06 192.47Z" fill="#E0E0E0"/>
<path d="M116.16 232.415C116.16 232.415 106.16 232.915 104.77 221.31C103.38 209.705 102.215 190.625 95.71 189.93H116.21C117.619 189.927 118.996 190.349 120.161 191.141C121.326 191.933 122.225 193.059 122.74 194.37C123.63 196.66 124.535 200.045 125.095 204.975C126.28 215.39 132.18 232.545 146.96 232.395L116.16 232.415Z" fill="#F5F5F5"/>
<path d="M122.89 222.855C122.89 222.925 119.89 222.985 116.215 222.985C112.54 222.985 109.54 222.925 109.54 222.855C109.54 222.785 112.54 222.725 116.215 222.725C119.89 222.725 122.89 222.78 122.89 222.855Z" fill="#263238"/>
<path d="M126.295 223.66C126.222 223.008 126.185 222.352 126.185 221.695L126.295 221.805H124.33L124.46 221.675V222.175C124.46 222.35 124.46 222.515 124.46 222.675C124.46 222.995 124.46 223.305 124.46 223.6L124.345 223.49C125.002 223.49 125.658 223.527 126.31 223.6C125.659 223.687 125.002 223.725 124.345 223.715H124.235V223.6C124.235 223.305 124.235 222.995 124.235 222.675C124.235 222.505 124.235 222.34 124.235 222.175V221.675L124.365 221.545H126.33H126.445V221.655C126.446 222.326 126.396 222.996 126.295 223.66Z" fill="#263238"/>
<path d="M125.955 227.16C125.955 227.235 122.955 227.29 119.285 227.29C115.615 227.29 112.61 227.235 112.61 227.16C112.61 227.085 115.61 227.03 119.285 227.03C122.96 227.03 125.955 227.09 125.955 227.16Z" fill="#263238"/>
<path d="M129.365 227.97C129.289 227.318 129.25 226.662 129.25 226.005L129.365 226.115H127.4L127.53 225.985V227.015C127.53 227.348 127.53 227.658 127.53 227.945L127.42 227.83C128.077 227.83 128.733 227.869 129.385 227.945C128.733 228.028 128.077 228.065 127.42 228.055H127.305V227.94C127.305 227.647 127.305 227.337 127.305 227.01V226C127.185 226.115 127.46 225.84 127.435 225.87H129.4H129.5V226C129.502 226.659 129.456 227.317 129.365 227.97Z" fill="#263238"/>
<path d="M120.315 212C120.315 212.07 117.315 212.13 113.645 212.13C109.975 212.13 106.97 212.07 106.97 212C106.97 211.93 109.97 211.87 113.645 211.87C117.32 211.87 120.315 211.93 120.315 212Z" fill="#263238"/>
<path d="M123.725 212.81C123.649 212.158 123.61 211.502 123.61 210.845L123.725 210.96H121.76L121.89 210.83V211.83C121.89 212.15 121.89 212.46 121.89 212.755L121.78 212.645C122.437 212.645 123.093 212.682 123.745 212.755C123.094 212.842 122.437 212.88 121.78 212.87H121.665V212.755C121.665 212.46 121.665 212.15 121.665 211.83V210.83C121.55 210.945 121.825 210.67 121.8 210.7H123.765H123.88V210.81C123.877 211.48 123.825 212.148 123.725 212.81Z" fill="#263238"/>
<path d="M119.585 206.34C119.585 206.41 116.585 206.47 112.91 206.47C109.235 206.47 106.235 206.41 106.235 206.34C106.235 206.27 109.235 206.21 112.91 206.21C116.585 206.21 119.585 206.27 119.585 206.34Z" fill="#263238"/>
<path d="M123 207.15C122.927 206.496 122.89 205.838 122.89 205.18L123 205.295H121.035L121.165 205.165V205.665C121.165 205.84 121.165 206.01 121.165 206.165C121.165 206.49 121.165 206.795 121.165 207.095L121.05 206.98C121.707 206.98 122.363 207.019 123.015 207.095C122.363 207.175 121.707 207.212 121.05 207.205H120.94V207.09C120.94 206.79 120.94 206.485 120.94 206.16C120.94 205.995 120.94 205.825 120.94 205.66V205.16C120.825 205.28 121.1 205.005 121.07 205.03H123.035H123.15V205.14C123.151 205.813 123.1 206.485 123 207.15Z" fill="#263238"/>
<path d="M118.615 201.155C118.615 201.225 115.615 201.285 111.94 201.285C108.265 201.285 105.265 201.225 105.265 201.155C105.265 201.085 108.265 201.025 111.94 201.025C115.615 201.025 118.615 201.08 118.615 201.155Z" fill="#263238"/>
<path d="M122 201.96C121.926 201.308 121.888 200.652 121.885 199.995L122 200.11H120.035L120.165 199.98V200.48C120.165 200.655 120.165 200.825 120.165 200.98C120.165 201.3 120.165 201.61 120.165 201.905L120.055 201.795C120.712 201.795 121.368 201.832 122.02 201.905C121.369 201.992 120.712 202.03 120.055 202.02H119.945V201.905C119.945 201.61 119.945 201.3 119.945 200.98C119.945 200.815 119.945 200.645 119.945 200.48V199.98C119.83 200.095 120.1 199.82 120.075 199.85H122.04H122.155V200C122.149 200.656 122.097 201.311 122 201.96Z" fill="#263238"/>
<path d="M117.24 196.4C117.24 196.47 114.24 196.53 110.565 196.53C106.89 196.53 103.89 196.47 103.89 196.4C103.89 196.33 106.89 196.265 110.565 196.265C114.24 196.265 117.24 196.325 117.24 196.4Z" fill="#263238"/>
<path d="M120.645 197.205C120.572 196.553 120.535 195.897 120.535 195.24L120.645 195.35H118.68L118.81 195.22V195.745C118.81 195.915 118.81 196.085 118.81 196.245C118.81 196.565 118.81 196.875 118.81 197.17L118.695 197.055C119.352 197.058 120.008 197.096 120.66 197.17C120.008 197.254 119.352 197.292 118.695 197.285H118.585V197.17C118.585 196.875 118.585 196.565 118.585 196.245C118.585 196.075 118.585 195.905 118.585 195.745V195.22L118.715 195.09H120.68H120.795V195.205C120.795 195.874 120.745 196.543 120.645 197.205Z" fill="#263238"/>
<path d="M114.925 192.41C114.925 192.48 111.925 192.54 108.25 192.54C104.575 192.54 101.575 192.48 101.575 192.41C101.575 192.34 104.575 192.28 108.25 192.28C111.925 192.28 114.925 192.34 114.925 192.41Z" fill="#263238"/>
<path d="M118.33 193.215C118.257 192.563 118.22 191.907 118.22 191.25L118.33 191.365H116.365L116.495 191.235V191.735C116.495 191.91 116.495 192.08 116.495 192.235C116.495 192.56 116.495 192.865 116.495 193.16L116.38 193.05C117.036 193.053 117.692 193.09 118.345 193.16C117.694 193.247 117.037 193.285 116.38 193.275H116.27V193.155C116.27 192.86 116.27 192.555 116.27 192.23C116.27 192.065 116.27 191.895 116.27 191.73V191.23L116.4 191.1H118.365H118.48V191.21C118.481 191.881 118.431 192.551 118.33 193.215Z" fill="#263238"/>
<path d="M119.58 202.6C119.807 202.119 120.111 201.678 120.48 201.295C120.595 201.165 120.7 201.035 120.815 200.9L120.9 200.8L120.99 200.885C121.45 201.305 121.75 201.63 121.715 201.675C121.68 201.72 121.31 201.465 120.83 201.07H121.005L120.68 201.475C120.376 201.907 120.005 202.287 119.58 202.6Z" fill="#447CCF"/>
<path d="M120.61 207.55C120.837 207.069 121.141 206.628 121.51 206.245L121.845 205.85L121.93 205.755L122.02 205.835C122.48 206.255 122.78 206.58 122.745 206.625C122.71 206.67 122.34 206.415 121.86 206.025H122.035L121.71 206.43C121.406 206.86 121.034 207.238 120.61 207.55Z" fill="#447CCF"/>
<path d="M123.54 224.5C123.767 224.019 124.071 223.578 124.44 223.195C124.555 223.065 124.66 222.935 124.775 222.8L124.86 222.7L124.95 222.785C125.41 223.205 125.71 223.53 125.675 223.575C125.64 223.62 125.27 223.365 124.79 222.97H124.965L124.64 223.375C124.336 223.807 123.965 224.187 123.54 224.5Z" fill="#447CCF"/>
<path d="M121.35 213.25C121.574 212.767 121.879 212.326 122.25 211.945L122.585 211.55L122.67 211.45L122.76 211.535C123.215 211.955 123.52 212.28 123.485 212.325C123.45 212.37 123.08 212.115 122.6 211.72H122.775L122.45 212.125C122.145 212.556 121.774 212.935 121.35 213.25Z" fill="#447CCF"/>
<path d="M121.605 217.43C121.605 217.5 118.605 217.56 114.93 217.56C111.255 217.56 108.255 217.5 108.255 217.43C108.255 217.36 111.255 217.3 114.93 217.3C118.605 217.3 121.605 217.355 121.605 217.43Z" fill="#263238"/>
<path d="M125 218.235C124.927 217.583 124.888 216.927 124.885 216.27L125 216.385H123.035L123.165 216.255V216.755C123.165 216.93 123.165 217.095 123.165 217.255C123.165 217.575 123.165 217.885 123.165 218.18L123.055 218.07C123.712 218.07 124.368 218.107 125.02 218.18C124.369 218.267 123.712 218.305 123.055 218.295H122.945V218.18C122.945 217.885 122.945 217.575 122.945 217.255C122.945 217.085 122.945 216.92 122.945 216.755V216.255C122.825 216.37 123.1 216.095 123.075 216.125H125.04H125.155V216.235C125.152 216.905 125.1 217.573 125 218.235Z" fill="#263238"/>
<path d="M122.355 218.905C122.584 218.425 122.888 217.984 123.255 217.6C123.37 217.47 123.48 217.34 123.59 217.205L123.675 217.105L123.765 217.19C124.225 217.61 124.53 217.935 124.49 217.975C124.45 218.015 124.085 217.77 123.605 217.375H123.78L123.46 217.78C123.154 218.211 122.781 218.591 122.355 218.905Z" fill="#447CCF"/>
<path d="M66.12 225.88C66.12 225.805 68.83 225.75 72.175 225.75C75.52 225.75 78.235 225.805 78.235 225.88C78.235 225.955 75.525 226.01 72.175 226.01C68.825 226.01 66.12 225.95 66.12 225.88Z" fill="#263238"/>
<path d="M63.03 225.145C63.1023 225.737 63.139 226.333 63.14 226.93L63.03 226.82H64.815C64.84 226.79 64.565 227.065 64.68 226.95V226C64.68 225.705 64.68 225.425 64.68 225.155L64.795 225.27C64.1982 225.269 63.602 225.231 63.01 225.155C63.6012 225.071 64.198 225.034 64.795 225.045H64.905V225.16C64.905 225.43 64.905 225.71 64.905 226.005V226.94L64.775 227.07H62.99H62.875V226.96C62.8762 226.352 62.928 225.745 63.03 225.145Z" fill="#263238"/>
<path d="M65.44 224.54C65.2417 224.981 64.9676 225.384 64.63 225.73L64.325 226.09L64.24 226.19L64.15 226.105C63.735 225.725 63.46 225.425 63.5 225.38C63.54 225.335 63.87 225.565 64.31 225.92H64.135L64.425 225.55C64.93 224.955 65.38 224.5 65.44 224.54Z" fill="#447CCF"/>
<path d="M63.71 222.325C63.71 222.25 66.425 222.195 69.77 222.195C73.115 222.195 75.825 222.25 75.825 222.325C75.825 222.4 73.115 222.455 69.77 222.455C66.425 222.455 63.71 222.395 63.71 222.325Z" fill="#263238"/>
<path d="M60.62 221.59C60.6923 222.182 60.729 222.778 60.73 223.375L60.62 223.265H62.405L62.275 223.395V222.92C62.275 222.765 62.275 222.61 62.275 222.46C62.275 222.165 62.275 221.885 62.275 221.615L62.39 221.73C61.7932 221.729 61.197 221.691 60.605 221.615C61.1962 221.531 61.793 221.495 62.39 221.505H62.5V221.62C62.5 221.89 62.5 222.17 62.5 222.465C62.5 222.615 62.5 222.77 62.5 222.925V223.4L62.37 223.53H60.585H60.5V223.42C60.4888 222.808 60.5289 222.196 60.62 221.59Z" fill="#263238"/>
<path d="M63.03 221C62.8317 221.441 62.5576 221.844 62.22 222.19L61.915 222.55L61.83 222.65L61.74 222.565C61.325 222.185 61.055 221.885 61.09 221.84C61.125 221.795 61.465 222.025 61.9 222.38H61.725L62 222C62.5 221.4 63 220.94 63.03 221Z" fill="#447CCF"/>
<path d="M62.89 218.31C62.89 218.235 65.6 218.18 68.945 218.18C72.29 218.18 75.005 218.235 75.005 218.31C75.005 218.385 72.295 218.44 68.945 218.44C65.595 218.44 62.89 218.38 62.89 218.31Z" fill="#263238"/>
<path d="M59.8 217.575C59.8725 218.167 59.9093 218.763 59.91 219.36L59.8 219.25H61.58L61.45 219.38V218.445C61.45 218.15 61.45 217.87 61.45 217.6L61.56 217.715C60.9648 217.714 60.3703 217.676 59.78 217.6C60.3695 217.516 60.9647 217.48 61.56 217.49H61.675V217.605C61.675 217.875 61.675 218.155 61.675 218.45V219.385C61.79 219.27 61.515 219.545 61.54 219.515H59.76H59.645V219.405C59.6454 218.792 59.6972 218.18 59.8 217.575Z" fill="#263238"/>
<path d="M62.205 216.97C62.012 217.413 61.7391 217.816 61.4 218.16L61.095 218.52L61.01 218.62L60.92 218.535C60.505 218.155 60.23 217.855 60.27 217.81C60.31 217.765 60.64 217.995 61.08 218.35H60.905L61.195 217.98C61.7 217.385 62.15 216.925 62.205 216.97Z" fill="#447CCF"/>
<path d="M62 214.205C62 214.13 64.71 214.07 68.055 214.07C71.4 214.07 74.11 214.13 74.11 214.205C74.11 214.28 71.4 214.335 68.055 214.335C64.71 214.335 62 214.275 62 214.205Z" fill="#263238"/>
<path d="M58.91 213.47C58.9861 214.062 59.0245 214.658 59.025 215.255L58.91 215.14H60.695L60.565 215.27V214.805C60.565 214.645 60.565 214.495 60.565 214.34C60.565 214.05 60.565 213.77 60.565 213.5L60.68 213.615C60.0833 213.611 59.4873 213.573 58.895 213.5C59.4862 213.416 60.0829 213.378 60.68 213.385H60.79V213.5C60.79 213.77 60.79 214.05 60.79 214.34C60.79 214.495 60.79 214.645 60.79 214.805V215.27L60.66 215.4H58.875H58.76V215.29C58.7611 214.68 58.8112 214.072 58.91 213.47Z" fill="#263238"/>
<path d="M61.32 212.865C61.1227 213.307 60.8484 213.709 60.51 214.055L60.205 214.415L60.12 214.51L60.03 214.43C59.615 214.045 59.345 213.75 59.38 213.705C59.415 213.66 59.755 213.89 60.19 214.24H60.015L60.31 213.875C60.81 213.275 61.265 212.815 61.32 212.865Z" fill="#447CCF"/>
<path d="M59.71 210.15C59.71 210.08 62.42 210.02 65.765 210.02C69.11 210.02 71.82 210.08 71.82 210.15C71.82 210.22 69.11 210.28 65.765 210.28C62.42 210.28 59.71 210.225 59.71 210.15Z" fill="#263238"/>
<path d="M56.615 209.42C56.691 210.01 56.7294 210.605 56.73 211.2L56.615 211.09H58.4L58.27 211.22V210.745C58.27 210.59 58.27 210.435 58.27 210.285C58.27 209.995 58.27 209.715 58.27 209.445L58.38 209.555C57.7833 209.554 57.1872 209.518 56.595 209.445C57.1859 209.358 57.7829 209.32 58.38 209.33H58.5V209.445C58.5 209.715 58.5 209.995 58.5 210.285C58.5 210.435 58.5 210.59 58.5 210.745V211.22C58.615 211.105 58.34 211.38 58.37 211.355H56.585H56.5V211.24C56.489 210.631 56.5275 210.023 56.615 209.42Z" fill="#263238"/>
<path d="M59.025 208.81C58.8292 209.252 58.5547 209.656 58.215 210L57.91 210.36L57.83 210.46L57.735 210.375C57.325 209.995 57.05 209.695 57.09 209.655C57.13 209.615 57.46 209.835 57.9 210.19H57.72L58.015 209.82C58.5 209.225 58.97 208.765 59.025 208.81Z" fill="#447CCF"/>
<path d="M95.37 189.91H95.475H95.785H96.985L101.455 189.88H116.745C117.832 189.745 118.934 189.955 119.895 190.48C120.898 191.014 121.756 191.785 122.395 192.725C123.403 194.33 124.07 196.126 124.355 198C124.71 199.785 124.965 201.5 125.18 203.175C125.625 206.48 125.895 209.48 126.425 211.935C126.849 213.857 127.492 215.724 128.34 217.5C128.64 218.135 128.915 218.61 129.1 218.935C129.185 219.08 129.255 219.2 129.315 219.295C129.342 219.336 129.364 219.379 129.38 219.425C129.345 219.391 129.315 219.352 129.29 219.31L129.055 218.96C128.761 218.503 128.49 218.03 128.245 217.545C127.349 215.758 126.667 213.872 126.215 211.925C125.655 209.425 125.37 206.46 124.915 203.155C124.69 201.505 124.415 199.775 124.075 198C123.792 196.161 123.137 194.398 122.15 192.82C121.539 191.916 120.719 191.174 119.76 190.655C118.844 190.155 117.795 189.954 116.76 190.08L101.455 190L96.985 189.955L95.785 189.93H95.475L95.37 189.91Z" fill="#263238"/>
<path d="M45.315 232.43C45.4591 232.401 45.6011 232.363 45.74 232.315C46.1537 232.19 46.5439 231.997 46.895 231.745C47.4642 231.336 47.9174 230.787 48.21 230.15C48.5885 229.274 48.7596 228.323 48.71 227.37C48.6904 226.172 48.5225 224.981 48.21 223.825C47.7955 222.461 47.2945 221.125 46.71 219.825C46.42 219.11 46.14 218.365 45.89 217.575C45.6192 216.761 45.4201 215.924 45.295 215.075C44.998 213.218 45.3512 211.316 46.295 209.69C46.8252 208.82 47.5893 208.117 48.5 207.66C48.735 207.548 48.9793 207.456 49.23 207.385C49.355 207.355 49.48 207.31 49.61 207.285L50.005 207.235C50.5479 207.175 51.096 207.288 51.57 207.56C52.5111 208.121 53.3265 208.87 53.965 209.76C54.6444 210.659 55.2465 211.614 55.765 212.615C56.3046 213.646 56.7659 214.715 57.145 215.815C57.351 216.38 57.518 216.958 57.645 217.545C57.755 218.145 57.805 218.74 57.895 219.34C58.0551 220.556 58.2804 221.763 58.57 222.955C58.8815 224.177 59.2553 225.382 59.69 226.565C59.881 227.17 60.1428 227.751 60.47 228.295C60.8176 228.835 61.2401 229.324 61.725 229.745C62.2163 230.174 62.747 230.556 63.31 230.885C63.8712 231.23 64.4619 231.524 65.075 231.765C65.6939 232.001 66.348 232.131 67.01 232.15C67.665 232.15 68.355 232.075 69.01 232.02C70.375 231.928 71.7209 231.648 73.01 231.19C74.3143 230.691 75.5454 230.018 76.67 229.19C77.8211 228.367 78.8224 227.352 79.63 226.19C81.2931 223.803 82.5235 221.143 83.265 218.33C83.6034 217.063 83.859 215.775 84.03 214.475C84.195 213.185 84.27 211.885 84.38 210.595C84.5557 208.047 84.8796 205.511 85.35 203C85.6 201.765 85.915 200.555 86.27 199.375C86.6011 198.194 87.012 197.036 87.5 195.91C87.9992 194.808 88.6451 193.779 89.42 192.85C90.1728 191.925 91.1048 191.161 92.16 190.605C93.0478 190.073 94.0602 189.785 95.095 189.77C96.1215 189.774 97.1129 190.144 97.89 190.815C98.6205 191.481 99.2045 192.291 99.605 193.195C99.9982 194.063 100.34 194.953 100.63 195.86C101.749 199.254 102.542 202.746 103 206.29C103.47 209.635 103.71 212.79 103.92 215.735C104.13 218.68 104.42 221.375 105.185 223.735C105.792 225.846 106.877 227.79 108.355 229.415C109.472 230.61 110.871 231.504 112.425 232.015C113.392 232.332 114.409 232.467 115.425 232.415C115.77 232.385 116.03 232.355 116.205 232.32L116.47 232.285L116.21 232.34C115.951 232.396 115.689 232.435 115.425 232.455C114.401 232.528 113.372 232.404 112.395 232.09C110.822 231.586 109.402 230.694 108.265 229.495C106.763 227.864 105.658 225.908 105.035 223.78C104.275 221.425 103.955 218.7 103.735 215.78C103.515 212.86 103.27 209.685 102.795 206.35C102.321 202.822 101.516 199.347 100.39 195.97C100.11 195.071 99.7758 194.189 99.39 193.33C99.0043 192.457 98.4406 191.673 97.735 191.03C96.9997 190.391 96.0595 190.036 95.085 190.03C94.0941 190.048 93.1252 190.326 92.275 190.835C91.2549 191.373 90.355 192.113 89.63 193.01C88.8695 193.92 88.2369 194.929 87.75 196.01C87.2669 197.124 86.8609 198.27 86.535 199.44C86.18 200.62 85.87 201.82 85.62 203.045C85.1516 205.544 84.8278 208.068 84.65 210.605C84.545 211.89 84.465 213.19 84.305 214.5C84.1294 215.811 83.8722 217.111 83.535 218.39C82.7815 221.231 81.536 223.919 79.855 226.33C79.0395 227.519 78.0245 228.557 76.855 229.4C75.7121 230.241 74.4608 230.924 73.135 231.43C71.8211 231.895 70.4503 232.179 69.06 232.275C68.37 232.325 67.705 232.395 67.01 232.4C66.3256 232.38 65.6495 232.245 65.01 232C64.3804 231.754 63.7746 231.451 63.2 231.095C62.6262 230.756 62.0855 230.365 61.585 229.925C61.0803 229.492 60.6422 228.986 60.285 228.425C59.9494 227.865 59.6809 227.268 59.485 226.645C59.0465 225.454 58.671 224.241 58.36 223.01C58.0724 221.809 57.8488 220.594 57.69 219.37C57.4642 217.032 56.7577 214.767 55.615 212.715C55.1079 211.724 54.5157 210.779 53.845 209.89C53.2257 209.021 52.4343 208.29 51.52 207.74C50.615 207.185 49.52 207.435 48.63 207.835C47.7555 208.278 47.024 208.959 46.52 209.8C45.5913 211.388 45.2381 213.247 45.52 215.065C45.6303 215.891 45.8127 216.706 46.065 217.5C46.31 218.28 46.565 219 46.87 219.74C47.4572 221.049 47.9583 222.395 48.37 223.77C48.6832 224.938 48.8511 226.141 48.87 227.35C48.901 228.319 48.7094 229.282 48.31 230.165C48.005 230.808 47.5381 231.361 46.955 231.77C46.5963 232.017 46.1993 232.203 45.78 232.32C45.629 232.372 45.4733 232.409 45.315 232.43Z" fill="#263238"/>
<path d="M80.425 225.235C80.425 225.235 80.39 225.235 80.335 225.175C80.28 225.115 80.19 225.065 80.085 224.975C79.7732 224.704 79.4761 224.417 79.195 224.115C78.7465 223.644 78.3305 223.143 77.95 222.615C77.4421 221.908 77.0286 221.139 76.72 220.325C76.414 219.322 76.185 218.298 76.035 217.26C75.86 216.145 75.72 214.95 75.505 213.71C75.3006 212.412 74.8958 211.154 74.305 209.98C73.9897 209.369 73.5853 208.807 73.105 208.315C72.8795 208.057 72.6062 207.844 72.3 207.69C71.9796 207.551 71.6439 207.45 71.3 207.39C69.9014 207.188 68.4869 207.116 67.075 207.175C65.7 207.175 64.375 207.265 63.11 207.275L56.385 207.335H51.85H50.62C50.4762 207.341 50.3322 207.332 50.19 207.31C50.3325 207.291 50.4762 207.281 50.62 207.28L51.85 207.24L56.38 207.14L63.1 207.025C64.365 207.025 65.69 206.93 67.07 206.91C68.5003 206.846 69.9333 206.918 71.35 207.125C71.7189 207.186 72.0784 207.293 72.42 207.445C72.5999 207.523 72.7681 207.626 72.92 207.75C73.055 207.87 73.19 207.99 73.315 208.125C73.8123 208.635 74.2303 209.216 74.555 209.85C75.1549 211.047 75.5632 212.331 75.765 213.655C75.975 214.91 76.105 216.105 76.265 217.215C76.4013 218.243 76.617 219.26 76.91 220.255C77.2012 221.058 77.5962 221.819 78.085 222.52C78.453 223.054 78.8537 223.565 79.285 224.05C79.64 224.445 79.93 224.74 80.135 224.935C80.34 225.13 80.43 225.23 80.425 225.235Z" fill="#263238"/>
<path d="M185.5 74.07C185.513 73.4703 185.686 72.885 186.002 72.3749C186.317 71.8649 186.764 71.4488 187.295 71.17C187.464 71.0719 187.655 71.0185 187.85 71.015C187.947 71.0143 188.042 71.0418 188.124 71.0941C188.206 71.1465 188.27 71.2215 188.31 71.31C188.338 71.4098 188.337 71.5153 188.309 71.615C188.281 71.7146 188.226 71.8046 188.15 71.875C187.992 72.0148 187.825 72.1434 187.65 72.26C187.402 72.4659 187.214 72.7347 187.106 73.0382C186.998 73.3417 186.973 73.6688 187.035 73.985" fill="#B78876"/>
<path d="M176.07 52.625C173.783 52.7978 171.658 53.8689 170.159 55.6041C168.66 57.3394 167.909 59.5976 168.07 61.885C168.525 68.635 168.385 77.805 165.16 83.385C159.58 93.045 151.21 94.76 151.85 114.075C152.49 133.39 153.35 135.435 149.49 140.425C145.63 145.415 137.26 142.835 133.61 154.21C129.96 165.585 132.535 222.455 126.74 228.465C126.74 228.465 122.02 232.965 117.085 232.54H144.815C147.174 232.57 149.451 231.672 151.155 230.04C151.858 229.367 152.416 228.557 152.794 227.66C153.173 226.763 153.363 225.798 153.355 224.825C153.355 220.91 154.64 165.595 156.79 160.87C158.94 156.145 170.095 151.33 171.79 140.435C173.485 129.54 172.9 111.91 172.885 108.74C172.885 105.74 173.47 99.85 179.24 92.985C188 82.61 186.805 71.27 187 67.405C187.195 63.54 185.5 51.905 185.5 51.905L176.07 52.625Z" fill="#EBEBEB"/>
<path d="M168.845 60.44C168.98 59.9485 169.252 59.5058 169.63 59.1642C170.009 58.8226 170.477 58.5964 170.979 58.5123C171.482 58.4282 171.998 58.4897 172.467 58.6895C172.936 58.8893 173.338 59.2191 173.625 59.64C174.45 60.84 174.26 62.64 175.37 63.59C176.075 64.195 177.095 64.235 178.025 64.22C180.953 64.161 183.867 63.799 186.72 63.14L186.08 54C186.08 54 172.205 52.78 170.515 55.06C168.825 57.34 168.845 60.44 168.845 60.44Z" fill="#E0E0E0"/>
<path d="M168.185 65.125C168.185 63.065 168.65 61.25 169.135 59.25C169.72 56.83 171.405 55.065 173.45 54.75C176.035 54.38 178.585 58.11 178.585 58.11C178.585 58.11 188.635 56.65 193.415 56.295C193.065 55.05 190.555 51.84 188.75 51.45C186.935 51.1307 185.089 51.0316 183.25 51.155C179.95 51.245 176.535 51.36 173.555 52.78C170.575 54.2 167.505 56.28 168.23 63.95" fill="#F5F5F5"/>
<path d="M187.74 51.695C187.576 51.7343 187.408 51.7545 187.24 51.755L185.875 51.86C184.725 51.945 183.135 52.065 181.375 52.25C179.615 52.435 178.045 52.66 176.91 52.86L175.57 53.105C175.406 53.144 175.238 53.1691 175.07 53.18C175.232 53.1197 175.4 53.0745 175.57 53.045C175.885 52.965 176.34 52.865 176.905 52.75C178.04 52.525 179.62 52.25 181.37 52.095C183.12 51.94 184.715 51.81 185.87 51.75L187.235 51.695C187.403 51.6817 187.572 51.6817 187.74 51.695Z" fill="#263238"/>
<path d="M156.605 161.47C156.605 161.545 152.35 162.235 147.105 163.015C141.86 163.795 137.555 164.37 137.545 164.3C137.535 164.23 141.795 163.54 147.045 162.755C152.295 161.97 156.595 161.4 156.605 161.47Z" fill="#263238"/>
<path d="M157.61 159.39C157.61 159.46 153.695 159.545 148.865 159.575C144.035 159.605 140.115 159.575 140.115 159.495C140.115 159.415 144.03 159.34 148.86 159.31C153.69 159.28 157.61 159.315 157.61 159.39Z" fill="#263238"/>
<path d="M118.33 232.605L118.83 232.54C119.3 232.478 119.764 232.383 120.22 232.255C121.968 231.739 123.611 230.92 125.075 229.835C125.586 229.473 126.076 229.084 126.545 228.67C127.038 228.196 127.418 227.617 127.655 226.975C128.207 225.52 128.609 224.012 128.855 222.475C129.471 218.706 129.892 214.908 130.115 211.095C130.7 202.625 130.94 192.515 131.29 181.295C131.475 175.68 131.66 169.795 132.13 163.69C132.25 162.19 132.395 160.635 132.595 159.09C132.768 157.526 133.062 155.978 133.475 154.46C133.725 153.705 134.015 152.96 134.3 152.215L134.835 151.14L135.105 150.6C135.205 150.43 135.32 150.26 135.43 150.1C136.269 148.701 137.379 147.484 138.695 146.52C140.018 145.582 141.456 144.819 142.975 144.25C144.466 143.719 145.911 143.067 147.295 142.3L147.795 141.99C147.95 141.875 148.095 141.745 148.245 141.625L148.695 141.26L149.085 140.83C149.21 140.69 149.345 140.55 149.47 140.405L149.815 139.935C150.055 139.63 150.265 139.305 150.475 138.98C150.891 138.339 151.241 137.657 151.52 136.945C151.776 136.231 151.964 135.494 152.08 134.745C152.284 133.254 152.369 131.749 152.335 130.245C152.335 128.745 152.28 127.245 152.23 125.795C152.113 122.858 152.002 119.987 151.895 117.18C151.855 115.775 151.77 114.395 151.785 113.02C151.785 112.335 151.785 111.655 151.785 110.98C151.785 110.305 151.855 109.635 151.885 108.98C151.92 107.645 152.155 106.345 152.31 105.06C152.532 103.806 152.833 102.567 153.21 101.35C153.924 99.0334 154.992 96.8409 156.375 94.85C157.677 93.0454 159.075 91.3129 160.565 89.66C161.897 88.1466 163.131 86.55 164.26 84.88L165.01 83.685C165.26 83.295 165.45 82.88 165.665 82.485C166.037 81.6994 166.36 80.8912 166.63 80.065C167.469 77.3021 167.973 74.4482 168.13 71.565C168.29 69.195 168.285 67.35 168.275 66.105C168.275 65.485 168.275 65.01 168.25 64.68C168.225 64.35 168.25 64.18 168.25 64.18C168.25 64.18 168.305 64.835 168.335 66.085C168.365 67.335 168.38 69.185 168.235 71.555C168.09 74.4373 167.597 77.2915 166.765 80.055C166.497 80.8894 166.176 81.7061 165.805 82.5C165.59 82.895 165.4 83.32 165.145 83.71C164.89 84.1 164.645 84.505 164.4 84.915C163.271 86.5946 162.037 88.2012 160.705 89.725C159.21 91.3793 157.807 93.1135 156.5 94.92C155.135 96.896 154.081 99.0696 153.375 101.365C153.008 102.574 152.716 103.805 152.5 105.05C152.345 106.325 152.12 107.615 152.085 108.945C152.055 109.605 151.995 110.27 151.985 110.945C151.975 111.62 151.985 112.295 151.985 112.98C151.985 114.34 152.06 115.73 152.1 117.13C152.21 119.937 152.325 122.81 152.445 125.75C152.495 127.215 152.55 128.7 152.55 130.205C152.589 131.726 152.504 133.248 152.295 134.755C152.179 135.522 151.988 136.275 151.725 137.005C151.441 137.735 151.082 138.434 150.655 139.09C150.445 139.42 150.23 139.75 149.99 140.06L149.64 140.53C149.51 140.685 149.37 140.825 149.24 140.975L148.835 141.42L148.375 141.8C148.22 141.92 148.07 142.055 147.905 142.17L147.405 142.49C146.01 143.266 144.554 143.925 143.05 144.46C141.551 145.021 140.13 145.774 138.825 146.7C137.536 147.642 136.448 148.832 135.625 150.2C135.52 150.365 135.405 150.53 135.305 150.7L135.04 151.23L134.54 152.29C134.26 153.03 133.97 153.765 133.725 154.505C133.317 156.009 133.025 157.542 132.85 159.09C132.65 160.63 132.505 162.16 132.38 163.685C131.91 169.77 131.72 175.66 131.53 181.27C131.165 192.49 130.91 202.605 130.3 211.08C130.068 214.907 129.634 218.719 129 222.5C128.747 224.052 128.333 225.573 127.765 227.04C127.524 227.7 127.132 228.294 126.62 228.775C126.142 229.189 125.641 229.576 125.12 229.935C123.643 231.019 121.983 231.828 120.22 232.325C119.761 232.449 119.293 232.536 118.82 232.585L118.33 232.605Z" fill="#263238"/>
<path d="M168.215 64.16L168.17 63.53C168.17 63.105 168.105 62.49 168.055 61.675C168.038 61.2177 168.055 60.7599 168.105 60.305C168.16 59.805 168.295 59.265 168.41 58.68C168.698 57.3199 169.342 56.0604 170.275 55.03C171.525 53.8209 173.023 52.8979 174.665 52.325C176.606 51.6282 178.633 51.2009 180.69 51.055C181.795 50.96 182.94 50.91 184.125 50.89C185.352 50.84 186.58 50.968 187.77 51.27C188.392 51.4339 188.997 51.6531 189.58 51.925C190.172 52.2216 190.725 52.5912 191.225 53.025C191.749 53.4581 192.225 53.9458 192.645 54.48C192.861 54.753 193.05 55.046 193.21 55.355C193.39 55.6703 193.496 56.0225 193.52 56.385V56.47H193.43C191.185 56.665 188.78 57.16 186.26 57.47L186.35 57.36C186.645 59.8 186.945 62.36 187.105 64.975C187.14 65.63 187.165 66.3 187.155 66.975C187.145 67.65 187.105 68.315 187.105 68.975C187.105 70.335 187.105 71.715 187 73.115C186.846 75.994 186.363 78.8459 185.56 81.615C184.692 84.519 183.416 87.285 181.77 89.83C180.11 92.455 177.82 94.67 176.27 97.47C174.595 100.255 173.536 103.366 173.165 106.595C173.044 108.259 173.024 109.929 173.105 111.595C173.125 113.262 173.145 114.952 173.165 116.665C173.19 120.065 173.165 123.51 173.05 126.99C172.91 130.99 172.7 134.99 172.19 138.86C171.99 140.804 171.526 142.712 170.81 144.53C170.051 146.297 169.064 147.958 167.875 149.47C165.53 152.47 162.615 154.855 159.945 157.31L159 158.275C158.695 158.605 158.385 158.93 158.09 159.275L157.685 159.805C157.542 159.973 157.418 160.155 157.315 160.35L156.99 160.925C156.906 161.124 156.833 161.328 156.77 161.535C156.403 163.25 156.144 164.987 155.995 166.735C155.33 173.655 155.02 180.265 154.72 186.445C154.42 192.625 154.22 198.385 154.04 203.645C153.86 208.905 153.725 213.645 153.615 217.84C153.568 219.93 153.525 221.87 153.485 223.66C153.508 224.521 153.461 225.382 153.345 226.235C153.21 227.007 152.942 227.749 152.555 228.43C151.896 229.57 150.97 230.533 149.855 231.235C149.041 231.746 148.149 232.123 147.215 232.35C146.643 232.493 146.059 232.58 145.47 232.61C145.075 232.61 144.87 232.61 144.87 232.61H145.02C145.12 232.61 145.27 232.61 145.47 232.585C147.012 232.485 148.504 232 149.81 231.175C150.908 230.474 151.819 229.516 152.465 228.385C152.843 227.712 153.103 226.98 153.235 226.22C153.346 225.373 153.388 224.519 153.36 223.665C153.395 221.875 153.43 219.93 153.47 217.84C153.565 213.66 153.69 208.9 153.855 203.64C154.02 198.38 154.225 192.64 154.5 186.44C154.775 180.24 155.095 173.65 155.755 166.715C155.892 164.949 156.14 163.194 156.5 161.46C156.575 161.245 156.635 161.015 156.73 160.81L157.07 160.215C157.177 160.014 157.304 159.825 157.45 159.65L157.865 159.11C158.165 158.765 158.475 158.435 158.785 158.11L159.785 157.16C162.465 154.69 165.365 152.33 167.685 149.345C168.859 147.851 169.834 146.211 170.585 144.465C171.287 142.666 171.744 140.781 171.945 138.86C172.445 134.985 172.66 131.02 172.8 127.01C172.915 123.535 172.94 120.095 172.915 116.695C172.895 114.995 172.875 113.307 172.855 111.63C172.777 109.964 172.799 108.294 172.92 106.63C173.294 103.365 174.367 100.219 176.065 97.405C177.63 94.575 179.935 92.345 181.565 89.755C183.205 87.2321 184.477 84.4877 185.34 81.605C186.139 78.8521 186.622 76.0172 186.78 73.155C186.86 71.76 186.88 70.38 186.89 69.02C186.89 68.345 186.92 67.655 186.94 67.02C186.96 66.385 186.94 65.69 186.895 65.02C186.74 62.395 186.445 59.855 186.155 57.415V57.315H186.255C188.755 57.005 191.17 56.515 193.44 56.315L193.35 56.41C193.252 55.7443 192.963 55.1211 192.52 54.615C192.107 54.0916 191.641 53.6124 191.13 53.185C190.64 52.7619 190.101 52.3993 189.525 52.105C188.951 51.8384 188.356 51.6209 187.745 51.455C186.569 51.157 185.357 51.029 184.145 51.075C182.965 51.075 181.825 51.135 180.725 51.23C178.677 51.3647 176.658 51.782 174.725 52.47C173.097 53.0293 171.609 53.9352 170.365 55.125C169.438 56.1406 168.795 57.3822 168.5 58.725C168.385 59.305 168.24 59.84 168.19 60.34C168.131 60.7907 168.109 61.2457 168.125 61.7C168.165 62.51 168.195 63.13 168.215 63.55C168.235 63.97 168.215 64.16 168.215 64.16Z" fill="#263238"/>
<path d="M193.425 56.385C193.335 56.4172 193.241 56.4374 193.145 56.445L192.325 56.565L189.325 56.96L179.4 58.17L178.605 58.265H178.525L178.485 58.2C178.003 57.4434 177.444 56.7396 176.815 56.1C176.243 55.511 175.517 55.0951 174.72 54.9C173.996 54.7548 173.247 54.7996 172.545 55.03C171.933 55.2297 171.378 55.5725 170.925 56.03C170.275 56.7141 169.765 57.5194 169.425 58.4C169.31 58.71 169.225 58.955 169.175 59.125C169.151 59.2099 169.123 59.2933 169.09 59.375C169.087 59.2854 169.099 59.1958 169.125 59.11C169.181 58.858 169.251 58.6093 169.335 58.365C169.638 57.4535 170.129 56.6155 170.775 55.905C171.242 55.4171 171.817 55.047 172.455 54.825C173.193 54.5714 173.984 54.5163 174.75 54.665C175.595 54.8591 176.366 55.2932 176.97 55.915C177.615 56.5628 178.189 57.2787 178.68 58.05L178.555 57.995L179.35 57.9L189.285 56.765L192.285 56.45L193.105 56.375C193.212 56.3649 193.319 56.3683 193.425 56.385Z" fill="#263238"/>
<path d="M187 74.96C186.995 75.0848 186.954 75.2054 186.881 75.3068C186.808 75.4082 186.707 75.4858 186.59 75.53L183.59 76.665C183.13 76.84 182.515 76.97 182.23 76.57C182.146 76.4239 182.112 76.2544 182.134 76.0873C182.156 75.9202 182.232 75.7648 182.35 75.645C182.593 75.4171 182.883 75.2463 183.2 75.145C184.355 74.645 185.62 74.175 186.79 73.69C186.817 73.6788 186.846 73.6747 186.875 73.678C186.904 73.6814 186.932 73.6921 186.955 73.7091C186.979 73.7262 186.998 73.749 187.01 73.7755C187.022 73.8019 187.027 73.831 187.025 73.86L187 74.96Z" fill="#B78876"/>
<path d="M187.115 75.965C187.181 76.2627 187.138 76.5742 186.994 76.843C186.85 77.1117 186.614 77.32 186.33 77.43L183.545 78.5C183.085 78.675 182.47 78.805 182.185 78.41C182.101 78.2639 182.067 78.0943 182.089 77.9272C182.111 77.7601 182.187 77.6048 182.305 77.485C182.547 77.2557 182.837 77.0847 183.155 76.985C184.26 76.525 185.465 76.06 186.585 75.6C186.635 75.5789 186.688 75.569 186.742 75.5711C186.796 75.5731 186.849 75.5871 186.896 75.612C186.944 75.6368 186.986 75.6719 187.018 75.7148C187.051 75.7577 187.074 75.8073 187.085 75.86L187.115 75.965Z" fill="#B78876"/>
<path d="M186.615 77.46C186.72 77.8964 186.661 78.3559 186.452 78.7526C186.242 79.1493 185.895 79.4559 185.475 79.615L183.155 80.5C182.695 80.675 182.08 80.805 181.795 80.405C181.713 80.2585 181.68 80.0892 181.702 79.9226C181.723 79.7559 181.798 79.6007 181.915 79.48C182.16 79.2529 182.452 79.0823 182.77 78.98C184.005 78.48 185.37 77.94 186.6 77.425L186.615 77.46Z" fill="#B78876"/>
<path d="M174.36 101.175C174.36 101.245 170.705 102.6 166.145 104.205C161.585 105.81 157.865 107.06 157.84 106.99C157.815 106.92 161.495 105.565 166.055 103.96C170.615 102.355 174.335 101.105 174.36 101.175Z" fill="#263238"/>
<path d="M172.385 103.175C171.97 103.53 171.525 103.848 171.055 104.125C170.215 104.68 169.055 105.42 167.71 106.205C166.365 106.99 165.17 107.67 164.28 108.14C163.813 108.421 163.321 108.659 162.81 108.85C163.248 108.527 163.71 108.236 164.19 107.98L167.58 105.98L170.96 103.98C171.414 103.676 171.89 103.407 172.385 103.175Z" fill="#263238"/>
<path d="M95.33 41.82C95.3356 41.8749 95.3356 41.9302 95.33 41.985C95.33 42.105 95.33 42.255 95.33 42.435C95.33 42.85 95.33 43.435 95.355 44.115C95.355 45.57 95.39 47.615 95.415 50.02L95.3 49.91H103.5C103.53 49.91 103.255 50.155 103.375 50.04V45.69C103.375 44.315 103.375 43.015 103.375 41.82L103.49 41.935L97.58 41.875L95.9 41.845H95.45H95.285C95.4748 41.8337 95.6652 41.8337 95.855 41.845L97.505 41.815L103.505 41.76H103.615V41.875C103.615 43.07 103.615 44.375 103.615 45.745V50C103.73 49.885 103.455 50.16 103.48 50.13H95.28H95.17V50C95.195 47.55 95.215 45.5 95.225 44C95.225 43.31 95.225 42.76 95.255 42.345C95.285 41.93 95.325 41.81 95.33 41.82Z" fill="#263238"/>
<path d="M105.245 40C105.41 40.135 103.67 42.53 101.36 45.34C100.86 45.93 100.41 46.49 99.975 47L99.72 47.29L99.445 47.045C97.525 45.315 96.225 44 96.335 43.87C96.445 43.74 97.94 44.835 99.93 46.485L99.405 46.53C99.815 46.005 100.275 45.435 100.76 44.845C103.07 42.025 105.075 39.85 105.245 40Z" fill="#447CCF"/>
<path d="M100.285 34H100.08H99.5C99.37 34 99.22 34 99.06 34L98.53 34.075L97.91 34.165L97.22 34.335C96.0323 34.6345 94.9022 35.1277 93.875 35.795C92.3535 36.7623 91.0736 38.0651 90.1333 39.6034C89.193 41.1417 88.6172 42.8748 88.45 44.67C88.4031 45.2087 88.3914 45.7498 88.415 46.29C88.415 46.565 88.415 46.84 88.47 47.115C88.525 47.39 88.555 47.67 88.595 47.95C88.8058 49.0977 89.1849 50.208 89.72 51.245C90.2901 52.3302 91.0143 53.3272 91.87 54.205C92.7834 55.1009 93.8289 55.8514 94.97 56.43C96.1513 57.0377 97.4312 57.4305 98.75 57.59C99.0811 57.6406 99.4151 57.669 99.75 57.675C100.083 57.6942 100.417 57.6942 100.75 57.675C101.436 57.6454 102.118 57.5584 102.79 57.415C104.237 57.1033 105.614 56.5251 106.85 55.71H106.73L110.865 57.37L111.11 57.47L111.04 57.215C110.625 55.715 110.215 54.215 109.825 52.79V52.9C110.93 51.4222 111.675 49.7066 112 47.89C112.159 47.0382 112.213 46.17 112.16 45.305C112.155 44.8876 112.116 44.4713 112.045 44.06C112.015 43.855 111.98 43.655 111.95 43.455C111.92 43.255 111.855 43.06 111.805 42.87C111.114 40.1501 109.478 37.7646 107.19 36.14C106.346 35.5334 105.422 35.0456 104.445 34.69L103.825 34.47L103.235 34.32L102.7 34.185L102.2 34.11C101.885 34.07 101.61 34.02 101.37 34.005H100.765H100.39H100.265C100.307 34.0098 100.348 34.0098 100.39 34.005L100.76 34.035L101.365 34.075C101.605 34.075 101.865 34.155 102.185 34.2C104.43 34.586 106.515 35.6162 108.186 37.1652C109.856 38.7142 111.041 40.7152 111.595 42.925C111.64 43.115 111.7 43.305 111.735 43.5C111.77 43.695 111.79 43.895 111.82 44.095C111.89 44.498 111.926 44.906 111.93 45.315C111.979 46.1652 111.924 47.0182 111.765 47.855C111.434 49.6507 110.687 51.3441 109.585 52.8L109.55 52.85V52.91L110.76 57.335L110.935 57.18L106.835 55.5L106.77 55.47L106.71 55.51C104.935 56.6851 102.872 57.3493 100.745 57.43C100.412 57.4477 100.078 57.4477 99.745 57.43C99.4101 57.4252 99.0759 57.3968 98.745 57.345C97.456 57.1909 96.2047 56.8082 95.05 56.215C93.9322 55.653 92.9083 54.9209 92.015 54.045C91.1745 53.1866 90.4622 52.2116 89.9 51.15C89.3745 50.1367 89.0005 49.0518 88.79 47.93C88.745 47.655 88.705 47.38 88.66 47.11C88.615 46.84 88.625 46.57 88.605 46.3C88.5807 45.77 88.589 45.239 88.63 44.71C88.7874 42.9429 89.345 41.2348 90.2607 39.7153C91.1764 38.1958 92.4261 36.9047 93.915 35.94C94.9259 35.2667 96.0384 34.7602 97.21 34.44L97.89 34.26L98.5 34.16L99.025 34.07L99.465 34.04L100.065 33.995C100.138 34.0053 100.212 34.007 100.285 34Z" fill="#455A64"/>
</svg>
