<svg width="85" height="85" viewBox="0 0 85 85" fill="none" xmlns="http://www.w3.org/2000/svg">
<path d="M66.4062 10.625H53.125C53.125 4.76465 48.3604 0 42.5 0C36.6396 0 31.875 4.76465 31.875 10.625H18.5938C14.1943 10.625 10.625 14.1943 10.625 18.5938V77.0312C10.625 81.4307 14.1943 85 18.5938 85H66.4062C70.8057 85 74.375 81.4307 74.375 77.0312V18.5938C74.375 14.1943 70.8057 10.625 66.4062 10.625ZM26.5625 70.3906C24.3545 70.3906 22.5781 68.6143 22.5781 66.4062C22.5781 64.1982 24.3545 62.4219 26.5625 62.4219C28.7705 62.4219 30.5469 64.1982 30.5469 66.4062C30.5469 68.6143 28.7705 70.3906 26.5625 70.3906ZM26.5625 54.4531C24.3545 54.4531 22.5781 52.6768 22.5781 50.4688C22.5781 48.2607 24.3545 46.4844 26.5625 46.4844C28.7705 46.4844 30.5469 48.2607 30.5469 50.4688C30.5469 52.6768 28.7705 54.4531 26.5625 54.4531ZM26.5625 38.5156C24.3545 38.5156 22.5781 36.7393 22.5781 34.5312C22.5781 32.3232 24.3545 30.5469 26.5625 30.5469C28.7705 30.5469 30.5469 32.3232 30.5469 34.5312C30.5469 36.7393 28.7705 38.5156 26.5625 38.5156ZM42.5 6.64062C44.708 6.64062 46.4844 8.41699 46.4844 10.625C46.4844 12.833 44.708 14.6094 42.5 14.6094C40.292 14.6094 38.5156 12.833 38.5156 10.625C38.5156 8.41699 40.292 6.64062 42.5 6.64062ZM63.75 67.7344C63.75 68.4648 63.1523 69.0625 62.4219 69.0625H38.5156C37.7852 69.0625 37.1875 68.4648 37.1875 67.7344V65.0781C37.1875 64.3477 37.7852 63.75 38.5156 63.75H62.4219C63.1523 63.75 63.75 64.3477 63.75 65.0781V67.7344ZM63.75 51.7969C63.75 52.5273 63.1523 53.125 62.4219 53.125H38.5156C37.7852 53.125 37.1875 52.5273 37.1875 51.7969V49.1406C37.1875 48.4102 37.7852 47.8125 38.5156 47.8125H62.4219C63.1523 47.8125 63.75 48.4102 63.75 49.1406V51.7969ZM63.75 35.8594C63.75 36.5898 63.1523 37.1875 62.4219 37.1875H38.5156C37.7852 37.1875 37.1875 36.5898 37.1875 35.8594V33.2031C37.1875 32.4727 37.7852 31.875 38.5156 31.875H62.4219C63.1523 31.875 63.75 32.4727 63.75 33.2031V35.8594Z" fill="#447CCF"/>
</svg>
